<?xml version="1.0" encoding="utf-8"?>
<!-- Generator: Adobe Illustrator 19.2.1, SVG Export Plug-In . SVG Version: 6.00 Build 0)  -->
<svg version="1.1" id="Layer_1" xmlns="http://www.w3.org/2000/svg" xmlns:xlink="http://www.w3.org/1999/xlink" x="0px" y="0px"
	 width="1497.2px" height="541.4px" viewBox="0 0 1497.2 541.4" style="enable-background:new 0 0 1497.2 541.4;"
	 xml:space="preserve">
<style type="text/css">
	.st0{clip-path:url(#SVGID_2_);}
	.st1{clip-path:url(#SVGID_4_);fill:#007DBA;}
	.st2{clip-path:url(#SVGID_4_);fill:none;stroke:#007DBA;stroke-width:20;stroke-miterlimit:10;}
	.st3{opacity:0.5;clip-path:url(#SVGID_4_);}
	.st4{clip-path:url(#SVGID_6_);fill:#FFFFFF;}
</style>
<g>
	<defs>
		<rect id="SVGID_1_" width="1497.2" height="541.4"/>
	</defs>
	<clipPath id="SVGID_2_">
		<use xlink:href="#SVGID_1_"  style="overflow:visible;"/>
	</clipPath>
	<g class="st0">
		<defs>
			<rect id="SVGID_3_" width="1497.2" height="541.4"/>
		</defs>
		<clipPath id="SVGID_4_">
			<use xlink:href="#SVGID_3_"  style="overflow:visible;"/>
		</clipPath>
		<path class="st1" d="M1054.6,480.8c-1.1-1.1-2.2-2.2-3.3-3.3c-0.1-0.1-0.2-0.2-0.3-0.3c-21.1-21.4-28.5-30.2-44.1-53
			c-17.2-25.1-12.8-39.2-11.3-43.4c1.6-4.2,19.3-34,34.3-50.1c15-16.1,68-60.7,68-60.7l118.7-120.3l-2.9,0.3
			c-2.9,0.3-6.9,4.7-6.9,4.7l-24.3-9c0,0-0.8-2.4,7.9-7.9c8.7-5.5,35.1,4,35.1,4l14.8-14.8c2.9-3.4,26.1-33,46.4-53.3
			C1298.8,61.9,1342,45,1357,40c15-5,29,1.6,43.5,8.2c14.5,6.6,51.7,34.8,51.7,34.8l0.2,0.2c0,0,28.2,37.2,34.8,51.7
			c6.6,14.5,13.2,28.5,8.2,43.5c-5,15-21.9,58.2-33.8,70.2c-20.3,20.4-49.8,43.5-53.3,46.4l-14.8,14.8c0,0,9.5,26.4,4,35.1
			c-5.5,8.7-7.9,7.9-7.9,7.9l-9-24.3c0,0,4.5-4,4.7-6.9l0.3-2.9l-120.3,118.7c0,0-44.6,53-60.7,68c-16.1,15-45.9,32.7-50.1,34.3
			c-4.2,1.6-18.3,6-43.4-11.3c-22.8-15.6-31.7-23-53-44.1c-0.1-0.1-0.2-0.2-0.3-0.3C1056.8,483,1055.7,481.9,1054.6,480.8
			 M1468.3,137.1c-1.7,3.1-4.1,7.5-6.9,12.8c-1.4,2.7-2.9,5.5-4.5,8.6c-1.6,3.1-3.3,6.3-5,9.6c-1.7,3.3-3.5,6.8-5.3,10.3
			c-1.8,3.5-3.6,7.1-5.4,10.7c-1.8,3.6-3.6,7.2-5.4,10.7c-1.8,3.5-3.5,7-5.1,10.4c-1.7,3.4-3.2,6.7-4.7,9.8c-1.5,3.1-2.9,6-4.2,8.8
			c-2.6,5.4-4.7,10-6.2,13.2c-1.5,3.2-2.3,5-2.3,5s1-1.8,2.7-4.8c1.7-3.1,4.1-7.5,6.9-12.8c1.4-2.7,3-5.5,4.5-8.6
			c1.6-3.1,3.3-6.3,5-9.6c1.7-3.3,3.5-6.8,5.3-10.3c1.8-3.5,3.6-7.1,5.4-10.7c1.8-3.6,3.6-7.2,5.4-10.7c1.8-3.5,3.5-7,5.1-10.4
			c1.7-3.4,3.2-6.7,4.7-9.8c1.5-3.1,2.9-6,4.2-8.8c2.6-5.4,4.7-10,6.2-13.2c1.5-3.2,2.3-5,2.3-5S1470,134,1468.3,137.1 M1391,292.9
			c0,0-59.6,31.7-71.2,39c-11.6,7.4-59.6,63.8-69.6,73.9c-10,10-16.6,20.8-16.6,20.8s36.9-20.6,53-34c16.1-13.5,54.3-49.6,71.7-67
			C1375.7,308.2,1391,292.9,1391,292.9 M1488.9,154.4c-1.3-1.3-11.3,8.2-11.3,8.2s1.8,11.9,0.3,19.8c-1.6,7.9-17.4,32.7-17.4,32.7
			s2.4,2.9,2.1,6.3c-0.3,3.4-0.5,6.3-0.5,6.3s28.7-43.6,30.2-52.7C1493.6,166,1488.9,154.4,1488.9,154.4 M1296.1,295.9
			c-0.5,0.4-1.2,1-2,1.8c-1.7,1.5-4.2,3.8-7.1,6.5c-1.5,1.4-3,2.8-4.7,4.4c-1.6,1.6-3.4,3.2-5.2,5c-1.8,1.7-3.6,3.5-5.5,5.3
			c-1.9,1.8-3.7,3.7-5.6,5.6c-1.9,1.9-3.7,3.8-5.6,5.6c-1.8,1.8-3.6,3.7-5.3,5.5c-1.7,1.8-3.4,3.5-5,5.2c-1.6,1.6-3,3.2-4.4,4.7
			c-2.7,2.9-4.9,5.4-6.5,7.1c-0.8,0.9-1.4,1.6-1.8,2c-0.4,0.5-0.6,0.7-0.6,0.7s0.2-0.2,0.7-0.6c0.5-0.4,1.2-1,2-1.8
			c1.7-1.5,4.2-3.8,7.1-6.5c1.5-1.4,3-2.8,4.7-4.4c1.6-1.6,3.4-3.2,5.2-5c1.8-1.7,3.6-3.5,5.5-5.3c1.9-1.8,3.7-3.7,5.6-5.6
			c1.9-1.9,3.7-3.8,5.6-5.6c1.8-1.8,3.6-3.7,5.3-5.5c1.7-1.8,3.4-3.5,5-5.2c1.6-1.6,3-3.2,4.4-4.7c2.7-2.9,4.9-5.4,6.5-7.1
			C1295.2,297.1,1295.8,296.4,1296.1,295.9c0.5-0.4,0.7-0.6,0.7-0.6S1296.6,295.5,1296.1,295.9 M1247.7,436.1
			c-3.3,1.5-7.9,3.8-13.5,6.5c-2.8,1.4-5.8,2.8-9,4.4c-3.2,1.6-6.5,3.2-10,5c-3.4,1.8-7,3.5-10.6,5.4c-3.6,1.9-7.3,3.7-10.9,5.6
			c-3.7,1.9-7.3,3.8-10.9,5.7c-3.6,1.9-7.1,3.8-10.5,5.6c-3.4,1.8-6.7,3.6-9.8,5.3c-3.1,1.7-6.1,3.3-8.8,4.8
			c-5.4,3-9.9,5.5-13.1,7.2c-3.1,1.8-4.9,2.8-4.9,2.8s1.9-0.9,5.1-2.4c3.3-1.5,7.9-3.8,13.5-6.5c2.8-1.4,5.8-2.8,9-4.4
			c3.2-1.6,6.5-3.2,10-5c3.4-1.8,7-3.5,10.6-5.4c3.6-1.9,7.3-3.7,10.9-5.6c3.7-1.9,7.3-3.8,10.9-5.7c3.6-1.9,7.1-3.8,10.5-5.6
			c3.4-1.8,6.7-3.6,9.8-5.3c3.1-1.7,6.1-3.3,8.8-4.8c5.4-3,9.9-5.5,13.1-7.2c3.1-1.8,4.9-2.8,4.9-2.8S1250.9,434.6,1247.7,436.1
			 M1160,521.3c-5.7-6.6-33.7,11.8-33.7,11.8s7.7,3.3,15.5,4.8c5.8,1.2,10.8,0,13.2-1.5C1160,533.1,1165.8,528,1160,521.3
			 M1398.2,66.8c-3.2,1.5-7.7,3.6-13.2,6.2c-2.7,1.3-5.7,2.7-8.8,4.2c-3.1,1.5-6.4,3.1-9.8,4.7c-3.4,1.7-6.9,3.4-10.4,5.1
			c-3.5,1.8-7.1,3.6-10.7,5.4c-3.6,1.8-7.2,3.6-10.7,5.4c-3.5,1.8-7,3.6-10.3,5.3c-3.3,1.7-6.6,3.4-9.6,5c-3.1,1.6-5.9,3.1-8.6,4.5
			c-5.3,2.8-9.7,5.2-12.8,6.9c-3.1,1.7-4.8,2.7-4.8,2.7s1.8-0.8,5-2.3c3.2-1.5,7.7-3.6,13.2-6.2c2.7-1.3,5.7-2.7,8.8-4.2
			c3.1-1.5,6.4-3.1,9.8-4.7c3.4-1.7,6.9-3.4,10.4-5.1c3.5-1.8,7.1-3.6,10.7-5.4c3.6-1.8,7.2-3.6,10.7-5.4c3.5-1.8,7-3.6,10.3-5.3
			c3.3-1.7,6.6-3.4,9.6-5c3.1-1.6,5.9-3.1,8.6-4.5c5.3-2.8,9.7-5.2,12.8-6.9c3.1-1.7,4.8-2.7,4.8-2.7S1401.4,65.3,1398.2,66.8
			 M1282.3,253.2c5.2,5.3,13.9,14.3,21.7,23.9c12.4,15,21.9,32.4,27.7,37.2c5.8,4.7,66.9-31.2,67.8-32.4
			c19.8-26.1,2.4-71.5-8.2-88.4c-6.7-10.8-16.3-21-22.4-26.9c-5.9-6-16.1-15.6-26.9-22.4c-16.9-10.6-62.2-28-88.4-8.2
			c-1.2,0.9-37.2,62-32.4,67.8c4.7,5.8,22.2,15.3,37.2,27.7C1267.9,239.3,1277,247.9,1282.3,253.2 M1209.9,177.1
			c-17.4,17.4-53.5,55.7-67,71.7c-13.5,16.1-34,53-34,53s10.8-6.6,20.8-16.6c10-10,66.5-58,73.9-69.6c7.4-11.6,39-71.2,39-71.2
			S1227.3,159.7,1209.9,177.1 M1360.4,43.3c-9.1,1.5-52.7,30.2-52.7,30.2s2.9-0.3,6.3-0.5c3.4-0.3,6.3,2.1,6.3,2.1
			s24.8-15.8,32.7-17.4c7.9-1.6,19.8,0.3,19.8,0.3s9.5-10,8.2-11.3C1381,46.6,1369.4,41.8,1360.4,43.3 M1239.5,239.2
			c-0.5,0.4-1.2,1-2,1.8c-1.7,1.5-4.2,3.8-7.1,6.5c-1.5,1.4-3,2.8-4.7,4.4c-1.6,1.6-3.4,3.2-5.2,5c-1.8,1.7-3.6,3.5-5.5,5.3
			c-1.9,1.8-3.7,3.7-5.6,5.6c-1.9,1.9-3.7,3.8-5.6,5.6c-1.8,1.8-3.6,3.7-5.3,5.5c-1.7,1.8-3.4,3.5-5,5.2c-1.6,1.6-3,3.2-4.4,4.7
			c-2.7,2.9-4.9,5.4-6.5,7.1c-0.8,0.9-1.4,1.6-1.8,2c-0.4,0.5-0.6,0.7-0.6,0.7s0.2-0.2,0.7-0.6c0.5-0.4,1.2-1,2-1.8
			c1.7-1.5,4.2-3.8,7.1-6.5c1.5-1.4,3-2.8,4.7-4.4c1.6-1.6,3.4-3.2,5.2-5c1.8-1.7,3.6-3.5,5.5-5.3c1.9-1.8,3.7-3.7,5.6-5.6
			c1.9-1.9,3.7-3.8,5.6-5.6c1.8-1.8,3.6-3.7,5.3-5.5c1.7-1.8,3.4-3.5,5-5.2c1.6-1.6,3-3.2,4.4-4.7c2.7-2.9,4.9-5.4,6.5-7.1
			C1238.6,240.4,1239.2,239.8,1239.5,239.2c0.5-0.4,0.7-0.6,0.7-0.6S1239.9,238.8,1239.5,239.2 M1098.9,287.6
			c-1.8,3.1-4.3,7.6-7.2,13.1c-1.5,2.7-3.1,5.7-4.8,8.8c-1.7,3.1-3.5,6.4-5.3,9.8c-1.8,3.4-3.7,6.9-5.6,10.5
			c-1.9,3.6-3.8,7.3-5.7,10.9c-1.9,3.7-3.8,7.3-5.6,10.9c-1.9,3.6-3.6,7.2-5.4,10.6c-1.8,3.4-3.4,6.8-5,10c-1.6,3.2-3.1,6.2-4.4,9
			c-2.7,5.6-5,10.2-6.5,13.5c-1.5,3.3-2.4,5.1-2.4,5.1s1-1.8,2.8-4.9c1.8-3.1,4.3-7.6,7.2-13.1c1.5-2.7,3.1-5.7,4.8-8.8
			c1.7-3.1,3.5-6.4,5.3-9.8s3.7-6.9,5.6-10.5c1.9-3.6,3.8-7.2,5.7-10.9c1.9-3.7,3.8-7.3,5.6-10.9c1.9-3.6,3.6-7.2,5.4-10.6
			c1.8-3.4,3.4-6.8,5-10c1.6-3.2,3.1-6.2,4.4-9c2.7-5.5,5-10.2,6.5-13.5c1.5-3.3,2.4-5.1,2.4-5.1S1100.7,284.4,1098.9,287.6
			 M999.1,380.4c-1.6,2.5-2.7,7.4-1.5,13.2c1.6,7.8,4.8,15.5,4.8,15.5s18.4-27.9,11.8-33.7C1007.4,369.7,1002.3,375.4,999.1,380.4
			 M1095.4,448.7c19.5,19,37.7,24.5,37.7,24.5s21.1-8.4,33-14c11.9-5.5,29.5-14.7,32.4-17.7c3.2-3.3,25.1-26.6,33.8-36.9
			c8.7-10.3,2.6-14.3,2.6-14.3l-40.6-40.6l-8.7-8.7l-40.6-40.6c0,0-4-6.1-14.3,2.6c-10.3,8.7-33.5,30.6-36.9,33.8
			c-3,2.9-12.2,20.5-17.7,32.4c-5.5,11.9-14,33-14,33s5.5,18.2,24.5,37.7C1088.4,441.9,1093.6,447,1095.4,448.7"/>
		<path class="st2" d="M1049.9,426.6L991,485.5c-27.2,27.2-61.2,20.2-75.4-15.5L789.5,153.1c-14.2-35.8-54.4-51.6-89.2-35.2
			l-13.8,6.5c-34.8,16.4-64.5,8.4-65.9-17.8c-1.4-26.2-18.3-47.4-37.6-47.2c-19.2,0.2-34.9,22.9-34.9,50.5s-13.8,50.1-30.6,50.1
			s-30.6-22.5-30.6-50.1s-10.5-50.1-23.3-50.1c-12.8,0-23.3,13.2-23.3,29.4c0,16.2-10.1,29.4-22.3,29.4h-22.3"/>
		<path class="st1" d="M261.7,95c0-3.8,3.1-6.9,6.9-6.9H296v13.9h-27.3C264.8,102,261.7,98.8,261.7,95"/>
		<path class="st1" d="M261.7,136.6c0-3.8,3.1-6.9,6.9-6.9l27.4,0v13.9h-27.4C264.8,143.6,261.7,140.4,261.7,136.6"/>
		<path class="st1" d="M316.6,165l-10.5,0c-3.3,0-6-2.7-6-6l0-4.4l0-76.3v-5.5c0-3.3,2.7-6,6-6h10.5c3.3,0,6,2.7,6,6v5.5v76.3v4.4
			C322.6,162.3,319.9,165,316.6,165"/>
		<path class="st1" d="M346.6,154c18.2,0,33.4-12.8,37.2-29.9l0-16.6c-3.8-17.1-19-29.9-37.2-29.9h-20.1V154L346.6,154z"/>
		<path class="st1" d="M227.7,113.9c0,62.9-51,113.9-113.9,113.9C51,227.7,0,176.7,0,113.9C0,51,51,0,113.9,0
			C176.7,0,227.7,51,227.7,113.9"/>
		<g class="st3">
			<g>
				<defs>
					<rect id="SVGID_5_" x="79.7" y="33.2" width="71.7" height="151"/>
				</defs>
				<clipPath id="SVGID_6_">
					<use xlink:href="#SVGID_5_"  style="overflow:visible;"/>
				</clipPath>
				<path class="st4" d="M112.1,184.2v-12.7c-5.6-0.5-10.5-1.8-14.8-3.9c-4.2-2.1-7.6-4.8-10.2-8.2c-2.5-3.4-4.4-7.1-5.7-11.3
					c-1.2-4.1-1.9-8.7-1.9-13.6l27.1-5.1v3.6c0,1.6,0,3.1,0.1,4.4c0.1,1.3,0.3,2.9,0.7,4.6c0.4,1.8,0.9,3.3,1.6,4.4
					c0.7,1.2,1.7,2.2,3,3c1.3,0.8,2.9,1.3,4.8,1.3c5.1,0,7.7-3,7.7-9.1c0-1.2-0.1-2.4-0.4-3.5s-0.7-2.2-1.4-3.3
					c-0.7-1.1-1.3-2-1.8-2.8c-0.5-0.7-1.4-1.6-2.7-2.8c-1.3-1.1-2.2-1.9-2.7-2.4c-0.5-0.5-1.6-1.4-3.3-2.7c-1.7-1.3-2.8-2.1-3.2-2.5
					l-8.3-6.6c-2.6-2.1-4.7-3.8-6.3-5.1c-1.6-1.3-3.4-3.2-5.5-5.5c-2.1-2.3-3.8-4.5-4.9-6.6c-1.1-2.1-2.1-4.6-3-7.5
					c-0.9-2.9-1.3-6-1.3-9.3c0-9.6,2.9-17.3,8.8-23.2c5.8-5.8,13.7-9.2,23.6-10.1V33.2h7.1v14.4c9.1,0.4,16.7,3.6,22.8,9.4
					c6.1,5.8,9.2,13,9.2,21.5V82l-27.7,3.7c0.1-2.7,0.2-4.5,0.2-5.5c0-8-2.8-12-8.3-12c-3,0-5.3,1-6.8,2.9c-1.5,1.9-2.2,4.2-2.2,6.8
					c0,3.6,1,6.6,2.9,9.2c1.9,2.6,4.7,5.2,8.4,8.1l9.1,6.9c3.5,2.6,6.3,4.8,8.5,6.7c2.1,1.8,4.3,4,6.6,6.5c2.3,2.5,4,4.9,5.2,7.3
					c1.2,2.4,2.2,5.2,3,8.3c0.8,3.2,1.2,6.6,1.2,10.4c0,8.6-3.1,15.7-9.3,21.3c-6.2,5.6-13.8,8.7-22.8,9.1v12.6H112.1z"/>
			</g>
		</g>
	</g>
</g>
</svg>
