<?xml version="1.0" encoding="utf-8"?>
<!-- Generator: Adobe Illustrator 19.2.1, SVG Export Plug-In . SVG Version: 6.00 Build 0)  -->
<svg version="1.1" id="Layer_7" xmlns="http://www.w3.org/2000/svg" xmlns:xlink="http://www.w3.org/1999/xlink" x="0px" y="0px"
	 viewBox="0 0 2000 2000" style="enable-background:new 0 0 2000 2000;" xml:space="preserve">
<style type="text/css">
	.st0{fill:#1684BF;}
	.st1{fill:#EC252C;}
	.st2{fill:#136CAA;}
	.st3{opacity:0.95;fill:#BAD53B;}
	.st4{fill:none;}
	.st5{fill:#FFFFFF;}
	.st6{font-family:'Oswald-Regular';}
	.st7{font-size:115.0024px;}
	.st8{font-size:230.0048px;}
</style>
<g>
	<path id="XMLID_3652_" class="st0" d="M1640,213.3H734.1c-33.9,0-61.4,27.5-61.4,61.4v356.3c0,33.9,27.5,61.4,61.4,61.4h632.7
		v112.7l112.7-112.7H1640c33.9,0,61.4-27.5,61.4-61.4V274.7C1701.5,240.8,1674,213.3,1640,213.3z"/>
	<path id="XMLID_3659_" class="st1" d="M107.4,761.7h794.2c33.9,0,61.4,27.5,61.4,61.4v840.7c0,33.9-27.5,61.4-61.4,61.4h-521V1838
		L268,1725.3H107.4c-33.9,0-61.4-27.5-61.4-61.4V823.2C45.9,789.3,73.4,761.7,107.4,761.7z"/>
	<path id="XMLID_3673_" class="st2" d="M1781.7,1307.5h-670.8c-113,0-204.5,91.6-204.5,204.5v0c0,113,91.6,204.5,204.5,204.5h456
		v96.2l96.2-96.2h118.6c113,0,204.5-91.6,204.5-204.5v0C1986.2,1399.1,1894.7,1307.5,1781.7,1307.5z"/>
	<path id="XMLID_3649_" class="st3" d="M1021.8,1416.2l68.9-197.9c-103.5-47.9-172.9-136-172.9-236.9c0-152,157.4-275.1,351.6-275.1
		c194.2,0,351.6,123.2,351.6,275.1c0,152-157.4,275.1-351.6,275.1c-35,0-68.7-4.1-100.6-11.5L1021.8,1416.2z"/>
	<rect id="XMLID_3686_" x="1016.9" y="1383.7" class="st4" width="875.2" height="300.5"/>
	<text id="XMLID_3665_" transform="matrix(1 0 0 1 1078.7246 1484.2451)"><tspan x="0" y="0" class="st5 st6 st7">I love the instant </tspan><tspan x="88.8" y="138" class="st5 st6 st7">acceleration.</tspan></text>
	<rect id="XMLID_3681_" x="1001.6" y="873.4" class="st4" width="545.2" height="347.7"/>
	<text id="XMLID_3663_" transform="matrix(1 0 0 1 1051.2822 973.9673)"><tspan x="0" y="0" class="st6 st7">It handles </tspan><tspan x="59.7" y="115" class="st6 st7">so well.</tspan></text>
	<path id="XMLID_3667_" class="st3" d="M673.7,830L544.2,674.1C647.6,626.2,717,538,717,437.1c0-152-157.4-275.1-351.6-275.1
		C171.2,162,13.8,285.2,13.8,437.1c0,152,157.4,275.1,351.6,275.1c35,0,68.7-4.1,100.6-11.5L673.7,830z"/>
	<rect id="XMLID_3683_" x="80" y="296.3" class="st4" width="562.9" height="288.3"/>
	<text id="XMLID_3668_" transform="matrix(1 0 0 1 252.6758 396.8413)"><tspan x="0" y="0" class="st6 st7">It&apos;s a </tspan><tspan x="-171.1" y="115" class="st6 st7">smooth ride.</tspan></text>
	<rect id="XMLID_3674_" x="86.1" y="876.1" class="st4" width="836.8" height="862.9"/>
	<text id="XMLID_3661_" transform="matrix(1 0 0 1 237.8765 1077.1992)"><tspan x="0" y="0" class="st5 st6 st8">It&apos;s so </tspan><tspan x="22.6" y="230" class="st5 st6 st8">much </tspan><tspan x="98.8" y="460" class="st5 st6 st8">fun!</tspan></text>
	<rect id="XMLID_3671_" x="725" y="342.1" class="st4" width="891.2" height="307.8"/>
	<text id="XMLID_3654_" transform="matrix(1 0 0 1 904.0063 442.6519)"><tspan x="0" y="0" class="st5 st6 st7">It&apos;s fast and </tspan><tspan x="12.3" y="115" class="st5 st6 st7">responsive!</tspan></text>
</g>
</svg>
