<?xml version="1.0" encoding="utf-8"?>
<!-- Generator: Adobe Illustrator 19.2.1, SVG Export Plug-In . SVG Version: 6.00 Build 0)  -->
<svg version="1.1" id="Layer_7" xmlns="http://www.w3.org/2000/svg" xmlns:xlink="http://www.w3.org/1999/xlink" x="0px" y="0px"
	 viewBox="0 0 1500 1500" style="enable-background:new 0 0 1500 1500;" xml:space="preserve">
<style type="text/css">
	.st0{display:none;}
	.st1{display:inline;}
	.st2{clip-path:url(#SVGID_2_);fill:#0884BE;}
	.st3{clip-path:url(#SVGID_2_);fill:#245F80;}
	.st4{clip-path:url(#SVGID_2_);fill:#FFFFFF;}
	.st5{clip-path:url(#SVGID_2_);}
	.st6{fill:#B0BEC5;}
	.st7{fill:#90A4AE;}
	.st8{fill:#424242;}
	.st9{fill:#616161;}
	.st10{fill:#2E7D32;}
	.st11{fill:#43A047;}
	.st12{fill:#CFD8DC;}
	.st13{fill:#757575;}
	.st14{fill:#78909C;}
	.st15{fill:#9CCC65;}
	.st16{fill:#FC4C59;}
	.st17{fill:#EB232A;}
	.st18{fill:#7CB342;}
	.st19{fill:#212121;}
	.st20{fill:#231F20;}
	.st21{fill:#D8031D;}
	.st22{fill:#9E9E9E;}
	.st23{fill:#BDBDBD;}
	.st24{fill:#F97585;}
	.st25{fill:#42A5F5;}
	.st26{fill:#6CB9F7;}
	.st27{fill:#F4511E;}
	.st28{fill:#FF7043;}
	.st29{fill:#E0E0E0;}
	.st30{fill:#EEEEEE;}
	.st31{fill:#FAFAFA;}
	.st32{clip-path:url(#SVGID_4_);}
	.st33{fill:#E69875;}
	.st34{fill:#FCBA9F;}
	.st35{fill:#F09F7A;}
	.st36{fill:#FFD5C5;}
	.st37{fill:#81C784;}
	.st38{fill:#388E3C;}
	.st39{fill:#C8E6C9;}
	.st40{fill:#FFFFFF;}
	.st41{opacity:0.25;fill:#212121;}
	.st42{fill:#404A4C;}
	.st43{fill:#141A00;}
	.st44{fill:#C4030B;}
	.st45{fill:#C96E04;}
	.st46{fill:#AC0A1A;}
	.st47{fill:#CABF14;}
	.st48{fill:#0B713A;}
	.st49{fill:url(#SVGID_5_);}
	.st50{fill:url(#SVGID_6_);}
	.st51{fill:url(#SVGID_7_);}
	.st52{fill:url(#SVGID_8_);}
	.st53{fill:url(#SVGID_9_);}
	.st54{fill:url(#SVGID_10_);}
	.st55{fill:url(#SVGID_11_);}
	.st56{fill:#A8A8A8;}
	.st57{fill:#DBDBDB;}
</style>
<g class="st0">
	<g class="st1">
		<defs>
			<ellipse id="SVGID_1_" cx="750" cy="769.4" rx="719.6" ry="719.6"/>
		</defs>
		<clipPath id="SVGID_2_">
			<use xlink:href="#SVGID_1_"  style="overflow:visible;"/>
		</clipPath>
		<rect x="-139.5" y="-150.7" class="st2" width="1831.7" height="1831.7"/>
		<path class="st3" d="M1400,1321.8H-68c-13.5,0-24.4-10.9-24.4-24.4s10.9-24.4,24.4-24.4h1468c13.5,0,24.4,10.9,24.4,24.4
			S1413.5,1321.8,1400,1321.8z"/>
		<polygon class="st3" points="1604.5,810.1 1604.5,553.4 1438.9,553.4 1438.9,463.5 1310.4,463.5 1310.4,616.8 1269.5,616.8 
			1211.5,739.1 1211.5,419.9 1064.5,419.9 1064.5,481.5 988.1,481.5 988.1,690.4 948.4,690.4 948.4,495.2 919.4,495.2 919.4,427.6 
			874.7,427.6 874.7,341.8 862.6,341.8 862.6,427.6 817.9,427.6 817.9,495.2 788.9,495.2 762.5,530.1 749.1,530.1 749.1,303 
			706.8,303 706.8,224.3 477.3,224.3 477.3,303 435,303 435,592.8 401.2,592.8 401.2,543.2 311.7,543.2 311.7,491 244.7,491 
			244.7,705.9 145,705.9 145,675.1 112.4,675.1 112.4,642.5 79.8,642.5 79.8,654.6 -41.6,606.2 -41.6,740.9 -86.8,740.9 
			-86.8,785.7 -106.2,763.9 -106.2,698.6 -127.3,698.6 -127.3,656.8 -176.6,656.8 -176.6,1226 1655.1,1226 1655.1,810.1 		"/>
		<path class="st4" d="M1175.3,331.7c0.1-0.9,0.1-1.8,0.1-2.8c0-17.9-14.5-32.4-32.4-32.4c-4.8,0-9.4,1.1-13.5,3
			c-5-22.8-25.3-39.9-49.6-39.9c-22.9,0-42.2,15.1-48.6,35.9c-5.6-5.7-13.5-9.3-22.2-9.3c-17.2,0-31.1,13.9-31.1,31.1
			c0,0.1,0,0.2,0,0.4c-2.7-1.8-6-2.9-9.6-2.9c-9.4,0-17,7.5-17.2,16.8H1175.3z"/>
		<g class="st5">
			<rect x="-306.1" y="935.7" class="st6" width="116.9" height="388.5"/>
			<rect x="-253.5" y="989.5" class="st7" width="116.9" height="334.7"/>
			<rect x="-253.5" y="1291.5" class="st8" width="116.9" height="32.8"/>
			<rect x="-306.1" y="1291.5" class="st9" width="52.6" height="32.8"/>
			<rect x="-253.5" y="1059.1" class="st10" width="116.9" height="21.2"/>
			<rect x="-306.1" y="1059.1" class="st11" width="52.6" height="21.2"/>
			<polygon class="st12" points="-253.5,989.5 -136.6,989.5 -189.3,935.7 -306.1,935.7 			"/>
			<polygon class="st13" points="-163.9,978.1 -194.1,947.2 -278.9,947.2 -248.7,978.1 			"/>
			<g>
				<path class="st6" d="M-176.4,1100.1v41.3c0,10.3-8.4,18.7-18.7,18.7c-10.3,0-18.7-8.4-18.7-18.7v-41.3H-176.4z"/>
				<path class="st6" d="M-176.4,1100.1v41.3c0,10.3-8.4,18.7-18.7,18.7c-10.3,0-18.7-8.4-18.7-18.7v-41.3H-176.4z"/>
				<path class="st14" d="M-184.6,1100.1v39.4c0,8.1-6.5,14.6-14.6,14.6c-8.1,0-14.6-6.5-14.6-14.6v-39.4H-184.6z"/>
			</g>
			<path class="st10" d="M-169.6,1013.3v-9.6c0-1.3-1.1-2.4-2.4-2.4s-2.4,1.1-2.4,2.4v9.6h-5v-9.6c0-1.3-1.1-2.4-2.4-2.4
				s-2.4,1.1-2.4,2.4v9.6h-4.6v2.4c0,5.8,4.1,10.6,9.5,11.8c-1,9.4-8.9,17.3-17.8,18.1c-3,0.2-4.9,0-4.9,0c-10.1-1.2-18-9.8-18-20.2
				c0-10.4,7.9-19,18-20.3c0,0,3.7-0.2,4.9-0.2v-4.8h-2.4c-13.9,0-25.3,11.3-25.3,25.3c0,13.9,11.3,25.3,25.3,25.3
				c13.2,0,24-10.2,25.2-23.1c5.5-1.1,9.7-6,9.7-11.8v-2.4H-169.6z M-177,1022.9c-3.1,0-5.7-2-6.7-4.7h13.4
				C-171.3,1020.9-173.9,1022.9-177,1022.9z"/>
		</g>
	</g>
	<g class="st1">
		<g>
			<ellipse class="st15" cx="507.9" cy="902.6" rx="2.7" ry="10.9"/>
			<path class="st16" d="M435.3,869.9H470c12.4,0,20.5,15,22.6,21.8h15.3v21.8h-72.7c-10,0-18.1-8.1-18.1-18.1v-7.5
				C417.2,877.9,425.3,869.9,435.3,869.9z"/>
			<path class="st17" d="M417.5,898.7c14.6,5.2,49.4,5.7,68.9,5.7c1,0,20.7,0,21.5,0v9.1h-72.7C426.4,913.5,419.1,907.1,417.5,898.7
				z"/>
			<path class="st18" d="M510.6,904.4c-0.2,5.2-1.3,9.1-2.7,9.1c-1.3,0-2.4-3.9-2.7-9.1H510.6z"/>
		</g>
		<g>
			<rect x="427" y="1081.6" class="st8" width="35.7" height="215.7"/>
			<ellipse class="st8" cx="427" cy="1189.5" rx="87" ry="107.9"/>
			<ellipse class="st19" cx="462.8" cy="1189.5" rx="87" ry="107.9"/>
		</g>
		<g>
			<rect x="951.5" y="1081.6" class="st8" width="35.7" height="215.7"/>
			<ellipse class="st8" cx="951.5" cy="1189.5" rx="87" ry="107.9"/>
			<ellipse class="st19" cx="987.2" cy="1189.5" rx="87" ry="107.9"/>
		</g>
		<polygon class="st20" points="1407,1055.2 677.8,1055.2 677.8,1221.7 1269.3,1221.7 1424.3,1175.1 		"/>
		<path class="st17" d="M1240.1,1221.7v-27.1c0-70.3,40.4-127.3,90.2-127.3c44.4,0,76.1,46.8,83.3,106.5v-114.3l-27-17v-79.2
			c0-15.7-5.7-39.7-12.8-53.7L1263.1,746c-7.1-14-25.5-25.4-41.2-25.4H985.4c-15.7,0-36,10.2-45.3,22.8L798,934.8
			c0,0-123,25.3-123,120.8v29.6l-12.1,22.9v113.6h32v-26.5c0-68.5,44.4-124,99.1-124c54.7,0,99.1,55.5,99.1,124v26.5H1240.1z"/>
		<path class="st16" d="M985.8,720.6c-20.3,0-291.4,0-291.4,0c-88,0-143.9,40.8-181.3,91.2l-91.3,123H798l142.1-191.4
			C949.4,730.8,970.5,720.6,985.8,720.6z"/>
		<path class="st21" d="M1199.1,932.1v113.1c0,24.3-10.8,55.3-28.1,81c-17.7,26.1-38.8,41.8-56.5,41.8h-108.1l-72.2,0
			c-2.7-0.4-11.5-9.4-21.4-35c-7.6-19.8-13.2-42.5-13.2-53.9V932.1H1199.1z M1202.2,923.6H891.1c0,0,0,130.1,0,155.4
			c0,25.2,23.6,97.5,43.1,97.5c19.5,0,149.1,0,180.3,0c45.2,0,93.1-77.6,93.1-131.3c0-58.5,0-110.4,0-110.4L1202.2,923.6
			L1202.2,923.6z"/>
		<g>
			<rect x="754" y="1081.6" class="st19" width="35.7" height="215.7"/>
			<ellipse class="st19" cx="754" cy="1189.5" rx="87" ry="107.9"/>
			<ellipse class="st8" cx="789.7" cy="1189.5" rx="87" ry="107.9"/>
			<ellipse class="st22" cx="789.7" cy="1189.5" rx="61.4" ry="76"/>
			<ellipse class="st13" cx="789.7" cy="1189.5" rx="45.2" ry="56.1"/>
			<ellipse class="st22" cx="789.7" cy="1189.5" rx="21.8" ry="27"/>
			<path class="st23" d="M789.7,1127c-27.8,0-50.4,28-50.4,62.4c0,34.5,22.6,62.4,50.4,62.4c27.8,0,50.4-28,50.4-62.4
				C840.1,1155,817.5,1127,789.7,1127z M789.7,1245.5c-25,0-45.2-25.1-45.2-56.1c0-31,20.3-56.1,45.2-56.1c25,0,45.2,25.1,45.2,56.1
				C835,1220.4,814.7,1245.5,789.7,1245.5z"/>
			<path class="st22" d="M830,1150.5c-2.6-4.1-5.6-7.8-8.9-11l-25.2,31.2v-44.1c-2.1-0.3-4.1-0.5-6.3-0.5c-2.1,0-4.2,0.2-6.3,0.5
				v44.1l-25.2-31.2c-3.3,3.2-6.3,6.9-8.9,11l25.2,31.2l-35.6,0c-0.3,2.5-0.4,5.1-0.4,7.8c0,2.6,0.2,5.2,0.4,7.8l35.6,0l-25.2,31.2
				c2.6,4.1,5.6,7.8,8.9,11l25.2-31.2v44.1c2.1,0.3,4.1,0.5,6.3,0.5c2.1,0,4.2-0.2,6.3-0.5l0-44.1l25.2,31.2c3.3-3.2,6.3-6.9,8.9-11
				l-25.2-31.2h35.6c0.3-2.6,0.4-5.1,0.4-7.8c0-2.6-0.2-5.2-0.4-7.8l-35.6,0L830,1150.5z"/>
			<ellipse class="st13" cx="789.7" cy="1189.5" rx="8.3" ry="10.3"/>
		</g>
		<g>
			<rect x="1278.5" y="1081.6" class="st19" width="35.7" height="215.7"/>
			<ellipse class="st19" cx="1278.5" cy="1189.5" rx="87" ry="107.9"/>
			<ellipse class="st8" cx="1314.2" cy="1189.5" rx="87" ry="107.9"/>
			<ellipse class="st22" cx="1314.2" cy="1189.5" rx="61.4" ry="76"/>
			<ellipse class="st13" cx="1314.2" cy="1189.5" rx="45.2" ry="56.1"/>
			<ellipse class="st22" cx="1314.2" cy="1189.5" rx="21.8" ry="27"/>
			<path class="st23" d="M1314.2,1127c-27.8,0-50.4,28-50.4,62.4c0,34.5,22.6,62.4,50.4,62.4c27.8,0,50.4-28,50.4-62.4
				C1364.6,1155,1342,1127,1314.2,1127z M1314.2,1245.5c-25,0-45.2-25.1-45.2-56.1c0-31,20.3-56.1,45.2-56.1
				c25,0,45.2,25.1,45.2,56.1C1359.4,1220.4,1339.2,1245.5,1314.2,1245.5z"/>
			<path class="st22" d="M1354.5,1150.5c-2.6-4.1-5.6-7.8-8.9-11l-25.2,31.2v-44.1c-2.1-0.3-4.1-0.5-6.3-0.5c-2.1,0-4.2,0.2-6.3,0.5
				v44.1l-25.2-31.2c-3.3,3.2-6.3,6.9-8.9,11l25.2,31.2l-35.6,0c-0.3,2.5-0.4,5.1-0.4,7.8c0,2.6,0.2,5.2,0.4,7.8l35.6,0l-25.2,31.2
				c2.6,4.1,5.6,7.8,8.9,11l25.2-31.2v44.1c2.1,0.3,4.1,0.5,6.3,0.5c2.1,0,4.2-0.2,6.3-0.5l0-44.1l25.2,31.2c3.3-3.2,6.3-6.9,8.9-11
				l-25.2-31.2h35.6c0.3-2.6,0.4-5.1,0.4-7.8c0-2.6-0.2-5.2-0.4-7.8l-35.6,0L1354.5,1150.5z"/>
			<ellipse class="st13" cx="1314.2" cy="1189.5" rx="8.3" ry="10.3"/>
		</g>
		<g>
			<path class="st21" d="M1154,971.1c0,10.8-11.3,19.6-25.3,19.6c-14,0-25.3-8.8-25.3-19.6c0-10.9,11.4-19.7,25.3-19.7
				C1142.7,951.5,1154,960.3,1154,971.1z"/>
			<path class="st9" d="M1151.9,961.9c-2.2,0-3.9,2.2-3.9,4.9v8.6c0,2.7,1.8,4.9,3.9,4.9h12.9c7,0,12.7-4.1,12.7-9.2
				c0-5.1-5.7-9.2-12.7-9.2H1151.9z"/>
			<path class="st9" d="M1106.3,961.9c1.3,0,2.3,2.2,2.3,4.9v8.6c0,2.7-1,4.9-2.3,4.9h-2.3c-7,0-12.7-4.1-12.7-9.2
				c0-5.1,5.7-9.2,12.7-9.2C1103.9,961.9,1105,961.9,1106.3,961.9z"/>
			<path class="st13" d="M1167.7,971.1c0,2-1.3,3.6-2.9,3.6c-1.6,0-2.9-1.6-2.9-3.6c0-2,1.3-3.6,2.9-3.6
				C1166.4,967.6,1167.7,969.2,1167.7,971.1z"/>
			<g>
				<path class="st9" d="M1159.7,975.5c0,1.4-1.2,2.4-2.6,2.4l-57-1.5c-0.8,0-1.5-0.9-1.5-1.9v-6.7c0-1,0.7-1.9,1.5-1.9l57-1.5
					c1.4,0,2.6,1,2.6,2.4V975.5z"/>
				<path class="st13" d="M1157.1,964.3l-57,1.5c-0.8,0-1.5,0.9-1.5,1.9v3.4h61.1v-4.4C1159.7,965.4,1158.5,964.3,1157.1,964.3z"/>
			</g>
		</g>
		<path class="st16" d="M301.6,1085.2c0,0-24.8,7.5-24.8,34.9v73.1c0,15.7,12.7,28.4,28.4,28.4h372.6v-136.4H301.6z"/>
		<path class="st16" d="M301.6,1051.2v36.8h376.2c0,0,0-18.1,0-36.8c0-80.1,120.2-116.5,120.2-116.5H421.8
			C421.8,934.8,301.6,971.1,301.6,1051.2z"/>
		<path class="st24" d="M581.7,1056.8c0-8.3-7.1-15-15.7-15h-208c-8.6,0-15.7,6.8-15.7,15c0,8.3,7.1,15,15.7,15h208
			C574.6,1071.8,581.7,1065,581.7,1056.8z"/>
		<path class="st24" d="M653.4,1100.2c0-8.3-7.1-15-15.7-15H301.6c-8.6,0-15.7,6.8-15.7,15c0,8.3,7.1,15,15.7,15h336.1
			C646.3,1115.3,653.4,1108.5,653.4,1100.2z"/>
		<path class="st9" d="M619.9,1177.2c0-10-8.2-18.1-18.1-18.1H579c-10,0-18.1,8.2-18.1,18.1v8.6c0,10,8.2,18.1,18.1,18.1h22.8
			c10,0,18.1-8.2,18.1-18.1V1177.2z"/>
		<g>
			<g>
				<path class="st9" d="M530.8,1177.2c0-10-8.2-18.1-18.1-18.1H370.8c-10,0-18.1,8.2-18.1,18.1v8.6c0,10,8.2,18.1,18.1,18.1h141.9
					c10,0,18.1-8.2,18.1-18.1V1177.2z"/>
				<path class="st8" d="M530.8,1180.5c0-8.8-7.2-15.9-15.9-15.9H390.3c-8.7,0-15.9,7.2-15.9,15.9v7.5c0,8.7,7.2,15.9,15.9,15.9
					h124.6c8.7,0,15.9-7.2,15.9-15.9V1180.5z"/>
			</g>
			<path class="st9" d="M619.9,1177.2c0-10-8.2-18.1-18.1-18.1H579c-10,0-18.1,8.2-18.1,18.1v8.6c0,10,8.2,18.1,18.1,18.1h22.8
				c10,0,18.1-8.2,18.1-18.1V1177.2z"/>
			<path class="st9" d="M334.8,1177.2c0-10-8.2-18.1-18.1-18.1h-5.8c-10,0-18.1,8.2-18.1,18.1v8.6c0,10,8.2,18.1,18.1,18.1h5.8
				c10,0,18.1-8.2,18.1-18.1V1177.2z"/>
		</g>
		<g>
			<rect x="893.1" y="1187.6" class="st16" width="308.6" height="22.7"/>
			<path class="st16" d="M782.7,1028.6c-87.4,0-132.2,74.7-132.2,166.6v26.5h44.4v-26.5c0-68.5,44.4-124,99.1-124
				c54.7,0,99.1,55.5,99.1,124v26.5h13.3v-26.5C906.3,1103.3,850.9,1028.6,782.7,1028.6z"/>
			<path class="st16" d="M1240.1,1194.5c0-70.3,40.4-127.3,90.2-127.3c45.4,0,77.6,49.1,83.7,110.9l10.3-3
				c-2-110.1-7.5-138.4-27.8-155c-16.5-13.5-37.2-22.7-76.6-22.7c-81.4,0-131.9,93.2-131.9,197.8v26.5h52.1V1194.5z"/>
			<path class="st13" d="M791.2,1061.3c-66.4,0-107.3,62.1-107.3,138.4v22h11v-26.5c0-68.5,44.4-124,99.1-124
				c54.7,0,99.1,55.5,99.1,124v26.5h5.4v-22C898.5,1123.3,857.5,1061.3,791.2,1061.3z"/>
			<path class="st13" d="M1240.1,1194.5c0-70.3,40.4-127.3,90.2-127.3c45.5,0,77.7,49.2,83.8,111.1l4.8-1.6
				c-5.2-72.6-36.2-125.8-89.3-125.8c-55.9,0-106.1,48.3-106.1,149.9v21h16.7V1194.5z"/>
			<rect x="893.1" y="1198.9" class="st13" width="345.6" height="22.7"/>
		</g>
		<g>
			<path class="st9" d="M631.2,750.4H887c15.7,0,20.9,10.2,11.6,22.9L779.8,934.8H431.4l68.3-92.9
				C536.8,791.4,568.5,750.4,631.2,750.4z"/>
			<path class="st25" d="M459.5,920.6l51.7-70.3c39.2-53.3,66.9-85.7,120.1-85.7c0,0,256,0,256.1,0c-0.1,0.1-114.7,156-114.7,156
				H459.5z"/>
			<path class="st26" d="M773.1,919.9c3-4,19.8-26.9,39.7-54l-44-101.3c-67.1,0-137.6,0-137.6,0c-13.5,0-25.4,2.1-36.3,6.1l65,149.8
				h112.7c0,0,0-0.1,0.1-0.1C772.8,920.3,772.9,920.2,773.1,919.9z"/>
			<path class="st26" d="M511.1,850.3l-18.7,25.5l19.6,44.8h95.7l-53.3-122.8C540.2,811.6,526.6,829.3,511.1,850.3z"/>
		</g>
		<path class="st9" d="M1382.6,934.8c-2.3-9.4-5.4-18.6-8.8-25.3L1263.1,746c-7.1-14-25.5-25.4-41.2-25.4h-22.2l112.1,214.1H1382.6z
			"/>
		<g>
			<path class="st27" d="M1396.1,974.8c0.9,18.6-3.5,26.3-9.4,26.3c-5.9,0-38.8-22.2-39.7-40.8c-0.9-18.6,30.9-19.2,36.8-19.2
				C1389.7,941.2,1395.2,956.2,1396.1,974.8z"/>
			<path class="st28" d="M1383.8,941.2c-5.9,0-37.7,0.6-36.8,19.2h47.3C1392.1,949,1388.1,941.2,1383.8,941.2z"/>
		</g>
		<g>
			<path class="st9" d="M1001.5,750.4c-15.7,0-35.1,10.8-43.5,24.1L857.6,934.8h349.9c0,0-9-28.2-34.9-99.9
				c-24.5-67.8-30.4-84.5-55.8-84.5C1099.4,750.4,1038.2,750.4,1001.5,750.4z"/>
			<path class="st25" d="M883.3,920.6L970,782c5.7-9.1,20.7-17.4,31.4-17.4h115.4c14,0,17.6,6.2,42,73.8l0.5,1.3
				c14.1,39,23.2,65.2,28.5,80.9H883.3z"/>
			<polygon class="st26" points="912.1,874.6 931.9,920.6 990.6,920.6 946.8,819.1 			"/>
			<path class="st26" d="M1088.7,764.6h-87.2c-4.9,0-10.6,1.7-15.9,4.4l65.4,151.5h105L1088.7,764.6z"/>
			<polygon class="st13" points="929.5,920.6 929.5,846.8 883.3,920.6 			"/>
			<g>
				<path class="st16" d="M987.4,869.9h-34.8c-12.4,0-20.5,15-22.6,21.8h-15.3v21.8h72.7c10,0,18.1-8.1,18.1-18.1v-7.5
					C1005.5,877.9,997.4,869.9,987.4,869.9z"/>
				<path class="st17" d="M1005.2,898.7c-14.6,5.2-49.4,5.7-68.9,5.7c-1,0-20.7,0-21.5,0v9.1h72.7
					C996.3,913.5,1003.6,907.1,1005.2,898.7z"/>
			</g>
		</g>
		<g>
			<g>
				<path class="st29" d="M720.8,985.6h-62.3c-15.7,0-28.4,11.7-28.4,26.2c0,14.5,8.3,26.2,18.5,26.2h46.9
					c60-2.8,69.3-52.4,69.3-52.4H720.8z"/>
				<path class="st30" d="M630,1011.8c0,7.1,2,13.4,5.2,18.2c2.3,1.5,4.9,2.4,7.7,2.4h46.9c47.4-2.2,63.2-33.6,67.7-46.7h-36.7
					h-62.3C642.8,985.6,630,997.4,630,1011.8z"/>
				<circle class="st31" cx="704.2" cy="1009" r="13"/>
				<circle class="st31" cx="664.5" cy="1011.8" r="18.9"/>
			</g>
			<g>
				<path class="st29" d="M302.8,1038h22.9c10.2,0,18.5-11.7,18.5-26.2c0-9.9-6-18.5-14.8-23C316.2,1002.5,306,1018.9,302.8,1038z"
					/>
				<path class="st30" d="M303.9,1032.3h27.4c2.7,0,5.3-0.9,7.7-2.4c3.2-4.7,5.2-11.1,5.2-18.2c0-9.9-6-18.5-14.8-23
					C317.5,1001.1,308.1,1015.6,303.9,1032.3z"/>
				<path class="st31" d="M309.7,1030.8c10.5,0,18.9-8.5,18.9-18.9c0-5.8-2.6-11-6.8-14.5c-7.8,9.7-14,20.6-17.4,32.7
					C306.2,1030.5,307.9,1030.8,309.7,1030.8z"/>
			</g>
		</g>
		<g>
			<g>
				<path class="st21" d="M1288,993.4c-10.7,0-19.4-11.6-19.4-26c0-14.3,8.7-26,19.4-26c10.7,0,19.4,11.6,19.4,26
					C1307.3,981.8,1298.6,993.4,1288,993.4z M1288,951.2c-6.7,0-12.1,7.3-12.1,16.2c0,8.9,5.4,16.2,12.1,16.2
					c6.7,0,12.1-7.3,12.1-16.2C1300.1,958.5,1294.6,951.2,1288,951.2z"/>
				<ellipse class="st9" cx="1288" cy="967.5" rx="12.1" ry="16.2"/>
			</g>
		</g>
	</g>
	<g class="st1">
		<defs>
			<path id="SVGID_3_" d="M1469.6,769.4c0,397.4-322.2,719.6-719.6,719.6c-397.4,0-719.6-322.2-719.6-719.6
				c0-313.3,174.1-614.4,453.6-713.1c75-26.5,79.5-141.7,163.6-141.7c37.6,0,270.7,54.2,295.5,102.6
				C1102.6,327.7,1469.6,409.6,1469.6,769.4z"/>
		</defs>
		<clipPath id="SVGID_4_">
			<use xlink:href="#SVGID_3_"  style="overflow:visible;"/>
		</clipPath>
		<g class="st32">
			<g>
				<polygon class="st33" points="373,617.9 399.2,682.4 272,815.4 194.7,768.9 250.9,671.9 				"/>
				<path class="st34" d="M-87.5,765.8L-87.5,765.8c20.4-9.1,42.4-16.3,71.5-47.1c29.1-30.8,164.7-197,179-214.6l41.9-23.5
					c18.5-0.3,176.6-32.5,193.9-36.1l35.7,80.6L169.6,642.2c0,0,87.8,188.9,99.7,215.7c-12.8,34.8-126.6,101.2-204.1,117.2
					l-139.7,61.8L-177,805.4L-87.5,765.8z"/>
				
					<ellipse transform="matrix(0.9145 -0.4047 0.4047 0.9145 -196.9671 128.338)" class="st34" cx="205.1" cy="530.1" rx="49.6" ry="49.6"/>
				<path class="st35" d="M229.4,831.8l9.9,22.3c0,0-28.6,15.7-49.3,19.3L229.4,831.8z"/>
				<path class="st35" d="M274.2,674.8c5.7-5.2,155.8-159.7,155.8-159.7s-6.3-14.1-8-18.1c-37,14.4-140,45.8-159.4,51.3
					c-17.4,4.9-80.9,11.8-80.9,11.8l-59.2,112.9L190,873.5c0,0,33-22.7,61.8-71.9C226.8,782,274.9,684.4,274.2,674.8z"/>
				<path class="st34" d="M389.7,790.3c1.8,17.9,0,43.9-28.8,54c-28.8,10.1-82.7,11.4-92.6,11.6L389.7,790.3z"/>
				<path class="st35" d="M389.7,807.9c-16.6,8.7-62.1,32.3-89.7,46.4c-15.1,1.1-27.5,1.4-31.7,1.5l121.4-65.5
					C390.2,795.6,390.5,801.7,389.7,807.9z"/>
				<path class="st35" d="M235.5,784.4c15.9,34.4,29.6,64.1,33.8,73.6c-1.1,3.6-3.7,7.9-7.7,12.6c-4.3,0.4-8.9-0.1-13.6-2.1
					c-9.9-4.2-17.3-14-23.4-30.9C220.1,825.4,218.7,806.6,235.5,784.4z"/>
				<path class="st34" d="M290.9,752.6c-31.2,17.2-68.5,48.6-56.6,81.4c11,30.5,24.4,29.7,41.7,20.9c17.3-8.8,105.6-54.4,114.1-59.1
					c20.2-11.2,39.4-32,17.2-94.8C407.4,701,344.8,722.9,290.9,752.6z"/>
				<path class="st35" d="M407.4,701c10.7,30.4,11.8,50.9,7.7,65.3c-5.6,3.5-12.3,6.9-20.2,10.4c-8.8,3.9-18.5,7.6-28.7,11.6
					c-11.6,4.5-23.5,9.1-35.9,14.5c-15.1,6.7-31.1-0.6-40.9-18.5c-4.3-7.8-7-16.9-8-26.2c3.2-2,6.3-3.8,9.5-5.6
					C344.8,722.9,407.4,701,407.4,701z"/>
				<path class="st34" d="M447.4,589.9c15,33.1,20.6,46.6,27.3,61.6c6.6,15-32.9,75.2-51,94.7c-18.1,19.5-56,28.6-97.5,47
					c-28.4,12.6-50.7-54.7-18.9-75.6c7.1-4.7,62.1-43.5,65.7-47.4c0,0-16.2-20.7-19.3-38.8L447.4,589.9z"/>
				<path class="st36" d="M264.5,849.7c3.1,2.5,38.7-16.5,41-27.9c1.1-5.1-2.7-18-8.1-21.6c-7.4-4.9-42.7,0.7-47.7,8.7
					C248.4,811.6,250.9,838.8,264.5,849.7z"/>
				<path class="st36" d="M331.2,785.3c3.6,2,39.9-17.1,42.4-28.8c1.1-5.3-2.8-18.6-8.4-22.3c-7.7-5.1-44.1,0.7-49.2,9
					C314.6,745.9,313.6,775.6,331.2,785.3z"/>
				<path class="st35" d="M440.4,725.1c-2.5,3.5-4.9,6.8-7.3,9.8c-0.1-0.4-0.3-0.8-0.4-1.2c-5.4-15.4-14.3-28.4-25.3-38.5
					C422.2,701.4,434,711.6,440.4,725.1z"/>
				<path class="st35" d="M423.4,744.5c0.2,0.5,0.3,1,0.5,1.5c-0.1,0.1-0.2,0.2-0.2,0.3c-2.4,2.6-5.2,5-8.3,7.3
					c-0.5-1.9-1.1-3.7-1.8-5.6c-5.4-15.4-14.3-28.4-25.3-38.5C404.9,716.3,417.7,728.4,423.4,744.5z"/>
				<path class="st35" d="M369.9,666.2c19.2-9.5,30.9-8.4,30.9-8.4c-9.6,2.4-16.6,5.5-27.9,12.4
					C372.9,670.2,371.6,668.7,369.9,666.2z"/>
				<path class="st35" d="M456.7,610.6c-12.4,8-26.6,15.5-43,22.8c-17.5,7.7-34.8,14.1-51.7,20.1c-3.7-6.7-7.2-14.6-8.5-22.1
					l93.8-41.5C451,597.9,454.1,604.7,456.7,610.6z"/>
				<g>
					<g>
						
							<rect x="315" y="341.5" transform="matrix(0.8677 -0.497 0.497 0.8677 -151.9772 369.2415)" class="st37" width="605.6" height="257.3"/>
						<path class="st11" d="M309.1,512.7L424.9,715l501.6-287.3L810.7,225.4L309.1,512.7z M332.1,530L814,254l89.6,156.4l-481.8,276
							L332.1,530z"/>
						<g>
							<path class="st38" d="M775.2,380c-8.6-15-3.4-34.1,11.6-42.7c15-8.6,34.1-3.4,42.7,11.6c8.6,15,3.4,34.2-11.6,42.7
								C803,400.2,783.8,395,775.2,380z M781.4,376.5c6.6,11.6,21.5,15.6,33.1,9c11.6-6.6,15.6-21.5,9-33
								c-6.6-11.6-21.5-15.6-33.1-9C778.8,350.1,774.8,364.9,781.4,376.5z"/>
							<path class="st38" d="M463.5,558.5c-8.6-15-3.4-34.1,11.6-42.7c15-8.6,34.1-3.4,42.7,11.6c8.6,15,3.4,34.2-11.6,42.7
								C491.3,578.7,472.1,573.5,463.5,558.5z M469.7,555c6.6,11.6,21.5,15.6,33.1,9c11.6-6.6,15.6-21.5,9-33
								c-6.6-11.6-21.5-15.6-33.1-9C467.1,528.6,463.1,543.4,469.7,555z"/>
						</g>
						<path class="st39" d="M572.7,496c32,55.9,96.3,79.2,143.7,52c47.3-27.1,59.8-94.4,27.8-150.2c-32-55.8-96.3-79.2-143.7-52
							C553.1,372.9,540.7,440.1,572.7,496z"/>
						<g>
							<path class="st40" d="M435.8,465.3c0.6-0.4,1.6-1,2.8-1.9c1.3-0.9,2.2-1.5,2.7-2c0.5-0.5,0.9-1,1.1-1.5
								c0.2-0.5,0.2-0.9-0.1-1.3l-5.5-9.6c-0.4-0.8-1-1.6-1.6-2.5c-0.6-0.9-1.2-1.7-1.6-2.4l5.8-3.3c0.5,0.1,1.1,0.1,1.9,0.1
								c0.8,0,1.7-0.1,2.9-0.4c1.1-0.2,2.4-0.6,3.9-1.2c1.5-0.6,3.2-1.4,5.1-2.5l1.8-1l0.9,1.6l-8.3,4.8l6,10.4
								c0.3,0.5,0.7,0.7,1.2,0.8c0.5,0,1.1-0.1,1.9-0.3c0.6-0.2,1.6-0.7,3.1-1.4c1.5-0.7,2.6-1.3,3.2-1.6l0.7,1.2l-27.1,15.5
								L435.8,465.3z"/>
							<path class="st40" d="M392.1,468.9c2.3-2,5.1-4,8.5-6c3.3-1.9,6.4-3.3,9.3-4.3c2.9-0.9,5.4-1.5,7.5-1.6
								c2.2-0.1,4.1,0.2,5.5,0.8c1.5,0.6,2.5,1.6,3.3,2.9c0.7,1.3,1,2.8,0.8,4.4c-0.2,1.6-0.9,3.3-2.1,5.1c-1.2,1.8-2.9,3.7-5.2,5.7
								c-2.2,2-5,3.9-8.3,5.8c-3.1,1.8-6,3.2-8.7,4.1c-2.7,0.9-5.1,1.5-7.4,1.7c-2.2,0.2-4.1,0-5.8-0.6c-1.7-0.6-2.9-1.6-3.7-3
								c-0.7-1.2-1-2.6-0.8-4.2c0.2-1.6,0.8-3.3,2-5.1C388.1,472.8,389.8,470.9,392.1,468.9z M406.6,481.7c1.3-0.2,2.6-0.7,4-1.5
								c1.5-0.9,2.7-1.8,3.4-2.8c0.8-1,1.2-2.1,1.4-3.1c0.2-1.1,0.1-2.2-0.1-3.2c-0.3-1-0.7-2.1-1.4-3.3c-0.7-1.2-1.4-2.2-2.2-3
								c-0.8-0.8-1.7-1.4-2.7-1.7c-1.1-0.4-2.2-0.5-3.4-0.3c-1.2,0.2-2.6,0.7-4.1,1.5c-1.5,0.8-2.6,1.8-3.4,2.7
								c-0.8,1-1.3,2-1.4,3.1c-0.2,1.1-0.1,2.1,0.2,3.2c0.3,1.1,0.8,2.2,1.4,3.4c0.7,1.3,1.5,2.3,2.3,3.1c0.8,0.7,1.7,1.3,2.8,1.7
								C404.2,481.9,405.3,481.9,406.6,481.7z"/>
							<path class="st40" d="M344.8,495.9c2.3-2,5.1-4,8.5-6c3.3-1.9,6.4-3.3,9.3-4.3c2.9-0.9,5.4-1.5,7.5-1.6
								c2.2-0.1,4.1,0.2,5.5,0.8c1.4,0.6,2.5,1.6,3.3,2.9c0.7,1.3,1,2.8,0.8,4.4c-0.2,1.6-0.9,3.3-2.1,5.1c-1.2,1.8-2.9,3.7-5.2,5.7
								c-2.2,2-5,3.9-8.3,5.8c-3.1,1.8-6,3.2-8.7,4.1c-2.7,0.9-5.1,1.5-7.4,1.7c-2.2,0.2-4.1,0-5.8-0.6c-1.7-0.6-2.9-1.6-3.7-3
								c-0.7-1.2-1-2.6-0.8-4.2c0.2-1.6,0.8-3.3,2-5.1C340.9,499.8,342.6,497.9,344.8,495.9z M359.4,508.8c1.3-0.2,2.6-0.7,4-1.5
								c1.5-0.9,2.7-1.8,3.4-2.8c0.8-1,1.2-2.1,1.4-3.1c0.2-1.1,0.1-2.2-0.1-3.2c-0.3-1-0.7-2.1-1.4-3.3c-0.7-1.2-1.4-2.2-2.2-3
								c-0.8-0.8-1.7-1.4-2.7-1.7c-1.1-0.4-2.2-0.5-3.4-0.3c-1.2,0.2-2.6,0.7-4.1,1.5c-1.5,0.8-2.6,1.8-3.4,2.7
								c-0.8,1-1.3,2-1.4,3.1c-0.2,1.1-0.1,2.1,0.2,3.2c0.3,1.1,0.8,2.2,1.4,3.4c0.7,1.3,1.5,2.3,2.3,3.1c0.8,0.7,1.7,1.3,2.8,1.7
								C357,508.9,358.1,509,359.4,508.8z"/>
						</g>
						<g>
							<path class="st40" d="M778.1,269.2c0.6-0.4,1.6-1,2.8-1.9c1.3-0.9,2.2-1.5,2.7-2c0.5-0.5,0.9-1,1.1-1.5
								c0.2-0.5,0.1-0.9-0.1-1.3l-5.5-9.6c-0.4-0.8-1-1.6-1.6-2.5c-0.6-0.9-1.2-1.7-1.6-2.4l5.8-3.3c0.5,0.1,1.1,0.1,1.9,0.1
								c0.8,0,1.7-0.1,2.9-0.4c1.1-0.2,2.4-0.6,3.9-1.2c1.5-0.6,3.2-1.4,5.1-2.5l1.8-1l0.9,1.6l-8.3,4.8l6,10.4
								c0.3,0.5,0.7,0.7,1.2,0.8c0.5,0,1.1-0.1,1.9-0.3c0.6-0.2,1.6-0.7,3.1-1.4c1.5-0.7,2.6-1.3,3.2-1.6l0.7,1.2l-27.1,15.5
								L778.1,269.2z"/>
							<path class="st40" d="M734.3,272.8c2.3-2,5.1-4,8.5-6c3.3-1.9,6.4-3.3,9.3-4.3c2.9-0.9,5.4-1.5,7.5-1.6
								c2.2-0.1,4.1,0.2,5.5,0.8c1.4,0.6,2.5,1.6,3.3,2.9c0.7,1.3,1,2.8,0.8,4.4c-0.2,1.6-0.9,3.3-2.1,5.1c-1.2,1.8-2.9,3.7-5.2,5.7
								c-2.2,2-5,3.9-8.3,5.8c-3.1,1.8-6,3.2-8.7,4.1c-2.7,0.9-5.1,1.5-7.4,1.7c-2.2,0.2-4.1,0-5.8-0.6c-1.7-0.6-2.9-1.6-3.7-3
								c-0.7-1.2-1-2.6-0.8-4.2c0.2-1.6,0.8-3.3,2-5.1C730.4,276.7,732.1,274.8,734.3,272.8z M748.8,285.7c1.3-0.2,2.6-0.7,4-1.5
								c1.5-0.9,2.7-1.8,3.4-2.8c0.8-1,1.2-2.1,1.4-3.1c0.2-1.1,0.1-2.2-0.1-3.2c-0.3-1-0.7-2.1-1.4-3.3c-0.7-1.2-1.4-2.2-2.2-3
								c-0.8-0.8-1.7-1.4-2.7-1.7c-1.1-0.4-2.2-0.5-3.4-0.3c-1.2,0.2-2.6,0.7-4.1,1.5c-1.5,0.8-2.6,1.8-3.4,2.7
								c-0.8,1-1.3,2-1.4,3.1c-0.2,1.1-0.1,2.1,0.2,3.2c0.3,1.1,0.8,2.2,1.4,3.4c0.7,1.3,1.5,2.3,2.3,3.1c0.8,0.7,1.7,1.3,2.8,1.7
								C746.5,285.8,747.6,285.9,748.8,285.7z"/>
							<path class="st40" d="M687.1,299.9c2.3-2,5.1-4,8.5-6c3.3-1.9,6.4-3.3,9.3-4.3c2.9-0.9,5.4-1.5,7.5-1.6
								c2.2-0.1,4.1,0.2,5.5,0.8c1.5,0.6,2.5,1.6,3.3,2.9c0.7,1.3,1,2.7,0.8,4.4c-0.2,1.6-0.9,3.3-2.1,5.1c-1.2,1.8-2.9,3.7-5.2,5.7
								c-2.2,2-5,3.9-8.3,5.8c-3.1,1.8-6,3.2-8.7,4.1c-2.7,0.9-5.1,1.5-7.4,1.7c-2.2,0.2-4.1,0-5.8-0.6c-1.7-0.6-2.9-1.6-3.7-3
								c-0.7-1.2-1-2.6-0.8-4.2c0.2-1.6,0.8-3.3,2-5.1C683.1,303.8,684.8,301.9,687.1,299.9z M701.6,312.7c1.3-0.2,2.6-0.7,4-1.5
								c1.5-0.9,2.7-1.8,3.4-2.8c0.8-1,1.2-2.1,1.4-3.1c0.2-1.1,0.1-2.2-0.1-3.2c-0.3-1-0.7-2.1-1.4-3.3c-0.7-1.2-1.4-2.2-2.2-3
								c-0.8-0.8-1.7-1.4-2.7-1.7c-1.1-0.4-2.2-0.5-3.4-0.3c-1.2,0.2-2.6,0.7-4.1,1.5c-1.5,0.8-2.6,1.8-3.4,2.7
								c-0.8,1-1.3,2-1.4,3.1c-0.2,1.1-0.1,2.1,0.2,3.2c0.3,1.1,0.8,2.2,1.4,3.4c0.7,1.3,1.5,2.3,2.3,3.1c0.8,0.7,1.7,1.3,2.8,1.7
								C699.3,312.9,700.4,312.9,701.6,312.7z"/>
						</g>
						<g>
							<path class="st40" d="M882.1,437c0.5-0.3,1.2-0.8,2.2-1.6c1-0.7,1.6-1.3,2-1.7c0.4-0.5,0.6-1,0.7-1.5c0.1-0.5-0.1-1-0.4-1.5
								l-7.1-12.3c-0.6-1-1.2-2-2-3.2c-0.7-1.2-1.4-2.2-2-3.1l4.5-2.6c0.5,0.2,1,0.3,1.8,0.5c0.7,0.2,1.5,0.2,2.5,0.2
								c0.9,0,2-0.2,3.3-0.6c1.2-0.4,2.6-1,4.1-1.8l1.4-0.8l1.1,2l-6.5,3.7l7.6,13.3c0.3,0.6,0.7,1,1.2,1.1c0.5,0.2,1,0.2,1.6,0
								c0.5-0.1,1.3-0.4,2.5-1c1.2-0.5,2-0.9,2.6-1.2l0.9,1.6l-21.2,12.1L882.1,437z"/>
							<path class="st40" d="M843.4,431.8c1.6-1.8,3.8-3.5,6.4-5.1c2.6-1.5,5.1-2.5,7.5-3c2.4-0.5,4.5-0.5,6.5-0.2
								c2,0.4,3.7,1.1,5.1,2.1c1.4,1,2.6,2.4,3.6,4c0.9,1.7,1.5,3.4,1.6,5.2c0.2,1.8-0.1,3.6-0.8,5.5c-0.7,1.8-1.8,3.6-3.4,5.4
								c-1.6,1.8-3.7,3.4-6.3,4.9c-2.4,1.4-4.8,2.4-7,2.9c-2.2,0.5-4.3,0.6-6.3,0.4c-1.9-0.2-3.7-0.9-5.3-1.9c-1.6-1-3-2.5-4-4.3
								c-0.9-1.5-1.4-3.2-1.6-5c-0.2-1.8,0-3.6,0.7-5.5C840.7,435.4,841.8,433.6,843.4,431.8z M859.3,449.8c1.1,0,2.2-0.2,3.3-0.9
								c1.2-0.7,2-1.5,2.5-2.5c0.5-1,0.7-2.1,0.6-3.3c-0.1-1.3-0.4-2.5-0.8-3.7c-0.4-1.2-1.1-2.6-2-4.1c-0.9-1.5-1.7-2.8-2.6-3.9
								c-0.9-1.1-1.8-2-2.8-2.6c-1-0.7-2.1-1-3.2-1.1c-1.1-0.1-2.2,0.2-3.4,0.9c-1.1,0.7-2,1.5-2.5,2.4c-0.5,1-0.7,2.1-0.6,3.3
								c0.1,1.2,0.3,2.4,0.8,3.7c0.5,1.3,1.2,2.7,2,4.2c0.9,1.7,1.9,3,2.7,4c0.9,1,1.8,1.9,2.9,2.5
								C857.2,449.4,858.2,449.7,859.3,449.8z"/>
							<path class="st40" d="M806.6,452.9c1.6-1.8,3.8-3.5,6.4-5.1c2.6-1.5,5.1-2.5,7.5-3c2.4-0.5,4.5-0.5,6.5-0.2
								c2,0.4,3.7,1.1,5.1,2.1c1.4,1,2.6,2.4,3.6,4c0.9,1.7,1.5,3.4,1.6,5.2c0.2,1.8-0.1,3.6-0.8,5.5c-0.7,1.8-1.8,3.6-3.4,5.4
								c-1.6,1.8-3.7,3.4-6.3,4.9c-2.4,1.4-4.8,2.4-7,2.9c-2.2,0.5-4.3,0.6-6.3,0.4c-1.9-0.2-3.7-0.9-5.3-1.9c-1.6-1-3-2.5-4-4.3
								c-0.9-1.5-1.4-3.2-1.6-5c-0.2-1.8,0-3.6,0.7-5.5C803.8,456.5,805,454.7,806.6,452.9z M822.5,470.9c1.1,0,2.2-0.2,3.3-0.9
								c1.2-0.7,2-1.5,2.5-2.5c0.5-1,0.7-2.1,0.6-3.3c-0.1-1.3-0.4-2.5-0.8-3.7c-0.4-1.2-1.1-2.6-2-4.1c-0.9-1.5-1.7-2.8-2.6-3.9
								c-0.9-1.1-1.8-2-2.8-2.6c-1-0.7-2.1-1-3.2-1.1c-1.1-0.1-2.2,0.2-3.4,0.9c-1.1,0.7-2,1.5-2.5,2.4c-0.5,1-0.7,2.1-0.6,3.3
								c0.1,1.2,0.3,2.4,0.8,3.7c0.5,1.3,1.2,2.7,2,4.2c0.9,1.7,1.9,3,2.7,4c0.9,1,1.8,1.9,2.9,2.5
								C820.3,470.5,821.4,470.8,822.5,470.9z"/>
						</g>
						<g>
							<path class="st40" d="M495.5,631c0.4-0.3,1-0.7,1.9-1.3c0.8-0.6,1.4-1.1,1.7-1.5c0.3-0.4,0.5-0.8,0.6-1.3
								c0-0.4-0.1-0.9-0.3-1.3l-6-10.4c-0.5-0.8-1-1.7-1.7-2.7c-0.6-1-1.2-1.9-1.7-2.6l3.9-2.2c0.4,0.1,0.9,0.3,1.5,0.4
								c0.6,0.1,1.3,0.2,2.1,0.1c0.8,0,1.7-0.2,2.8-0.5c1.1-0.3,2.2-0.8,3.5-1.5l1.2-0.7l1,1.7l-5.6,3.2l6.5,11.3
								c0.3,0.5,0.6,0.8,1,1c0.4,0.1,0.9,0.1,1.4,0c0.4-0.1,1.1-0.4,2.1-0.8c1-0.5,1.7-0.8,2.2-1l0.8,1.4l-18.1,10.4L495.5,631z"/>
							<path class="st40" d="M462.5,626.7c1.4-1.6,3.2-3,5.5-4.3c2.2-1.3,4.4-2.1,6.4-2.5c2-0.4,3.9-0.5,5.5-0.2
								c1.7,0.3,3.1,0.9,4.4,1.8c1.2,0.9,2.2,2,3,3.4c0.8,1.4,1.3,2.9,1.4,4.4c0.1,1.6-0.1,3.1-0.7,4.6c-0.6,1.6-1.6,3.1-3,4.6
								c-1.4,1.5-3.2,2.9-5.4,4.2c-2.1,1.2-4.1,2-6,2.5c-1.9,0.4-3.7,0.6-5.4,0.4c-1.6-0.2-3.2-0.7-4.6-1.6
								c-1.4-0.9-2.5-2.1-3.4-3.6c-0.7-1.3-1.2-2.7-1.4-4.2c-0.2-1.5,0-3.1,0.6-4.7C460.2,629.8,461.1,628.2,462.5,626.7z
								 M476,641.9c0.9,0,1.9-0.2,2.8-0.8c1-0.6,1.7-1.3,2.1-2.2c0.4-0.9,0.6-1.8,0.5-2.8c-0.1-1.1-0.3-2.1-0.7-3.2
								c-0.4-1-0.9-2.2-1.7-3.5c-0.7-1.3-1.5-2.4-2.2-3.3c-0.8-0.9-1.6-1.7-2.4-2.2c-0.9-0.6-1.8-0.9-2.7-0.9
								c-0.9,0-1.9,0.2-2.9,0.8c-1,0.6-1.7,1.3-2.1,2.1c-0.4,0.8-0.6,1.8-0.6,2.8c0.1,1,0.3,2.1,0.7,3.2c0.4,1.1,1,2.3,1.7,3.5
								c0.8,1.4,1.6,2.5,2.3,3.4c0.7,0.9,1.6,1.6,2.4,2.1C474.2,641.6,475.1,641.9,476,641.9z"/>
							<path class="st40" d="M431,644.7c1.4-1.6,3.2-3,5.5-4.3c2.2-1.3,4.3-2.1,6.4-2.5c2-0.4,3.9-0.5,5.5-0.2
								c1.7,0.3,3.1,0.9,4.4,1.8c1.2,0.9,2.2,2,3,3.4c0.8,1.4,1.3,2.9,1.4,4.4c0.1,1.6-0.1,3.1-0.7,4.6c-0.6,1.6-1.6,3.1-3,4.6
								c-1.4,1.5-3.2,2.9-5.4,4.2c-2.1,1.2-4.1,2-6,2.5c-1.9,0.4-3.7,0.6-5.4,0.4c-1.7-0.2-3.2-0.7-4.6-1.6
								c-1.4-0.9-2.5-2.1-3.4-3.6c-0.7-1.3-1.2-2.7-1.4-4.2c-0.2-1.5,0-3.1,0.6-4.7C428.7,647.8,429.7,646.3,431,644.7z
								 M444.5,659.9c0.9,0,1.9-0.2,2.8-0.8c1-0.6,1.7-1.3,2.1-2.2c0.4-0.9,0.6-1.8,0.5-2.8c-0.1-1.1-0.3-2.1-0.7-3.2
								c-0.4-1-0.9-2.2-1.7-3.5c-0.7-1.3-1.5-2.4-2.2-3.3c-0.8-0.9-1.6-1.7-2.4-2.2c-0.9-0.6-1.8-0.9-2.7-0.9
								c-0.9,0-1.9,0.2-2.9,0.8c-1,0.6-1.7,1.3-2.1,2.1c-0.4,0.8-0.6,1.8-0.6,2.8c0.1,1,0.3,2.1,0.7,3.2c0.4,1.1,1,2.3,1.7,3.5
								c0.8,1.4,1.6,2.5,2.3,3.4c0.7,0.9,1.6,1.6,2.4,2.1C442.7,659.6,443.6,659.9,444.5,659.9z"/>
						</g>
						<path class="st38" d="M646.2,555.6l10.5-32.7l-4.6,7.2l-7.8,0.2l5,5.6l-10.6-4.2l3.9,4.2l-6.7-0.1l-7.8-7.2l3,6.7l-11.9-8.9
							l0.4-7.1l-3.6-4.8l-3.8,5.4l-1.4-8.1l-10.8-13.1l-4-16.1l0.6-19.3l-12.1-24l-4.4-26l8-27.5l15.8-18.7l29.8-12.7l19.1,0.4
							l9.7,0.1l8.7,7.5l6.8,1.3l10.8,6.3l9.8,12.9l15.7,6.3l10.1,7.1l2.3,7.5l7.5-0.2l7.4,5.3l2.1,11.3l12.6,6.8
							c14.4,48.4-0.9,98.7-40.2,121.3C694.9,560.3,670,562.3,646.2,555.6z"/>
					</g>
					<polygon class="st41" points="304.4,501.4 816.6,208 877.3,313.9 473.8,685.4 					"/>
					<g>
						
							<rect x="304.2" y="231.1" transform="matrix(0.7435 -0.6687 0.6687 0.7435 -84.9291 498.1635)" class="st37" width="605.6" height="257.3"/>
						<path class="st11" d="M314.1,466.4L470,639.7l429.8-386.6L743.9,79.8L314.1,466.4z M340.3,478.5l412.9-371.4l120.5,134
							L460.8,612.5L340.3,478.5z"/>
						<g>
							<path class="st38" d="M741.9,238.5c-11.5-12.8-10.5-32.7,2.4-44.2c12.8-11.5,32.7-10.5,44.2,2.3
								c11.6,12.8,10.5,32.7-2.3,44.2C773.3,252.4,753.4,251.3,741.9,238.5z M747.1,233.7c8.9,9.9,24.3,10.8,34.2,1.8
								c9.9-8.9,10.8-24.3,1.8-34.2c-8.9-9.9-24.3-10.7-34.2-1.8C739,208.4,738.2,223.8,747.1,233.7z"/>
							<path class="st38" d="M474.8,478.7c-11.5-12.9-10.5-32.7,2.4-44.2c12.8-11.6,32.7-10.5,44.2,2.3
								c11.6,12.8,10.5,32.7-2.3,44.2C506.2,492.6,486.3,491.5,474.8,478.7z M480,473.9c8.9,9.9,24.3,10.8,34.2,1.8
								c9.9-8.9,10.8-24.3,1.8-34.2c-8.9-9.9-24.3-10.7-34.2-1.8C471.9,448.7,471.1,464,480,473.9z"/>
						</g>
						<path class="st39" d="M568.3,394.5c43,47.9,110.8,57.1,151.4,20.6c40.6-36.5,38.6-104.8-4.5-152.7
							c-43.1-47.8-110.8-57.1-151.4-20.6C523.2,278.3,525.2,346.7,568.3,394.5z"/>
						<g>
							<path class="st40" d="M428,393.4c0.5-0.5,1.3-1.3,2.4-2.5c1.1-1.1,1.8-2,2.2-2.5c0.4-0.6,0.7-1.2,0.7-1.7
								c0.1-0.5,0-0.9-0.4-1.3l-7.4-8.2c-0.6-0.7-1.3-1.4-2.1-2.1c-0.8-0.8-1.5-1.4-2.1-2l5-4.5c0.5-0.1,1.1-0.2,1.9-0.4
								c0.8-0.2,1.7-0.5,2.7-1c1-0.5,2.2-1.1,3.6-2c1.4-0.9,2.8-2.1,4.5-3.5l1.6-1.4l1.2,1.3l-7.1,6.4l8,8.9
								c0.4,0.4,0.8,0.6,1.3,0.5c0.5-0.1,1.1-0.3,1.8-0.7c0.5-0.3,1.4-1,2.7-2c1.3-1,2.2-1.8,2.8-2.3l1,1.1L429,394.4L428,393.4z"/>
							<path class="st40" d="M386,406.1c1.8-2.4,4.2-5,7.1-7.6c2.9-2.6,5.6-4.6,8.2-6.1c2.6-1.5,4.9-2.6,7-3.1
								c2.1-0.6,4-0.7,5.5-0.4c1.6,0.3,2.8,1,3.8,2.1c1,1.1,1.6,2.5,1.7,4.1c0.1,1.6-0.2,3.4-1,5.4c-0.8,2-2.1,4.2-3.9,6.6
								c-1.8,2.4-4.1,4.9-6.9,7.4c-2.7,2.4-5.2,4.4-7.6,5.8c-2.4,1.5-4.7,2.6-6.9,3.3c-2.1,0.6-4,0.9-5.8,0.6
								c-1.7-0.2-3.2-0.9-4.3-2.2c-0.9-1-1.5-2.3-1.7-3.9c-0.2-1.6,0.1-3.4,0.9-5.4C383,410.7,384.2,408.5,386,406.1z M402.9,415.6
								c1.2-0.5,2.4-1.2,3.6-2.3c1.3-1.2,2.2-2.3,2.8-3.5c0.5-1.2,0.8-2.3,0.7-3.3c-0.1-1.2-0.4-2.2-0.8-3.1
								c-0.5-0.9-1.2-1.9-2.1-2.9c-0.9-1-1.8-1.8-2.8-2.4c-1-0.6-2-1-3-1.1c-1.1-0.1-2.3,0-3.4,0.4c-1.2,0.4-2.4,1.2-3.7,2.4
								c-1.3,1.1-2.2,2.3-2.7,3.4c-0.5,1.1-0.8,2.2-0.8,3.4c0,1.1,0.3,2.1,0.8,3.1c0.5,1,1.2,2,2.1,3c1,1.1,2,1.9,2.9,2.5
								c0.9,0.6,2,0.9,3.1,1.1C400.6,416.2,401.7,416.1,402.9,415.6z"/>
							<path class="st40" d="M345.5,442.5c1.8-2.4,4.2-5,7.1-7.6c2.9-2.6,5.6-4.6,8.2-6.1c2.6-1.5,4.9-2.6,7-3.1
								c2.2-0.6,4-0.7,5.6-0.4c1.5,0.3,2.8,1,3.8,2.1c1,1.1,1.6,2.5,1.7,4.1c0.1,1.6-0.2,3.5-1,5.4c-0.8,2-2.1,4.2-3.9,6.6
								c-1.8,2.4-4.1,4.9-6.9,7.4c-2.7,2.4-5.2,4.4-7.6,5.8c-2.4,1.5-4.7,2.6-6.9,3.3c-2.1,0.7-4,0.9-5.8,0.6
								c-1.7-0.2-3.2-0.9-4.3-2.2c-0.9-1-1.5-2.3-1.7-3.9c-0.2-1.6,0.1-3.4,0.9-5.4C342.5,447.1,343.8,444.9,345.5,442.5z
								 M362.5,452c1.2-0.5,2.4-1.2,3.6-2.3c1.3-1.2,2.2-2.3,2.8-3.5c0.5-1.2,0.8-2.3,0.7-3.3c-0.1-1.1-0.4-2.2-0.8-3.1
								c-0.5-0.9-1.2-1.9-2.1-2.9c-0.9-1-1.8-1.8-2.8-2.4c-1-0.6-2-1-3-1.1c-1.1-0.1-2.3,0-3.4,0.4c-1.2,0.4-2.4,1.2-3.7,2.4
								c-1.3,1.1-2.2,2.3-2.7,3.4c-0.6,1.1-0.8,2.2-0.8,3.4c0.1,1.1,0.3,2.1,0.8,3.1c0.5,1,1.2,2,2.1,3c1,1.1,2,1.9,2.9,2.5
								c0.9,0.6,1.9,0.9,3.1,1.1C360.2,452.6,361.3,452.4,362.5,452z"/>
						</g>
						<g>
							<path class="st40" d="M721.3,129.6c0.5-0.5,1.3-1.3,2.4-2.5c1.1-1.1,1.8-2,2.2-2.5c0.4-0.6,0.7-1.2,0.7-1.7
								c0.1-0.5-0.1-0.9-0.4-1.3l-7.4-8.3c-0.6-0.6-1.3-1.4-2.1-2.1c-0.8-0.8-1.5-1.4-2.1-2l5-4.5c0.5-0.1,1.1-0.2,1.9-0.4
								c0.8-0.2,1.7-0.5,2.7-1c1-0.5,2.2-1.1,3.6-2c1.4-0.9,2.8-2.1,4.5-3.5l1.6-1.4l1.2,1.3l-7.1,6.4l8,8.9
								c0.4,0.4,0.8,0.6,1.3,0.5c0.5-0.1,1.1-0.3,1.8-0.7c0.5-0.3,1.4-1,2.7-2c1.3-1,2.2-1.8,2.8-2.3l1,1.1l-23.2,20.9L721.3,129.6z
								"/>
							<path class="st40" d="M679.3,142.3c1.8-2.4,4.2-5,7.1-7.6c2.9-2.6,5.6-4.6,8.2-6.1c2.6-1.5,4.9-2.6,7-3.1
								c2.1-0.6,4-0.7,5.5-0.4c1.6,0.3,2.8,1,3.8,2.1c1,1.1,1.6,2.5,1.7,4.1c0.1,1.6-0.2,3.4-1,5.4c-0.8,2-2.1,4.2-3.9,6.6
								c-1.8,2.4-4.1,4.9-6.9,7.4c-2.7,2.4-5.2,4.4-7.6,5.8c-2.4,1.5-4.7,2.6-6.9,3.3c-2.1,0.7-4,0.9-5.8,0.6
								c-1.7-0.2-3.2-0.9-4.3-2.2c-0.9-1-1.5-2.3-1.7-3.9c-0.2-1.6,0.1-3.4,0.9-5.4C676.2,147,677.5,144.8,679.3,142.3z
								 M696.2,151.8c1.2-0.5,2.4-1.2,3.6-2.3c1.3-1.2,2.2-2.3,2.8-3.5c0.5-1.2,0.8-2.3,0.7-3.3c-0.1-1.2-0.4-2.2-0.8-3.1
								c-0.5-0.9-1.2-1.9-2.1-2.9c-0.9-1-1.8-1.8-2.8-2.4c-1-0.6-2-1-3-1.1c-1.1-0.1-2.3,0-3.4,0.4c-1.2,0.4-2.4,1.2-3.7,2.4
								c-1.3,1.1-2.2,2.3-2.7,3.4c-0.6,1.1-0.8,2.2-0.8,3.4c0,1.1,0.3,2.1,0.8,3.1c0.5,1,1.2,2,2.1,3c1,1.1,2,1.9,2.9,2.5
								c0.9,0.6,2,0.9,3.1,1.1C693.9,152.5,695,152.3,696.2,151.8z"/>
							<path class="st40" d="M638.8,178.7c1.8-2.4,4.1-5,7.1-7.6c2.9-2.6,5.6-4.6,8.2-6.1c2.6-1.5,4.9-2.6,7-3.1
								c2.2-0.6,4-0.7,5.5-0.4c1.5,0.3,2.8,1,3.8,2.1c1,1.1,1.6,2.5,1.7,4.1c0.1,1.6-0.2,3.4-1,5.4c-0.8,2-2.1,4.2-3.9,6.6
								c-1.8,2.4-4.1,4.9-6.9,7.4c-2.7,2.4-5.2,4.4-7.6,5.8c-2.4,1.5-4.7,2.6-6.9,3.3c-2.1,0.6-4,0.9-5.8,0.6
								c-1.7-0.2-3.2-0.9-4.3-2.2c-0.9-1-1.5-2.3-1.7-3.9c-0.2-1.6,0.1-3.4,0.9-5.4C635.8,183.4,637,181.1,638.8,178.7z
								 M655.7,188.2c1.2-0.5,2.4-1.2,3.6-2.3c1.3-1.2,2.2-2.3,2.8-3.5c0.5-1.2,0.8-2.3,0.7-3.3c-0.1-1.2-0.4-2.2-0.8-3.1
								c-0.5-0.9-1.2-1.9-2.1-2.9c-0.9-1-1.8-1.8-2.8-2.4c-1-0.6-2-1-3-1.1c-1.1-0.1-2.3,0-3.4,0.4c-1.2,0.4-2.4,1.2-3.7,2.4
								c-1.3,1.1-2.2,2.3-2.7,3.4c-0.5,1.1-0.8,2.2-0.8,3.4c0.1,1.1,0.3,2.1,0.8,3.1c0.5,1,1.2,2,2.1,3c1,1.1,2,1.9,2.9,2.5
								c0.9,0.6,2,0.9,3.1,1.1C653.4,188.8,654.5,188.7,655.7,188.2z"/>
						</g>
						<g>
							<path class="st40" d="M858.4,271.7c0.4-0.4,1-1.1,1.8-2c0.8-0.9,1.3-1.6,1.6-2.1c0.3-0.5,0.4-1.1,0.3-1.6
								c-0.1-0.5-0.3-1-0.7-1.4l-9.5-10.5c-0.7-0.8-1.6-1.7-2.6-2.7c-1-1-1.8-1.9-2.6-2.6l3.9-3.5c0.5,0.1,1.1,0.1,1.8,0.1
								c0.7,0,1.6-0.1,2.5-0.4c0.9-0.2,1.9-0.6,3.1-1.3c1.1-0.6,2.3-1.5,3.6-2.6l1.2-1.1l1.5,1.7l-5.6,5l10.3,11.4
								c0.5,0.5,0.9,0.8,1.4,0.8c0.5,0.1,1,0,1.6-0.3c0.4-0.2,1.2-0.7,2.2-1.5c1-0.8,1.8-1.3,2.3-1.7l1.2,1.4l-18.1,16.3
								L858.4,271.7z"/>
							<path class="st40" d="M819.4,274.7c1.2-2.1,2.9-4.2,5.2-6.3c2.2-2,4.5-3.5,6.7-4.5c2.2-1,4.3-1.5,6.3-1.5
								c2-0.1,3.8,0.3,5.5,1c1.6,0.7,3.1,1.8,4.3,3.2c1.3,1.4,2.2,3,2.7,4.8c0.5,1.8,0.7,3.6,0.4,5.5c-0.3,1.9-1,4-2.2,6
								c-1.2,2.1-2.9,4.1-5.1,6.1c-2.1,1.9-4.2,3.3-6.2,4.3c-2,1-4.1,1.5-6.1,1.7c-1.9,0.2-3.8-0.1-5.6-0.8
								c-1.8-0.7-3.4-1.8-4.8-3.4c-1.2-1.3-2.1-2.8-2.6-4.5c-0.6-1.7-0.7-3.5-0.5-5.5C817.5,278.9,818.2,276.8,819.4,274.7z
								 M838.7,289c1.1-0.2,2.1-0.7,3-1.5c1-0.9,1.6-1.9,1.9-3c0.3-1.1,0.2-2.2-0.1-3.3c-0.4-1.2-0.9-2.4-1.6-3.5
								c-0.7-1.1-1.6-2.3-2.8-3.6c-1.1-1.3-2.3-2.4-3.4-3.3c-1.1-0.9-2.2-1.6-3.3-1.9c-1.1-0.4-2.3-0.5-3.3-0.4
								c-1.1,0.2-2.1,0.7-3.1,1.6c-1,0.9-1.6,1.9-1.9,2.9c-0.3,1-0.3,2.2,0.1,3.4c0.3,1.2,0.9,2.3,1.6,3.5c0.8,1.2,1.7,2.4,2.8,3.7
								c1.3,1.4,2.4,2.5,3.5,3.4c1.1,0.8,2.2,1.4,3.3,1.9C836.6,289,837.6,289.1,838.7,289z"/>
							<path class="st40" d="M787.8,303.1c1.2-2.1,2.9-4.2,5.2-6.3c2.2-2,4.5-3.5,6.7-4.5c2.2-1,4.3-1.5,6.3-1.5
								c2-0.1,3.8,0.3,5.5,1c1.6,0.7,3.1,1.8,4.3,3.2c1.3,1.4,2.2,3,2.7,4.8c0.5,1.8,0.7,3.6,0.4,5.5c-0.3,1.9-1,4-2.2,6
								c-1.2,2.1-2.9,4.1-5.1,6.1c-2.1,1.9-4.2,3.3-6.2,4.3c-2,1-4.1,1.5-6.1,1.7c-1.9,0.2-3.8-0.1-5.6-0.8
								c-1.8-0.7-3.4-1.8-4.8-3.4c-1.2-1.3-2.1-2.8-2.6-4.5c-0.6-1.7-0.7-3.6-0.5-5.5C785.9,307.3,786.7,305.2,787.8,303.1z
								 M807.2,317.3c1.1-0.2,2.1-0.7,3-1.5c1-0.9,1.6-1.9,1.9-3c0.3-1.1,0.2-2.2-0.1-3.3c-0.4-1.2-0.9-2.4-1.6-3.5
								c-0.7-1.1-1.6-2.3-2.8-3.6c-1.1-1.3-2.3-2.4-3.4-3.3c-1.1-0.9-2.2-1.5-3.3-1.9c-1.2-0.4-2.3-0.6-3.3-0.4
								c-1.1,0.2-2.1,0.7-3.1,1.6c-1,0.9-1.6,1.9-1.9,2.9c-0.3,1.1-0.2,2.2,0.1,3.4c0.3,1.1,0.9,2.3,1.6,3.5
								c0.7,1.2,1.7,2.4,2.8,3.7c1.3,1.4,2.5,2.5,3.5,3.4c1.1,0.8,2.2,1.4,3.3,1.9C805,317.4,806.1,317.5,807.2,317.3z"/>
						</g>
						<g>
							<path class="st40" d="M521.3,542.8c0.3-0.3,0.9-0.9,1.5-1.7c0.7-0.8,1.1-1.4,1.3-1.8c0.2-0.5,0.3-0.9,0.3-1.4
								c0-0.4-0.2-0.8-0.6-1.2l-8-8.9c-0.6-0.7-1.4-1.5-2.2-2.3c-0.8-0.9-1.6-1.6-2.2-2.2l3.3-3c0.4,0.1,0.9,0.1,1.5,0.1
								c0.6,0,1.3-0.1,2.1-0.3c0.8-0.2,1.6-0.6,2.6-1.1c1-0.5,2-1.3,3.1-2.3l1-0.9l1.3,1.4l-4.8,4.3l8.7,9.7
								c0.4,0.4,0.8,0.7,1.2,0.7c0.4,0.1,0.9,0,1.3-0.3c0.4-0.2,1-0.6,1.9-1.3c0.9-0.7,1.5-1.1,1.9-1.5l1,1.2l-15.5,13.9
								L521.3,542.8z"/>
							<path class="st40" d="M488.1,545.5c1-1.8,2.5-3.6,4.5-5.4c1.9-1.7,3.8-3,5.7-3.8c1.9-0.8,3.7-1.3,5.4-1.3
								c1.7-0.1,3.3,0.2,4.7,0.8c1.4,0.6,2.6,1.5,3.7,2.7c1.1,1.2,1.8,2.5,2.3,4c0.4,1.5,0.5,3.1,0.3,4.7c-0.3,1.7-0.9,3.4-1.9,5.1
								c-1,1.8-2.5,3.5-4.4,5.2c-1.8,1.6-3.6,2.8-5.3,3.7c-1.7,0.8-3.5,1.3-5.2,1.5c-1.7,0.1-3.3-0.1-4.8-0.6
								c-1.5-0.6-2.9-1.5-4.1-2.8c-1-1.1-1.7-2.4-2.2-3.9c-0.5-1.5-0.6-3-0.4-4.7C486.5,549,487.1,547.3,488.1,545.5z M504.5,557.5
								c0.9-0.2,1.8-0.6,2.6-1.3c0.9-0.8,1.4-1.6,1.6-2.6c0.2-0.9,0.2-1.9-0.1-2.8c-0.3-1-0.8-2-1.3-2.9c-0.6-0.9-1.4-1.9-2.4-3.1
								c-1-1.1-1.9-2-2.9-2.8c-1-0.8-1.9-1.3-2.8-1.6c-1-0.4-1.9-0.5-2.8-0.3c-0.9,0.1-1.8,0.6-2.6,1.4c-0.8,0.8-1.4,1.6-1.6,2.5
								c-0.2,0.9-0.2,1.8,0.1,2.9c0.3,1,0.7,2,1.3,3c0.6,1,1.4,2,2.4,3.1c1.1,1.2,2.1,2.1,3,2.8c0.9,0.7,1.9,1.2,2.8,1.6
								C502.7,557.6,503.6,557.7,504.5,557.5z"/>
							<path class="st40" d="M461.2,569.7c1-1.8,2.5-3.6,4.5-5.4c1.9-1.7,3.8-3,5.7-3.8c1.9-0.8,3.7-1.3,5.4-1.3
								c1.7-0.1,3.3,0.2,4.7,0.8c1.4,0.6,2.6,1.5,3.7,2.7c1.1,1.2,1.8,2.5,2.3,4c0.4,1.5,0.5,3.1,0.3,4.7c-0.3,1.7-0.9,3.4-1.9,5.1
								c-1,1.8-2.5,3.5-4.4,5.2c-1.8,1.6-3.6,2.8-5.3,3.7c-1.7,0.8-3.5,1.3-5.2,1.5c-1.7,0.1-3.3-0.1-4.8-0.6
								c-1.5-0.6-2.9-1.5-4.1-2.8c-1-1.1-1.8-2.4-2.2-3.9c-0.5-1.5-0.6-3-0.4-4.7C459.5,573.3,460.1,571.6,461.2,569.7z
								 M477.6,581.8c0.9-0.2,1.8-0.6,2.6-1.3c0.9-0.8,1.4-1.6,1.6-2.6c0.2-0.9,0.2-1.9-0.1-2.8c-0.3-1-0.8-2-1.3-2.9
								c-0.6-0.9-1.4-1.9-2.4-3.1c-1-1.1-1.9-2-2.9-2.8c-1-0.8-1.9-1.3-2.8-1.6c-1-0.4-1.9-0.5-2.8-0.3c-0.9,0.1-1.8,0.6-2.6,1.4
								c-0.8,0.8-1.4,1.6-1.6,2.5c-0.2,0.9-0.2,1.8,0.1,2.9c0.3,1,0.7,2,1.3,3c0.6,1,1.4,2,2.4,3.1c1.1,1.2,2.1,2.1,3,2.8
								c0.9,0.7,1.9,1.2,2.8,1.6C475.7,581.9,476.6,582,477.6,581.8z"/>
						</g>
						<path class="st38" d="M652.7,437.3l3.4-34.2l-3,8l-7.5,1.8l6.1,4.4l-11.2-1.9l4.7,3.3l-6.6,1.3l-9.1-5.4l4.4,5.9l-13.5-6.2
							l-1.1-7l-4.5-3.9l-2.5,6l-3.1-7.6l-13.3-10.6l-7.3-14.9l-3.5-19l-16.9-20.9l-9.8-24.5l2-28.6l11.5-21.6l26.4-18.6l18.8-3.7
							l9.5-2l10.1,5.5l6.9-0.1l11.9,3.8l12.3,10.5l16.7,2.9l11.4,4.8l3.8,6.9l7.3-1.8l8.4,3.6l4.4,10.6l13.8,4
							c24.3,44.3,20,96.7-13.8,127C701.3,431.7,677.4,438.8,652.7,437.3z"/>
					</g>
					<polygon class="st41" points="724.4,81.6 809.8,132.2 522.8,616.9 474.8,661.1 300.5,471.8 					"/>
					<g>
						
							<rect x="218.5" y="204.5" transform="matrix(0.5094 -0.8605 0.8605 0.5094 -31.0042 612.0449)" class="st37" width="605.6" height="257.3"/>
						<path class="st11" d="M273.8,522.6l200.6,118.7l294.5-497.4L568.3,25.1L273.8,522.6z M302.3,526.2L585.2,48.4l155.1,91.8
							L457.4,618L302.3,526.2z"/>
						<g>
							<path class="st38" d="M613.7,177.1c-14.9-8.8-19.8-28-11-42.9c8.8-14.9,28-19.8,42.9-11c14.9,8.8,19.8,28.1,11,42.9
								C647.8,181,628.6,185.9,613.7,177.1z M617.3,171c11.5,6.8,26.4,3,33.2-8.5c6.8-11.5,3-26.4-8.5-33.2
								c-11.5-6.8-26.4-3-33.2,8.5C602,149.3,605.9,164.2,617.3,171z"/>
							<path class="st38" d="M430.7,486.2c-14.9-8.8-19.8-28-11-42.9c8.8-14.9,28-19.8,42.9-11c14.9,8.8,19.8,28,11,42.9
								C464.8,490.1,445.6,495,430.7,486.2z M434.3,480.1c11.5,6.8,26.4,3,33.2-8.5c6.8-11.5,3-26.4-8.5-33.2
								c-11.5-6.8-26.4-3-33.2,8.5C419,458.4,422.9,473.3,434.3,480.1z"/>
						</g>
						<path class="st39" d="M494.8,377.9c55.4,32.8,122.8,21.3,150.7-25.6c27.8-46.9,5.4-111.6-50-144.4
							c-55.4-32.8-122.8-21.3-150.6,25.6C417,280.5,439.4,345.1,494.8,377.9z"/>
						<g>
							<path class="st40" d="M360.6,418.8c0.4-0.6,0.9-1.7,1.5-3.1c0.7-1.4,1.1-2.4,1.3-3c0.2-0.7,0.3-1.3,0.2-1.8
								c-0.1-0.5-0.3-0.9-0.7-1.1l-9.6-5.6c-0.7-0.4-1.6-0.9-2.6-1.4c-1-0.5-1.8-0.9-2.6-1.3l3.4-5.7c0.5-0.2,1-0.5,1.7-0.9
								c0.7-0.4,1.4-1,2.3-1.7c0.8-0.7,1.8-1.7,2.8-3c1-1.3,2.1-2.8,3.2-4.7l1.1-1.8l1.5,0.9l-4.9,8.3l10.3,6.1
								c0.5,0.3,0.9,0.3,1.4,0.1c0.5-0.2,1-0.6,1.5-1.2c0.4-0.5,1.1-1.4,2-2.8c0.9-1.4,1.6-2.4,2-3l1.2,0.7l-15.9,26.9L360.6,418.8z
								"/>
							<path class="st40" d="M324.3,443.5c1-2.9,2.5-6,4.5-9.4c2-3.3,3.9-6.1,6-8.3c2-2.2,4-3.9,5.8-5.1c1.9-1.2,3.6-1.8,5.2-2
								c1.6-0.2,3,0.1,4.3,0.9c1.3,0.8,2.2,1.9,2.8,3.4c0.6,1.5,0.8,3.3,0.7,5.5c-0.2,2.2-0.7,4.7-1.7,7.5c-1,2.8-2.4,5.9-4.4,9.1
								c-1.8,3.1-3.7,5.7-5.5,7.9c-1.8,2.1-3.7,3.9-5.6,5.2c-1.8,1.2-3.6,2-5.3,2.3c-1.7,0.3-3.3,0-4.7-0.8
								c-1.2-0.7-2.1-1.8-2.8-3.2c-0.6-1.5-0.9-3.3-0.8-5.4C322.8,448.8,323.3,446.3,324.3,443.5z M343.3,447.5
								c1-0.8,1.9-1.9,2.7-3.3c0.9-1.5,1.4-2.9,1.6-4.2c0.2-1.3,0.1-2.4-0.3-3.4c-0.4-1.1-1-2-1.7-2.7c-0.7-0.7-1.7-1.5-2.9-2.2
								c-1.2-0.7-2.3-1.2-3.4-1.5c-1.1-0.3-2.2-0.4-3.2-0.2c-1.1,0.2-2.1,0.7-3.1,1.4c-1,0.8-1.9,1.9-2.8,3.4
								c-0.9,1.5-1.4,2.8-1.6,4c-0.2,1.2-0.1,2.4,0.3,3.4c0.4,1,0.9,1.9,1.7,2.7c0.8,0.8,1.7,1.5,2.9,2.2c1.3,0.8,2.5,1.3,3.5,1.5
								c1.1,0.3,2.1,0.3,3.2,0.1C341.3,448.8,342.3,448.3,343.3,447.5z"/>
							<path class="st40" d="M296.6,490.3c1-2.9,2.5-6,4.5-9.4c2-3.3,3.9-6.1,6-8.3c2-2.2,4-3.9,5.8-5.1c1.9-1.2,3.6-1.8,5.2-2
								c1.6-0.2,3,0.1,4.3,0.9c1.3,0.8,2.2,1.9,2.8,3.4c0.6,1.5,0.8,3.4,0.7,5.5c-0.2,2.2-0.7,4.7-1.7,7.5c-1,2.8-2.4,5.9-4.4,9.1
								c-1.8,3.1-3.7,5.7-5.5,7.9c-1.8,2.1-3.7,3.9-5.6,5.2c-1.8,1.3-3.6,2-5.3,2.3c-1.7,0.3-3.3,0-4.7-0.8
								c-1.2-0.7-2.1-1.8-2.8-3.2c-0.6-1.5-0.9-3.3-0.8-5.4C295.1,495.7,295.6,493.2,296.6,490.3z M315.6,494.3
								c1-0.8,1.9-1.9,2.7-3.3c0.9-1.5,1.4-2.9,1.6-4.2c0.2-1.3,0.1-2.4-0.3-3.4c-0.4-1.1-1-2-1.7-2.7c-0.7-0.7-1.7-1.4-2.9-2.2
								c-1.2-0.7-2.3-1.2-3.4-1.5c-1.1-0.3-2.2-0.4-3.2-0.2c-1.1,0.2-2.1,0.7-3.1,1.4c-1,0.8-1.9,1.9-2.8,3.4
								c-0.9,1.5-1.4,2.8-1.6,4c-0.2,1.2-0.1,2.4,0.3,3.4c0.4,1,0.9,1.9,1.7,2.7c0.8,0.8,1.7,1.5,2.9,2.2c1.3,0.8,2.5,1.3,3.5,1.5
								c1.1,0.3,2.1,0.3,3.2,0.1C313.6,495.6,314.6,495.1,315.6,494.3z"/>
						</g>
						<g>
							<path class="st40" d="M561.5,79.4c0.4-0.6,0.9-1.7,1.5-3c0.7-1.4,1.1-2.4,1.3-3c0.2-0.7,0.3-1.3,0.2-1.8
								c-0.1-0.5-0.3-0.9-0.7-1.1l-9.5-5.7c-0.8-0.4-1.6-0.9-2.6-1.4c-1-0.5-1.8-0.9-2.6-1.3l3.4-5.7c0.5-0.2,1-0.5,1.7-0.9
								c0.7-0.4,1.4-1,2.3-1.7c0.8-0.7,1.8-1.7,2.8-3c1-1.3,2.1-2.8,3.2-4.7l1.1-1.8l1.5,0.9l-4.9,8.2l10.3,6.1
								c0.5,0.3,0.9,0.3,1.4,0.1c0.5-0.2,1-0.6,1.5-1.2c0.4-0.5,1.1-1.4,2-2.8c0.9-1.4,1.6-2.4,2-3l1.2,0.7l-15.9,26.9L561.5,79.4z"
								/>
							<path class="st40" d="M525.2,104.1c1-2.9,2.5-6,4.5-9.4c2-3.3,3.9-6.1,6-8.3c2-2.2,3.9-3.9,5.8-5.1c1.9-1.2,3.6-1.8,5.2-2
								c1.6-0.2,3,0.1,4.3,0.9c1.3,0.8,2.2,1.9,2.8,3.4c0.6,1.5,0.8,3.4,0.7,5.5c-0.1,2.2-0.7,4.7-1.7,7.5c-1,2.8-2.4,5.9-4.4,9.1
								c-1.8,3.1-3.7,5.7-5.5,7.9c-1.9,2.1-3.7,3.9-5.6,5.2c-1.8,1.2-3.6,2-5.3,2.3c-1.7,0.3-3.3,0-4.7-0.8
								c-1.2-0.7-2.1-1.8-2.8-3.2c-0.6-1.5-0.9-3.3-0.8-5.4C523.7,109.4,524.3,106.9,525.2,104.1z M544.2,108.1
								c1-0.8,1.9-1.9,2.7-3.3c0.9-1.5,1.4-2.9,1.6-4.2c0.2-1.3,0.1-2.4-0.3-3.4c-0.4-1.1-1-2-1.7-2.7c-0.7-0.7-1.7-1.5-2.9-2.2
								c-1.2-0.7-2.3-1.2-3.4-1.5c-1.1-0.3-2.2-0.4-3.2-0.2c-1.1,0.2-2.1,0.7-3.1,1.4c-1,0.8-1.9,1.9-2.8,3.4
								c-0.9,1.5-1.4,2.8-1.6,4c-0.2,1.2-0.1,2.4,0.3,3.4c0.4,1,0.9,1.9,1.7,2.7c0.8,0.8,1.7,1.5,2.9,2.2c1.3,0.8,2.5,1.3,3.5,1.5
								c1.1,0.3,2.1,0.3,3.2,0.1C542.2,109.4,543.2,108.9,544.2,108.1z"/>
							<path class="st40" d="M497.5,150.9c1-2.9,2.5-6,4.5-9.4c2-3.3,3.9-6.1,6-8.3c2-2.2,4-3.9,5.8-5.1c1.9-1.2,3.6-1.8,5.2-2
								c1.6-0.2,3,0.1,4.3,0.9c1.3,0.8,2.2,1.9,2.8,3.4c0.6,1.5,0.8,3.4,0.7,5.5c-0.2,2.2-0.7,4.7-1.7,7.5c-1,2.8-2.4,5.9-4.4,9.1
								c-1.8,3.1-3.7,5.7-5.5,7.9c-1.8,2.1-3.7,3.9-5.6,5.2c-1.8,1.2-3.6,2-5.3,2.3c-1.7,0.3-3.3,0-4.7-0.8
								c-1.2-0.7-2.1-1.8-2.8-3.2c-0.6-1.5-0.9-3.3-0.8-5.4C496,156.2,496.5,153.8,497.5,150.9z M516.5,154.9c1-0.8,1.9-1.9,2.7-3.3
								c0.9-1.5,1.4-2.9,1.6-4.2c0.2-1.3,0.1-2.4-0.3-3.4c-0.4-1.1-1-2-1.7-2.7c-0.7-0.7-1.7-1.4-2.9-2.2c-1.2-0.7-2.3-1.2-3.4-1.5
								c-1.1-0.3-2.2-0.4-3.2-0.2c-1.1,0.2-2.1,0.7-3.1,1.4c-1,0.8-1.9,1.9-2.8,3.4c-0.9,1.5-1.4,2.8-1.6,4
								c-0.2,1.2-0.1,2.4,0.3,3.4c0.4,1,0.9,1.9,1.7,2.7c0.8,0.8,1.7,1.5,2.9,2.2c1.3,0.8,2.5,1.3,3.5,1.5c1.1,0.3,2.1,0.3,3.2,0.1
								C514.5,156.2,515.5,155.7,516.5,154.9z"/>
						</g>
						<g>
							<path class="st40" d="M734.9,173.9c0.3-0.5,0.6-1.3,1.1-2.4c0.5-1.1,0.8-1.9,0.9-2.5c0.1-0.6,0-1.1-0.2-1.6
								c-0.2-0.5-0.6-0.9-1.1-1.2l-12.2-7.2c-1-0.6-2.1-1.2-3.3-1.8c-1.2-0.7-2.3-1.2-3.3-1.7l2.6-4.5c0.5-0.1,1.1-0.2,1.8-0.5
								c0.7-0.2,1.5-0.6,2.3-1.1c0.8-0.5,1.7-1.2,2.6-2.1c0.9-0.9,1.8-2.1,2.7-3.6l0.8-1.4l2,1.2l-3.8,6.4l13.2,7.8
								c0.6,0.3,1.1,0.5,1.6,0.4c0.5-0.1,1-0.4,1.4-0.8c0.4-0.3,0.9-1,1.7-2.1c0.8-1,1.3-1.8,1.6-2.3l1.6,0.9l-12.4,21L734.9,173.9z
								"/>
							<path class="st40" d="M698.6,188.5c0.5-2.4,1.5-4.9,3.1-7.6c1.5-2.6,3.2-4.7,5-6.3c1.8-1.6,3.7-2.7,5.5-3.3
								c1.9-0.7,3.7-0.9,5.5-0.7c1.8,0.2,3.5,0.8,5.1,1.7c1.6,1,3,2.2,4,3.7c1,1.5,1.7,3.2,2,5.1c0.3,1.9,0.2,4.1-0.3,6.4
								c-0.5,2.3-1.5,4.8-3,7.4c-1.4,2.4-3,4.4-4.6,5.9c-1.7,1.5-3.4,2.7-5.3,3.5c-1.8,0.7-3.7,1.1-5.6,1c-1.9-0.1-3.8-0.7-5.6-1.8
								c-1.5-0.9-2.8-2.1-3.9-3.5c-1.1-1.5-1.8-3.2-2.1-5.1C698,193,698.1,190.9,698.6,188.5z M721.3,196.3c1-0.5,1.8-1.3,2.4-2.4
								c0.7-1.2,1-2.3,0.9-3.4c-0.1-1.1-0.5-2.2-1.1-3.1c-0.7-1.1-1.6-2-2.5-2.8c-1-0.8-2.2-1.7-3.8-2.6c-1.5-0.9-2.9-1.6-4.2-2.1
								c-1.4-0.5-2.6-0.8-3.7-0.9c-1.2-0.1-2.3,0.2-3.3,0.6c-1,0.5-1.8,1.3-2.5,2.4c-0.7,1.1-1,2.2-0.9,3.3c0.1,1.1,0.4,2.1,1.1,3.2
								c0.6,1,1.5,1.9,2.6,2.8c1.1,0.9,2.3,1.8,3.8,2.6c1.6,1,3.1,1.7,4.4,2.2c1.3,0.5,2.5,0.7,3.7,0.8
								C719.2,197,720.3,196.8,721.3,196.3z"/>
							<path class="st40" d="M676.9,225c0.5-2.4,1.5-4.9,3.1-7.6c1.5-2.6,3.2-4.7,5-6.3c1.8-1.6,3.7-2.7,5.5-3.3
								c1.9-0.7,3.7-0.9,5.5-0.7c1.8,0.2,3.5,0.8,5.1,1.7c1.6,1,3,2.2,4,3.7c1,1.5,1.7,3.2,2,5.1c0.3,1.9,0.2,4.1-0.3,6.4
								c-0.5,2.3-1.5,4.8-3,7.4c-1.4,2.4-3,4.4-4.6,5.9c-1.7,1.5-3.4,2.7-5.3,3.5c-1.8,0.7-3.7,1.1-5.6,1c-1.9-0.1-3.8-0.7-5.6-1.8
								c-1.5-0.9-2.8-2.1-3.9-3.5c-1.1-1.5-1.8-3.2-2.1-5.1C676.4,229.5,676.4,227.4,676.9,225z M699.6,232.8c1-0.5,1.8-1.3,2.4-2.4
								c0.7-1.2,1-2.3,0.9-3.4c-0.1-1.1-0.5-2.2-1.1-3.1c-0.7-1.1-1.6-2-2.5-2.8c-1-0.8-2.2-1.7-3.8-2.6c-1.5-0.9-2.9-1.6-4.2-2.1
								c-1.3-0.5-2.6-0.8-3.7-0.9c-1.2-0.1-2.3,0.2-3.3,0.6c-1,0.5-1.8,1.3-2.5,2.4c-0.7,1.1-1,2.2-0.9,3.3c0.1,1.1,0.4,2.1,1.1,3.2
								c0.6,1,1.5,1.9,2.6,2.8c1.1,0.9,2.3,1.8,3.8,2.6c1.6,1,3.1,1.7,4.4,2.2c1.3,0.5,2.5,0.7,3.7,0.8
								C697.6,233.5,698.7,233.3,699.6,232.8z"/>
						</g>
						<g>
							<path class="st40" d="M494.3,533.4c0.2-0.4,0.5-1.1,0.9-2.1c0.4-0.9,0.6-1.7,0.7-2.1c0.1-0.5,0-1-0.1-1.4
								c-0.2-0.4-0.5-0.7-0.9-1l-10.3-6.1c-0.8-0.5-1.7-1-2.8-1.6c-1-0.6-2-1.1-2.8-1.5l2.3-3.8c0.4-0.1,0.9-0.2,1.5-0.4
								c0.6-0.2,1.2-0.5,1.9-0.9c0.7-0.4,1.4-1,2.2-1.8c0.8-0.8,1.5-1.8,2.3-3.1l0.7-1.2l1.7,1l-3.3,5.5l11.2,6.6
								c0.5,0.3,1,0.4,1.4,0.3c0.4-0.1,0.8-0.3,1.2-0.7c0.3-0.3,0.8-0.9,1.4-1.8c0.7-0.9,1.1-1.5,1.4-2l1.3,0.8l-10.6,17.9
								L494.3,533.4z"/>
							<path class="st40" d="M463.5,546c0.4-2,1.3-4.2,2.7-6.5c1.3-2.2,2.7-4,4.3-5.4c1.6-1.4,3.1-2.3,4.7-2.9
								c1.6-0.6,3.2-0.8,4.7-0.6c1.5,0.2,2.9,0.6,4.3,1.5c1.4,0.8,2.5,1.9,3.4,3.2c0.9,1.3,1.4,2.8,1.7,4.4c0.2,1.7,0.2,3.5-0.3,5.5
								c-0.4,2-1.3,4.1-2.6,6.3c-1.2,2.1-2.5,3.8-4,5.1c-1.4,1.3-2.9,2.3-4.5,3c-1.5,0.6-3.1,0.9-4.8,0.8c-1.6-0.1-3.2-0.6-4.8-1.5
								c-1.3-0.8-2.4-1.8-3.3-3c-0.9-1.2-1.5-2.7-1.8-4.4C463,549.8,463,548,463.5,546z M482.7,552.5c0.8-0.4,1.5-1.1,2.1-2
								c0.6-1,0.9-2,0.8-2.9c-0.1-1-0.4-1.8-0.9-2.7c-0.6-0.9-1.3-1.7-2.2-2.4c-0.8-0.7-1.9-1.4-3.2-2.2c-1.2-0.7-2.4-1.3-3.6-1.8
								c-1.1-0.4-2.2-0.7-3.1-0.7c-1,0-2,0.1-2.8,0.6c-0.8,0.4-1.5,1.1-2.1,2.1c-0.6,1-0.8,1.9-0.8,2.8c0,0.9,0.3,1.8,0.9,2.7
								c0.5,0.8,1.3,1.7,2.2,2.4c0.9,0.8,2,1.5,3.2,2.2c1.4,0.8,2.6,1.4,3.7,1.8c1.1,0.4,2.1,0.6,3.2,0.7
								C481,553.2,481.9,553,482.7,552.5z"/>
							<path class="st40" d="M445,577.2c0.4-2,1.3-4.2,2.7-6.5c1.3-2.2,2.7-4,4.3-5.4c1.6-1.4,3.1-2.3,4.7-2.9
								c1.6-0.6,3.2-0.8,4.7-0.6c1.5,0.2,2.9,0.6,4.3,1.5c1.4,0.8,2.5,1.9,3.4,3.2c0.9,1.3,1.4,2.8,1.7,4.4c0.2,1.7,0.2,3.5-0.3,5.5
								c-0.4,2-1.3,4.1-2.6,6.3c-1.2,2.1-2.5,3.8-4,5.1c-1.4,1.3-2.9,2.3-4.5,3c-1.5,0.6-3.1,0.9-4.8,0.8c-1.6-0.1-3.2-0.6-4.8-1.5
								c-1.3-0.8-2.4-1.8-3.3-3c-0.9-1.2-1.5-2.7-1.8-4.4C444.5,581,444.6,579.2,445,577.2z M464.2,583.7c0.8-0.4,1.5-1.1,2.1-2
								c0.6-1,0.9-2,0.8-2.9c-0.1-1-0.4-1.8-0.9-2.7c-0.6-0.9-1.3-1.7-2.2-2.4c-0.8-0.7-1.9-1.4-3.2-2.2c-1.2-0.7-2.4-1.3-3.6-1.8
								c-1.1-0.4-2.2-0.7-3.1-0.7c-1,0-2,0.1-2.8,0.5c-0.8,0.4-1.5,1.1-2.1,2.1c-0.6,1-0.8,1.9-0.8,2.8c0,0.9,0.3,1.8,0.9,2.7
								c0.5,0.9,1.3,1.7,2.2,2.4c0.9,0.8,2,1.5,3.2,2.2c1.4,0.8,2.6,1.4,3.7,1.8c1.1,0.4,2.1,0.6,3.2,0.7
								C462.5,584.4,463.4,584.2,464.2,583.7z"/>
						</g>
						<path class="st38" d="M588.1,393.5l-7-33.7l-0.4,8.6l-6.7,4l7.1,2.4l-11.3,1.5l5.5,1.7l-5.9,3.2l-10.3-2.5l6,4.3l-14.7-1.8
							l-3.2-6.3l-5.5-2.4l-0.6,6.5l-5.2-6.3l-15.8-6.1l-11.4-12l-9-17.1l-22.4-14.9l-16.7-20.4l-6.6-27.9l4.5-24.1l19.6-25.7
							l16.8-9.1l8.5-4.7l11.3,2.2l6.6-2.2l12.5,0.1l14.9,6.4l16.7-2.3l12.3,1.2l5.7,5.4l6.4-3.9l9.1,1l7.4,8.8l14.4-0.3
							c36.4,35,48,86.3,24.9,125.3C632.8,373.6,612.1,387.5,588.1,393.5z"/>
					</g>
				</g>
				<path class="st41" d="M351.3,520.3c21.6-5,60.8-19.6,80.5-27.5c1.1-0.4,2.3-1,3.8-1.6c2.4-1.1,5-2.3,7.8-3.6
					c3.1-1.4,6.2-2.9,9.5-4.4c11.5-5.1,25-10.1,37.7-8.9c10.7,1.1,25.1,11.9,30.9,28.2c6,17.1,5,45.4-33.9,83.7
					c-18.4,18-41.8,33-73.8,47.2c-14.1,6.2-28.1,11.6-41.9,16.6l-46.3-80.8l-44.9-26.6C303.5,535.2,341.8,522.5,351.3,520.3z"/>
				<path class="st34" d="M190,873.5c89.6-101.7,89-191.1,89-191.1c31.1-34.4,140.3-43.8,201.1-103.6c61.8-60.7,21.6-92.8,9.4-94
					c-16.9-1.7-38.8,11.7-53.8,17.7c-15,6-58,22.5-82,28c-24,5.5-58.1,17.4-91.7,25.5c-15.2,3.7-46.7,4.1-80.3,4l-80.5,112.5
					L190,873.5z"/>
				<path class="st35" d="M325.7,545c4.2,16.6,15.9,29.7,31.8,38c-10.1-11-17.7-24.8-21.8-40.6c-0.6-2.3-1.1-4.6-1.5-6.8
					c-3.2,0.9-6.5,1.9-9.8,2.8C324.8,540.6,325.2,542.8,325.7,545z"/>
				<path class="st35" d="M357.1,537c4.2,16.6,15.9,29.7,31.9,38c-10.1-11-17.7-24.8-21.8-40.6c-0.6-2.4-1.1-4.7-1.5-7
					c-3.5,1-6.8,1.9-9.9,2.7C356.1,532.3,356.5,534.7,357.1,537z"/>
				<path class="st36" d="M496.2,536.2c-0.9,4-43.1,18.7-53.9,13.6c-10.9-5-19.7-25.4-18.7-35.6c0.5-5.1,48.5-28.7,58.1-26.9
					C484.4,488.1,500.9,516.6,496.2,536.2z"/>
			</g>
		</g>
	</g>
</g>
<g>
	<circle class="st42" cx="750" cy="750" r="722.6"/>
	<g>
		<path class="st40" d="M750,1372c-84,0-165.4-16.4-242.1-48.9c-74.1-31.3-140.6-76.2-197.7-133.3c-57.1-57.1-102-123.6-133.3-197.7
			C144.5,915.4,128,834,128,750c0-84,16.4-165.4,48.9-242.1c31.3-74.1,76.2-140.6,133.3-197.7c57.1-57.1,123.6-102,197.7-133.3
			C584.6,144.5,666,128,750,128c84,0,165.4,16.4,242.1,48.9c74.1,31.3,140.6,76.2,197.7,133.3c57.1,57.1,102,123.6,133.3,197.7
			C1355.5,584.6,1372,666,1372,750c0,84-16.4,165.4-48.9,242.1c-31.3,74.1-76.2,140.6-133.3,197.7c-57.1,57.1-123.6,102-197.7,133.3
			C915.4,1355.5,834,1372,750,1372z"/>
		<path class="st43" d="M750,137.7c338.2,0,612.3,274.1,612.3,612.3s-274.1,612.3-612.3,612.3S137.7,1088.2,137.7,750
			S411.8,137.7,750,137.7 M750,118.3c-85.3,0-168,16.7-245.9,49.6c-37.4,15.8-73.5,35.4-107.3,58.2c-33.4,22.6-64.9,48.5-93.5,77.1
			c-28.6,28.6-54.5,60-77.1,93.5c-22.8,33.8-42.4,69.9-58.2,107.3C135,582,118.3,664.7,118.3,750S135,918,168,995.9
			c15.8,37.4,35.4,73.5,58.2,107.3c22.6,33.4,48.5,64.9,77.1,93.5c28.6,28.6,60,54.5,93.5,77.1c33.8,22.8,69.9,42.4,107.3,58.2
			c77.9,32.9,160.6,49.6,245.9,49.6s168-16.7,245.9-49.6c37.4-15.8,73.5-35.4,107.3-58.2c33.4-22.6,64.9-48.5,93.5-77.1
			c28.6-28.6,54.5-60,77.1-93.5c22.8-33.8,42.4-69.9,58.2-107.3c32.9-77.9,49.6-160.6,49.6-245.9S1365,582,1332,504.1
			c-15.8-37.4-35.4-73.5-58.2-107.3c-22.6-33.4-48.5-64.9-77.1-93.5c-28.6-28.6-60-54.5-93.5-77.1c-33.8-22.8-69.9-42.4-107.3-58.2
			C918,135,835.3,118.3,750,118.3L750,118.3z"/>
	</g>
	<g>
		<path class="st44" d="M1155.6,447.3l29.9-21.7c-65.5-88.5-157.4-156.3-264-191.9l-11.4,35.2C1009.2,302,1094.6,365,1155.6,447.3z"
			/>
		<path class="st45" d="M750,242.9c52.9,0,103.9,8.2,151.8,23.2l11.4-35.2c-51.5-16.3-106.3-25-163.2-25c-56.9,0-111.7,8.8-163.2,25
			l11.4,35.2C646.1,251,697.1,242.9,750,242.9z"/>
		<path class="st46" d="M1254.5,743h37c-0.9-115.7-38.1-222.8-100.8-310.4l-29.9,21.7C1219,535.9,1253.6,635.4,1254.5,743z"/>
		<path class="st47" d="M589.9,268.8l-11.4-35.2c-106.6,35.6-198.4,103.4-264,191.9l29.9,21.7C405.4,365,490.8,302,589.9,268.8z"/>
		<path class="st48" d="M339.2,454.4l-29.9-21.7c-62.7,87.6-99.9,194.6-100.8,310.4h37C246.4,635.4,281,535.9,339.2,454.4z"/>
		<linearGradient id="SVGID_5_" gradientUnits="userSpaceOnUse" x1="926.841" y1="478.3582" x2="1074.756" y2="310.5313">
			<stop  offset="0" style="stop-color:#F14950"/>
			<stop  offset="1" style="stop-color:#ED1C24"/>
		</linearGradient>
		<path class="st49" d="M1037.5,533.1l118.1-85.8c-61-82.3-146.4-145.3-245.5-178.5l-44.3,136.4C935.3,429.5,995,474.6,1037.5,533.1
			z"/>
		<linearGradient id="SVGID_6_" gradientUnits="userSpaceOnUse" x1="1053.0242" y1="655.9038" x2="1260.6744" y2="579.1016">
			<stop  offset="0" style="stop-color:#CB4B57"/>
			<stop  offset="1" style="stop-color:#BE1E2D"/>
		</linearGradient>
		<path class="st50" d="M1254.5,743c-0.9-107.6-35.5-207.1-93.7-288.6l-118.2,85.9c39.7,57.6,63.1,127.5,63.2,202.7L1254.5,743z"/>
		<linearGradient id="SVGID_7_" gradientUnits="userSpaceOnUse" x1="569.7914" y1="494.9403" x2="433.2513" y2="312.8867">
			<stop  offset="0" style="stop-color:#FAF15B"/>
			<stop  offset="1" style="stop-color:#F9ED32"/>
		</linearGradient>
		<path class="st51" d="M633.6,403.6l-43.8-134.7C490.8,302,405.4,365,344.4,447.3l114.7,83.3C502.4,472.1,563.1,427.2,633.6,403.6z
			"/>
		<linearGradient id="SVGID_8_" gradientUnits="userSpaceOnUse" x1="752.1001" y1="432.0058" x2="749.2557" y2="207.2904">
			<stop  offset="0" style="stop-color:#F9A94B"/>
			<stop  offset="1" style="stop-color:#F7941E"/>
		</linearGradient>
		<path class="st52" d="M857.5,402.4l44.3-136.3c-47.9-15.1-98.9-23.2-151.8-23.2s-103.9,8.2-151.8,23.2L642,400.9
			c33.3-10.2,68.7-15.8,105.4-15.8C785.8,385.1,822.8,391.2,857.5,402.4z"/>
		<linearGradient id="SVGID_9_" gradientUnits="userSpaceOnUse" x1="452.0276" y1="655.4409" x2="235.8415" y2="578.6378">
			<stop  offset="0" style="stop-color:#33A969"/>
			<stop  offset="1" style="stop-color:#009444"/>
		</linearGradient>
		<path class="st53" d="M339.2,454.4c-58.2,81.5-92.8,181-93.7,288.6H389c0.1-76.4,24.1-147.1,64.9-205.2L339.2,454.4z"/>
		<g>
			
				<linearGradient id="SVGID_10_" gradientUnits="userSpaceOnUse" x1="801.0438" y1="686.3471" x2="1286.2772" y2="686.3471" gradientTransform="matrix(-0.4205 -0.9073 -0.9073 0.4205 1809.7699 1172.1333)">
				<stop  offset="0" style="stop-color:#58595B"/>
				<stop  offset="1" style="stop-color:#231F20"/>
			</linearGradient>
			<path class="st54" d="M780.1,743.7c0.1,1.1,0.2,2.3,0.2,3.4c-0.1,16.3-13,29.6-29.2,30.1l1.3-511.6L780.1,743.7z"/>
			
				<linearGradient id="SVGID_11_" gradientUnits="userSpaceOnUse" x1="801.0119" y1="691.8384" x2="1286.2515" y2="691.8384" gradientTransform="matrix(-0.4205 -0.9073 -0.9073 0.4205 1809.7699 1172.1333)">
				<stop  offset="0" style="stop-color:#414042"/>
				<stop  offset="1" style="stop-color:#58595B"/>
			</linearGradient>
			<path class="st55" d="M719.9,743.6l31.2-498.5l1.2,20.6l-1.3,511.6c-0.4,0-0.8,0.1-1.2,0.1c-16.7,0-30.2-13.6-30.2-30.3
				C719.7,745.8,719.8,744.7,719.9,743.6z"/>
		</g>
	</g>
	<g>
		<path class="st56" d="M344,1047l-29.8,21.7c65.3,88.2,156.8,155.8,263,191.2l11.4-35.1C489.8,1191.8,404.7,1129,344,1047z"/>
		<path class="st56" d="M748.2,1250.7c-52.7,0-103.5-8.1-151.2-23.2l-11.4,35.1c51.3,16.2,106,25,162.6,25
			c56.7,0,111.3-8.8,162.6-25l-11.4-35.1C851.7,1242.6,800.9,1250.7,748.2,1250.7z"/>
		<path class="st56" d="M245.4,752.3h-36.9c0.9,115.3,38,222,100.4,309.3l29.8-21.7C280.8,958.7,246.3,859.5,245.4,752.3z"/>
		<path class="st56" d="M907.8,1224.8l11.4,35.1c106.2-35.5,197.8-103.1,263-191.2l-29.8-21.7
			C1091.6,1129,1006.5,1191.8,907.8,1224.8z"/>
		<path class="st56" d="M1157.5,1039.9l29.8,21.7c62.5-87.3,99.5-194,100.4-309.3h-36.9C1250,859.5,1215.6,958.7,1157.5,1039.9z"/>
		<path class="st57" d="M461.7,961.5L344,1047c60.8,82,145.9,144.8,244.6,177.9l44.2-135.9C563.5,1064.7,504,1019.7,461.7,961.5z"/>
		<path class="st57" d="M245.4,752.3c0.9,107.2,35.4,206.4,93.4,287.6l117.8-85.6c-39.6-57.4-62.8-127-62.9-202L245.4,752.3z"/>
		<path class="st57" d="M864.1,1090.6l43.6,134.3c98.8-33,183.9-95.9,244.6-177.9l-114.3-83C994.9,1022.3,934.4,1067.1,864.1,1090.6
			z"/>
		<path class="st57" d="M641.1,1091.7l-44.1,135.8c47.7,15,98.5,23.2,151.2,23.2c52.7,0,103.5-8.1,151.2-23.2l-43.6-134.3
			c-33.2,10.2-68.5,15.7-105,15.7C712.5,1108.9,675.6,1102.9,641.1,1091.7z"/>
		<path class="st57" d="M1157.5,1039.9c58-81.2,92.5-180.4,93.4-287.6h-143.1c-0.1,76.1-24,146.6-64.7,204.5L1157.5,1039.9z"/>
	</g>
</g>
</svg>
