<?xml version="1.0" encoding="utf-8"?>
<!-- Generator: Adobe Illustrator 19.2.1, SVG Export Plug-In . SVG Version: 6.00 Build 0)  -->
<svg version="1.1" id="Layer_1" xmlns="http://www.w3.org/2000/svg" xmlns:xlink="http://www.w3.org/1999/xlink" x="0px" y="0px"
	 width="200px" height="100px" viewBox="0 0 200 100" style="enable-background:new 0 0 200 100;" xml:space="preserve">
<style type="text/css">
	.st0{fill:#0E7DBC;}
	.st1{fill:#00B2E4;}
</style>
<circle class="st0" cx="40.6" cy="80.6" r="10.7"/>
<circle class="st0" cx="145.2" cy="80.6" r="9.2"/>
<path class="st0" d="M19.2,51c-0.1,1.4-0.3,2.8-0.4,4.2c-0.2,2.6-0.4,5.2-0.4,7.8c0.4-0.4,0.7-0.9,1.1-1.3
	c10.4-12.2,32.7-8.3,40.1,5.2c4.4,0.4,8.9,1.4,13.2,2.2c0.9,0.2,1.8,0.3,2.7,0.5c-5.3-0.7-4.1-0.5,3.6,0.5c1.9,0.3,9.2,7.7,11.1,8
	c4.5,0.8,3.6-5.5,8.1-4.6c2.6,0.5,5.1,1,7.7,1.4c0.4,0.1,0.8,0.1,1.2,0.2c1.3,0.1,4.9,0.2,7.3,0.3c0.7-2,1.5-3.9,2.6-5.8
	c12-21.3,40.2-18.2,57-5.3c2.6-1.3,5.3-2.3,8.2-3c0.2-0.5,0.4-1,0.5-1.4c0.6-2.1,5-3.8,5.6-5.9c-3.2-1.7-9.9-4.3-12.7-6.8
	c-0.2-0.2-0.5-0.4-0.8-0.7c-0.3-0.1-0.6-0.1-0.9-0.2c-2.2-0.6-4.3-1.5-6.2-2.6c-0.3,0-0.5-0.1-0.8-0.1c-1.1-0.2-2.2-0.3-3.2-0.5
	c-1.9-0.3-3.7-0.5-5.5-1c-7-1.9-10.9-7.3-16.4-11.7c-1.4-1.1-2.8-2.2-4.1-3.4c-0.4-0.3-0.8-0.5-1.2-0.8c-1.6-0.3-3.9-1.2-5-1.4
	c-4.2-0.7-21.9-13.4-26-14.4c-8.7-2.1-4.9-0.7-13.3-3.6c-3.9-1.3-7,0.7-11.1-0.1c-0.8-0.2-1.6-0.3-2.5-0.4c-1.7-0.2-3.3-0.3-5-0.4
	c-8.9-0.6-17.9-0.5-26.8-0.4c-2.3,0-4.7,0-7,0.2c-0.2,0-0.3,0-0.5,0c-1.4,0.5-5.2,1-5.9,1.2c-0.3,0.1-0.7,0.2-1,0.3
	c-0.2,0.1-0.5,0.2-0.8,0.4c-2.1,1.1-4.2,1.9-6.3,2.4c-1.4,11.1-3.9,28-5.8,39.1C19.4,49.6,19.3,50.3,19.2,51z"/>
<path id="XMLID_3946_" class="st1" d="M40.6,64.6c-8.9,0-16,7.2-16,16s7.2,16,16,16c8.9,0,16-7.2,16-16S49.4,64.6,40.6,64.6z
	 M40.6,89.2c-4.7,0-8.6-3.8-8.6-8.6c0-4.7,3.8-8.6,8.6-8.6c4.7,0,8.6,3.8,8.6,8.6C49.2,85.4,45.3,89.2,40.6,89.2z"/>
<path id="XMLID_3940_" class="st1" d="M145.2,64.6c-8.9,0-16,7.2-16,16s7.2,16,16,16c8.9,0,16-7.2,16-16S154.1,64.6,145.2,64.6z
	 M145.2,89.2c-4.7,0-8.6-3.8-8.6-8.6c0-4.7,3.8-8.6,8.6-8.6c4.7,0,8.6,3.8,8.6,8.6C153.8,85.4,150,89.2,145.2,89.2z"/>
<path id="XMLID_3923_" class="st1" d="M191.3,61.3c-2.5-18-32-20.6-37.7-25.3C132,18.4,107.2,3.3,82.4,3.3c-14.9,0-22.5,0-33.6,0
	c-12.2,0-25.5,0-25.5,5.5c0,11.2-4,18.8-7.8,28.7l-3.4,9.9C9.9,55,8.3,64.4,8.3,77c0,2.8,2.2,5.1,5,5.1c2.1,0,4.9,0,8.2,0
	c0-0.5-0.1-1-0.1-1.5c0-10.5,8.6-19.1,19.1-19.1s19.1,8.6,19.1,19.1c0,0.5,0,1-0.1,1.5c20.7,0,44.8,0,66.6,0c0-0.5-0.1-1-0.1-1.5
	c0-10.5,8.6-19.1,19.1-19.1s19.1,8.6,19.1,19.1c0,0.5,0,1-0.1,1.5c15.4-0.1,24-3,26.3-9.8C191.3,70.2,192.1,66.9,191.3,61.3z
	 M61.5,30.2c-10.7,0-22.5,0-33.9,0c2.1-6.2,3.7-12.3,3.8-19.8C31.2,9.2,34,9,37.9,8.7C42,8.4,44,8.4,48.8,8.4h12.7V30.2z M100.1,66
	l-9.6,8.6L85.2,66h4.6l2.2-9.7h-3.5h-5.1h-1.1l5.2-17.9h9.4l-5.8,12.4h2.2h6.4h2.3L95.1,66H100.1z M90,30.2c-5.5,0-12.8,0-21.1,0
	V8.4h10.5c18.7,0,38.2,7.8,62.6,27C130.8,32.8,113.8,30.2,90,30.2z M175.5,55.4L167.4,45c0,0,4.1,0.6,10.9,4.5
	c4.9,2.9,6.9,5.8,6.9,5.8h-9.7L175.5,55.4L175.5,55.4z"/>
</svg>
