<?xml version="1.0" encoding="utf-8"?>
<!-- Generator: Adobe Illustrator 19.2.1, SVG Export Plug-In . SVG Version: 6.00 Build 0)  -->
<svg version="1.1" id="Layer_7" xmlns="http://www.w3.org/2000/svg" xmlns:xlink="http://www.w3.org/1999/xlink" x="0px" y="0px"
	 width="183.3px" height="93.4px" viewBox="0 0 183.3 93.4" style="enable-background:new 0 0 183.3 93.4;" xml:space="preserve">
<style type="text/css">
	.st0{fill:#FFFFFF;}
</style>
<g id="XMLID_3922_">
	<path id="XMLID_3946_" class="st0" d="M32.2,61.3c-8.9,0-16,7.2-16,16s7.2,16,16,16c8.9,0,16-7.2,16-16S41.1,61.3,32.2,61.3z
		 M32.2,85.9c-4.7,0-8.6-3.8-8.6-8.6c0-4.7,3.8-8.6,8.6-8.6c4.7,0,8.6,3.8,8.6,8.6C40.8,82.1,37,85.9,32.2,85.9z"/>
	<path id="XMLID_3940_" class="st0" d="M136.9,61.3c-8.9,0-16,7.2-16,16s7.2,16,16,16c8.9,0,16-7.2,16-16S145.8,61.3,136.9,61.3z
		 M136.9,85.9c-4.7,0-8.6-3.8-8.6-8.6c0-4.7,3.8-8.6,8.6-8.6c4.7,0,8.6,3.8,8.6,8.6C145.5,82.1,141.6,85.9,136.9,85.9z"/>
	<path id="XMLID_3923_" class="st0" d="M183,58c-2.5-18-32-20.6-37.7-25.3C123.6,15.1,98.9,0,74.1,0C59.2,0,51.5,0,40.4,0
		C28.2,0,14.9,0,14.9,5.5c0,11.2-4,18.8-7.8,28.7l-3.4,9.9C1.6,51.8,0,61.1,0,73.8c0,2.8,2.2,5.1,5,5.1c2.1,0,4.9,0,8.2,0
		c0-0.5-0.1-1-0.1-1.5c0-10.5,8.6-19.1,19.1-19.1c10.5,0,19.1,8.6,19.1,19.1c0,0.5,0,1-0.1,1.5c20.7,0,44.8,0,66.6,0
		c0-0.5-0.1-1-0.1-1.5c0-10.5,8.6-19.1,19.1-19.1c10.5,0,19.1,8.6,19.1,19.1c0,0.5,0,1-0.1,1.5c15.4-0.1,24-3,26.3-9.8
		C183,66.9,183.8,63.6,183,58z M53.1,26.9c-10.7,0-22.5,0-33.9,0c2.1-6.2,3.7-12.3,3.8-19.8c-0.2-1.2,2.6-1.4,6.5-1.7
		c4.1-0.3,6.1-0.3,10.9-0.3h12.7V26.9z M91.8,62.7l-9.6,8.6l-5.3-8.6h4.6l2.2-9.7h-3.5h-5.1H74l5.2-17.9h9.4l-5.8,12.4h2.2h6.4h2.3
		l-6.9,15.1H91.8z M81.6,26.9c-5.5,0-12.8,0-21.1,0V5.1H71c18.7,0,38.2,7.8,62.6,27C122.5,29.5,105.5,26.9,81.6,26.9z M167.1,52.1
		L159,41.8c0,0,4.1,0.6,10.9,4.5c4.9,2.9,6.9,5.8,6.9,5.8H167.1z"/>
</g>
</svg>
