<svg xmlns="http://www.w3.org/2000/svg" viewBox="0 0 2703.3 1108.91"><defs><style>.a{opacity:0.25;}.b,.d{fill:#217dc1;}.b{fill-rule:evenodd;}.c{opacity:0.65;}</style></defs><title>city</title><g class="a"><polygon class="b" points="24.31 834.24 146.9 834.24 146.9 886.79 24.31 886.79 24.31 834.24 24.31 834.24"/><polygon class="b" points="38.63 799.21 65.7 799.21 65.7 851.76 38.63 851.76 38.63 799.21 38.63 799.21"/><polygon class="b" points="100.73 745.08 173.97 745.08 173.97 856.52 100.73 856.52 100.73 745.08 100.73 745.08"/><polygon class="b" points="57.75 818.31 100.73 818.31 100.73 843.79 57.75 843.79 57.75 818.31 57.75 818.31"/><polygon class="b" points="1230.29 508.66 1338.19 508.66 1338.19 833.17 1230.29 833.17 1230.29 508.66 1230.29 508.66"/><polygon class="b" points="1226.23 552.68 1235.97 552.68 1235.97 605.16 1226.23 605.16 1226.23 552.68 1226.23 552.68"/><polygon class="b" points="1267.12 473.25 1300.63 473.25 1300.63 525.23 1267.12 525.23 1267.12 473.25 1267.12 473.25"/><polygon class="b" points="1276.17 466.63 1279.1 466.63 1279.1 469.01 1276.17 469.01 1276.17 466.63 1276.17 466.63"/><polygon class="b" points="1276.17 471.76 1279.1 471.76 1279.1 474.12 1276.17 474.12 1276.17 471.76 1276.17 471.76"/><polygon class="b" points="1276.72 468.36 1278.54 468.36 1278.54 474.12 1276.72 474.12 1276.72 468.36 1276.72 468.36"/><polygon class="b" points="1281.9 466.63 1284.83 466.63 1284.83 469.01 1281.9 469.01 1281.9 466.63 1281.9 466.63"/><polygon class="b" points="1281.9 471.76 1284.83 471.76 1284.83 474.12 1281.9 474.12 1281.9 471.76 1281.9 471.76"/><polygon class="b" points="1282.47 468.36 1284.25 468.36 1284.25 474.12 1282.47 474.12 1282.47 468.36 1282.47 468.36"/><polygon class="b" points="1265.84 481.2 1301.88 481.2 1301.88 490.17 1265.84 490.17 1265.84 481.2 1265.84 481.2"/><polygon class="b" points="1265.84 495.29 1301.88 495.29 1301.88 504.23 1265.84 504.23 1265.84 495.29 1265.84 495.29"/><polygon class="b" points="1316.17 568.59 1421.27 568.59 1421.27 833.17 1316.17 833.17 1316.17 568.59 1316.17 568.59"/><polygon class="b" points="1379.4 547.38 1421.27 547.38 1421.27 833.17 1379.4 833.17 1379.4 547.38 1379.4 547.38"/><polygon class="b" points="1379.4 534.34 1410.94 534.34 1410.94 820.11 1379.4 820.11 1379.4 534.34 1379.4 534.34"/><polygon class="b" points="1381.04 543.03 1412.56 543.03 1412.56 820.11 1381.04 820.11 1381.04 543.03 1381.04 543.03"/><polygon class="b" points="1357.54 513.66 1387.23 513.66 1387.23 578.18 1357.54 578.18 1357.54 513.66 1357.54 513.66"/><polygon class="b" points="1368.34 505.7 1369.42 505.7 1369.42 515.96 1368.34 515.96 1368.34 505.7 1368.34 505.7"/><polygon class="b" points="1375.5 510.42 1383.05 510.42 1383.05 516.1 1375.5 516.1 1375.5 510.42 1375.5 510.42"/><polygon class="b" points="1377.91 511.65 1369.28 511.65 1369.28 515.82 1377.91 515.82 1377.91 511.65 1377.91 511.65"/><polygon class="b" points="1335.83 545.38 1353.77 545.38 1353.77 574.8 1335.83 574.8 1335.83 545.38 1335.83 545.38"/><polygon class="b" points="1351.08 548.36 1359.44 548.36 1359.44 572.5 1351.08 572.5 1351.08 548.36 1351.08 548.36"/><polygon class="b" points="1654.34 508.66 1546.39 508.66 1546.39 833.17 1654.34 833.17 1654.34 508.66 1654.34 508.66"/><polygon class="b" points="1658.38 552.68 1648.64 552.68 1648.64 605.16 1658.38 605.16 1658.38 552.68 1658.38 552.68"/><polygon class="b" points="1617.49 473.25 1584.02 473.25 1584.02 525.23 1617.49 525.23 1617.49 473.25 1617.49 473.25"/><polygon class="b" points="1608.43 466.63 1605.51 466.63 1605.51 469.01 1608.43 469.01 1608.43 466.63 1608.43 466.63"/><polygon class="b" points="1608.43 471.76 1605.51 471.76 1605.51 474.12 1608.43 474.12 1608.43 471.76 1608.43 471.76"/><polygon class="b" points="1607.88 468.36 1606.07 468.36 1606.07 474.12 1607.88 474.12 1607.88 468.36 1607.88 468.36"/><polygon class="b" points="1602.71 466.63 1599.77 466.63 1599.77 469.01 1602.71 469.01 1602.71 466.63 1602.71 466.63"/><polygon class="b" points="1602.71 471.76 1599.77 471.76 1599.77 474.12 1602.71 474.12 1602.71 471.76 1602.71 471.76"/><polygon class="b" points="1602.15 468.36 1600.34 468.36 1600.34 474.12 1602.15 474.12 1602.15 468.36 1602.15 468.36"/><polygon class="b" points="1618.77 481.2 1582.73 481.2 1582.73 490.17 1618.77 490.17 1618.77 481.2 1618.77 481.2"/><polygon class="b" points="1618.77 495.29 1582.73 495.29 1582.73 504.23 1618.77 504.23 1618.77 495.29 1618.77 495.29"/><polygon class="b" points="1568.42 568.59 1463.34 568.59 1463.34 833.17 1568.42 833.17 1568.42 568.59 1568.42 568.59"/><polygon class="b" points="1505.2 547.38 1463.34 547.38 1463.34 833.17 1505.2 833.17 1505.2 547.38 1505.2 547.38"/><polygon class="b" points="1505.2 534.34 1473.67 534.34 1473.67 820.11 1505.2 820.11 1505.2 534.34 1505.2 534.34"/><polygon class="b" points="1503.57 543.03 1472.04 543.03 1472.04 820.11 1503.57 820.11 1503.57 543.03 1503.57 543.03"/><polygon class="b" points="1527.07 513.66 1497.38 513.66 1497.38 578.18 1527.07 578.18 1527.07 513.66 1527.07 513.66"/><polygon class="b" points="1516.27 505.7 1515.2 505.7 1515.2 515.96 1516.27 515.96 1516.27 505.7 1516.27 505.7"/><polygon class="b" points="1509.13 510.42 1501.55 510.42 1501.55 516.1 1509.13 516.1 1509.13 510.42 1509.13 510.42"/><polygon class="b" points="1506.69 511.65 1515.34 511.65 1515.34 515.82 1506.69 515.82 1506.69 511.65 1506.69 511.65"/><polygon class="b" points="1548.78 545.38 1530.84 545.38 1530.84 574.8 1548.78 574.8 1548.78 545.38 1548.78 545.38"/><polygon class="b" points="1533.53 548.36 1525.17 548.36 1525.17 572.5 1533.53 572.5 1533.53 548.36 1533.53 548.36"/><polygon class="b" points="1417.1 594.31 1452.03 594.31 1452.03 833.17 1417.1 833.17 1417.1 594.31 1417.1 594.31"/><polygon class="b" points="1430 591 1448.32 591 1448.32 601 1430 601 1430 591 1430 591"/><polygon class="b" points="1435.5 589.51 1447.98 589.51 1447.98 594.17 1435.5 594.17 1435.5 589.51 1435.5 589.51"/><polygon class="b" points="1444.5 585.67 1443.63 585.67 1443.63 590.84 1444.5 590.84 1444.5 585.67 1444.5 585.67"/><polygon class="b" points="1448.98 601.96 1466.81 601.96 1466.81 833.17 1448.98 833.17 1448.98 601.96 1448.98 601.96"/><polygon class="b" points="1460.15 597.51 1466.65 597.51 1466.65 608.32 1460.15 608.32 1460.15 597.51 1460.15 597.51"/><polygon class="b" points="273.03 468.98 337.7 449.49 371.56 449.49 371.56 744.09 273.03 744.09 273.03 468.98 273.03 468.98"/><polygon class="b" points="517.33 538.79 540.94 529.56 657.95 538.79 657.95 838.52 517.33 838.52 517.33 538.79 517.33 538.79"/><polygon class="b" points="691.84 713.29 807.83 713.29 807.83 867.27 691.84 867.27 691.84 713.29 691.84 713.29"/><polygon class="b" points="735.98 682.49 794.48 682.49 794.48 745.11 735.98 745.11 735.98 682.49 735.98 682.49"/><polygon class="b" points="803.72 603.47 873.52 603.47 873.52 862.14 803.72 862.14 803.72 603.47 803.72 603.47"/><polygon class="b" points="825.27 590.12 832.46 590.12 832.46 613.73 825.27 613.73 825.27 590.12 825.27 590.12"/><polygon class="b" points="878.66 596.28 829.4 596.28 829.4 614.75 878.66 614.75 878.66 596.28 878.66 596.28"/><polygon class="b" points="730.23 680.43 798.01 680.43 798.01 684.58 730.23 684.58 730.23 680.43 730.23 680.43"/><polygon class="b" points="762.56 657.65 780.43 657.65 780.43 681.86 762.56 681.86 762.56 657.65 762.56 657.65"/><polygon class="b" points="739.24 676.28 770.42 676.28 770.42 681.15 739.24 681.15 739.24 676.28 739.24 676.28"/><polygon class="b" points="750.25 668.39 770.42 668.39 770.42 677.7 750.25 677.7 750.25 668.39 750.25 668.39"/><polygon class="b" points="785.87 676.99 795.72 676.99 795.72 681.57 785.87 681.57 785.87 676.99 785.87 676.99"/><polygon class="b" points="1972.03 200.65 2032.73 200.65 2032.73 876.1 1972.03 876.1 1972.03 200.65 1972.03 200.65"/><polygon class="b" points="1972.03 203.83 2146.04 203.83 2146.04 876.1 1972.03 876.1 1972.03 203.83 1972.03 203.83"/><polygon class="b" points="2085.34 200.65 2146.04 200.65 2146.04 876.1 2085.34 876.1 2085.34 200.65 2085.34 200.65"/><polygon class="b" points="2038.27 200.65 2079.78 200.65 2079.78 876.1 2038.27 876.1 2038.27 200.65 2038.27 200.65"/><polygon class="b" points="990 663.15 1053.26 663.15 1053.26 811.71 990 811.71 990 663.15 990 663.15"/><polygon class="b" points="1043.22 704.06 1068.7 704.06 1068.7 787.39 1043.22 787.39 1043.22 704.06 1043.22 704.06"/><polygon class="b" points="1061.76 716.4 1115.78 716.4 1115.78 789.72 1061.76 789.72 1061.76 716.4 1061.76 716.4"/><polygon class="b" points="1084.13 690.93 1108.05 690.93 1108.05 731.83 1084.13 731.83 1084.13 690.93 1084.13 690.93"/><polygon class="b" points="1075.63 702.52 1089.53 702.52 1089.53 723.35 1075.63 723.35 1075.63 702.52 1075.63 702.52"/><polygon class="b" points="1196.8 706.37 1253.91 706.37 1253.91 876.15 1196.8 876.15 1196.8 706.37 1196.8 706.37"/><polygon class="b" points="1814.82 539.38 1953.85 539.38 1953.85 883.62 1814.82 883.62 1814.82 539.38 1814.82 539.38"/><polygon class="b" points="1845.09 531.81 1941.54 531.81 1941.54 557.35 1845.09 557.35 1845.09 531.81 1845.09 531.81"/><polygon class="b" points="1833.56 485.83 1711.88 485.83 1711.88 868.89 1833.56 868.89 1833.56 485.83 1833.56 485.83"/><polygon class="b" points="1838.15 535.46 1827.15 535.46 1827.15 594.68 1838.15 594.68 1838.15 535.46 1838.15 535.46"/><polygon class="b" points="1792.04 445.9 1754.27 445.9 1754.27 504.53 1792.04 504.53 1792.04 445.9 1792.04 445.9"/><polygon class="b" points="1781.82 438.44 1778.52 438.44 1778.52 441.11 1781.82 441.11 1781.82 438.44 1781.82 438.44"/><polygon class="b" points="1781.82 444.23 1778.52 444.23 1778.52 446.91 1781.82 446.91 1781.82 444.23 1781.82 444.23"/><polygon class="b" points="1781.2 440.37 1779.16 440.37 1779.16 446.91 1781.2 446.91 1781.2 440.37 1781.2 440.37"/><polygon class="b" points="1775.37 438.44 1772.05 438.44 1772.05 441.11 1775.37 441.11 1775.37 438.44 1775.37 438.44"/><polygon class="b" points="1775.37 444.23 1772.05 444.23 1772.05 446.91 1775.37 446.91 1775.37 444.23 1775.37 444.23"/><polygon class="b" points="1774.73 440.37 1772.69 440.37 1772.69 446.91 1774.73 446.91 1774.73 440.37 1774.73 440.37"/><polygon class="b" points="1793.48 454.86 1752.81 454.86 1752.81 464.96 1793.48 464.96 1793.48 454.86 1793.48 454.86"/><polygon class="b" points="1793.48 470.75 1752.81 470.75 1752.81 480.85 1793.48 480.85 1793.48 470.75 1793.48 470.75"/></g><g class="c"><polygon class="b" points="2463.85 766.68 2585.54 766.68 2585.54 879.57 2463.85 879.57 2463.85 766.68 2463.85 766.68"/><polygon class="b" points="2667.39 834.56 2626.49 834.56 2626.49 868.49 2667.39 868.49 2667.39 834.56 2667.39 834.56"/><polygon class="b" points="2575.62 794.65 2596.57 794.65 2596.57 827.09 2575.62 827.09 2575.62 794.65 2575.62 794.65"/><polygon class="b" points="207.11 632.41 357.29 632.41 357.29 874.87 207.11 874.87 207.11 632.41 207.11 632.41"/><polygon class="b" points="182.68 643.28 284.89 643.28 284.89 869.44 182.68 869.44 182.68 643.28 182.68 643.28"/><polygon class="b" points="118.44 657.75 175.43 657.75 175.43 874.87 118.44 874.87 118.44 657.75 118.44 657.75"/><polygon class="b" points="87.69 794.36 136.54 794.36 136.54 881.19 87.69 881.19 87.69 794.36 87.69 794.36"/><polygon class="b" points="160.97 687.59 225.2 687.59 225.2 876.67 160.97 876.67 160.97 687.59 160.97 687.59"/><polygon class="b" points="2375.88 199.51 2338.32 199.51 2338.32 814.89 2375.88 814.89 2375.88 199.51 2375.88 199.51"/><polygon class="b" points="2305.73 72.31 2268.19 72.31 2268.19 687.68 2305.73 687.68 2305.73 72.31 2305.73 72.31"/><polygon class="b" points="2272.24 63.55 2301.7 63.55 2301.7 74.88 2272.24 74.88 2272.24 63.55 2272.24 63.55"/><polygon class="b" points="2288.11 37.66 2285.83 37.66 2285.83 69.06 2288.11 69.06 2288.11 37.66 2288.11 37.66"/><polygon class="b" points="2276.29 54.81 2297.64 54.81 2297.64 58.68 2276.29 58.68 2276.29 54.81 2276.29 54.81"/><polygon class="b" points="2375.88 199.51 2198.05 199.51 2198.05 901.26 2375.88 901.26 2375.88 199.51 2375.88 199.51"/><polygon class="b" points="2244.62 178.85 2207.07 178.85 2207.07 794.22 2244.62 794.22 2244.62 178.85 2244.62 178.85"/><polygon class="b" points="2266.15 135.76 2228.59 135.76 2228.59 751.13 2266.15 751.13 2266.15 135.76 2266.15 135.76"/><polygon class="b" points="2285.73 115.36 2248.21 115.36 2248.21 730.74 2285.73 730.74 2285.73 115.36 2285.73 115.36"/><polygon class="b" points="2329.3 178.85 2366.84 178.85 2366.84 794.22 2329.3 794.22 2329.3 178.85 2329.3 178.85"/><polygon class="b" points="2307.77 135.76 2345.34 135.76 2345.34 751.13 2307.77 751.13 2307.77 135.76 2307.77 135.76"/><polygon class="b" points="2288.18 115.36 2325.72 115.36 2325.72 730.74 2288.18 730.74 2288.18 115.36 2288.18 115.36"/><polygon class="b" points="497.56 735.16 682.44 735.16 682.44 897.6 497.56 897.6 497.56 735.16 497.56 735.16"/><polygon class="b" points="508.23 729.81 608.7 729.81 608.7 755.47 508.23 755.47 508.23 729.81 508.23 729.81"/><polygon class="b" points="634.36 730.88 661.07 730.88 661.07 744.78 634.36 744.78 634.36 730.88 634.36 730.88"/><polygon class="b" points="678.81 768.84 797.44 768.84 797.44 843.39 678.81 843.39 678.81 768.84 678.81 768.84"/><polygon class="b" points="733.74 791.8 776.49 791.8 776.49 831.34 733.74 831.34 733.74 791.8 733.74 791.8"/><polygon class="b" points="891.92 805.7 808.56 805.7 808.56 884.77 891.92 884.77 891.92 805.7 891.92 805.7"/><polygon class="b" points="771.13 849.51 850.23 849.51 850.23 884.77 771.13 884.77 771.13 849.51 771.13 849.51"/><polygon class="b" points="678.81 768.84 804.51 768.84 804.51 773.85 678.81 773.85 678.81 768.84 678.81 768.84"/><polygon class="b" points="964.52 694.89 1043.65 694.89 1043.65 839.54 964.52 839.54 964.52 694.89 964.52 694.89"/><polygon class="b" points="1017.61 725.98 1020.2 725.98 1020.2 742.84 1017.61 742.84 1017.61 725.98 1017.61 725.98"/><polygon class="b" points="1032.52 737 1013.07 737 1013.07 745.46 1032.52 745.46 1032.52 737 1032.52 737"/><polygon class="b" points="1028.63 734.41 1026.69 734.41 1026.69 740.24 1028.63 740.24 1028.63 734.41 1028.63 734.41"/><polygon class="b" points="1052.64 773.34 1106.49 773.34 1106.49 881.01 1052.64 881.01 1052.64 773.34 1052.64 773.34"/><polygon class="b" points="1026.05 805.78 1081.19 805.78 1081.19 875.84 1026.05 875.84 1026.05 805.78 1026.05 805.78"/><polygon class="b" points="1773.2 770.04 1855.49 770.04 1855.49 813.53 1773.2 813.53 1773.2 770.04 1773.2 770.04"/><polygon class="b" points="1757.14 789.88 1787.41 789.88 1787.41 805.98 1757.14 805.98 1757.14 789.88 1757.14 789.88"/><polygon class="b" points="1417.15 684.68 1569.36 684.68 1569.36 808.45 1417.15 808.45 1417.15 684.68 1417.15 684.68"/><polygon class="b" points="1552.11 680.08 1496.06 680.08 1496.06 696.2 1552.11 696.2 1552.11 680.08 1552.11 680.08"/><polygon class="b" points="1500.64 678.05 1505.24 678.05 1505.24 680.64 1500.64 680.64 1500.64 678.05 1500.64 678.05"/><polygon class="b" points="1513.58 675.18 1515.3 675.18 1515.3 681.52 1513.58 681.52 1513.58 675.18 1513.58 675.18"/><polygon class="b" points="1524.49 677.18 1546.35 677.18 1546.35 682.09 1524.49 682.09 1524.49 677.18 1524.49 677.18"/><polygon class="b" points="1560.99 711.75 1597.82 711.75 1597.82 804.5 1560.99 804.5 1560.99 711.75 1560.99 711.75"/><polygon class="b" points="1562.2 708.89 1589.22 708.89 1592.64 716.65 1565.61 716.65 1562.2 708.89 1562.2 708.89"/><polygon class="b" points="1611.33 735.08 1648.15 735.08 1648.15 799.89 1611.33 799.89 1611.33 735.08 1611.33 735.08"/><polygon class="b" points="1587.48 763.6 1634.34 763.6 1634.34 802.77 1587.48 802.77 1587.48 763.6 1587.48 763.6"/><polygon class="b" points="1604.14 754.96 1616.79 754.96 1616.79 771.96 1604.14 771.96 1604.14 754.96 1604.14 754.96"/><polygon class="b" points="1651.02 707.43 1717.72 707.43 1717.72 799.32 1651.02 799.32 1651.02 707.43 1651.02 707.43"/><polygon class="b" points="1639.51 778.28 1666.27 778.28 1666.27 803.35 1639.51 803.35 1639.51 778.28 1639.51 778.28"/><polygon class="b" points="1750.03 753.25 1878.83 753.25 1878.83 806.79 1750.03 806.79 1750.03 753.25 1750.03 753.25"/><polygon class="b" points="1844.37 598.68 1803.2 598.68 1803.2 772.73 1844.37 772.73 1844.37 598.68 1844.37 598.68"/><polygon class="b" points="1489.59 784.44 1860.92 784.44 1860.92 896.14 1489.59 896.14 1489.59 784.44 1489.59 784.44"/><polygon class="b" points="1713.06 760.48 1728.85 760.48 1728.85 794.53 1713.06 794.53 1713.06 760.48 1713.06 760.48"/><polygon class="b" points="1980.94 483.17 2013.91 483.17 2013.91 525.51 1980.94 525.51 1980.94 483.17 1980.94 483.17"/><polygon class="b" points="2002.91 492.9 2215.03 492.9 2215.03 527.2 2002.91 527.2 2002.91 492.9 2002.91 492.9"/><polygon class="b" points="2018.55 460.32 2136.86 460.32 2136.86 499.68 2018.55 499.68 2018.55 460.32 2018.55 460.32"/><polygon class="b" points="2035.86 457.78 2130.53 457.78 2130.53 472.17 2035.86 472.17 2035.86 457.78 2035.86 457.78"/><polygon class="b" points="2081.51 442.11 2106.86 442.11 2129.26 448.03 2129.26 463.27 2081.51 463.27 2081.51 442.11 2081.51 442.11"/><polygon class="b" points="2134.33 448.89 2174.47 448.89 2174.47 510.26 2134.33 510.26 2134.33 448.89 2134.33 448.89"/><polygon class="b" points="2172.78 481.48 2212.93 481.48 2212.93 506.46 2172.78 506.46 2172.78 481.48 2172.78 481.48"/><polygon class="b" points="1835.59 526.77 1984.3 526.77 1984.3 551.32 1835.59 551.32 1835.59 526.77 1835.59 526.77"/><polygon class="b" points="1835.59 534.81 1984.3 534.81 1984.3 896.83 1830.12 896.83 1830.12 538.73 1835.59 534.81 1835.59 534.81"/><polygon class="b" points="705.15 741.91 781.09 741.91 781.09 776.7 705.15 776.7 705.15 741.91 705.15 741.91"/><polygon class="b" points="712.27 737.65 733.54 737.65 733.54 744.76 712.27 744.76 712.27 737.65 712.27 737.65"/><polygon class="b" points="813.03 772.43 854.19 772.43 854.19 854.73 813.03 854.73 813.03 772.43 813.03 772.43"/></g><polygon class="b" points="2553.91 811 2619.45 811 2619.45 885.8 2553.91 885.8 2553.91 811 2553.91 811"/><polygon class="b" points="2530.42 848.65 2585.05 848.65 2585.05 875.42 2530.42 875.42 2530.42 848.65 2530.42 848.65"/><polygon class="b" points="2685.52 847.58 2633.09 847.58 2633.09 877.61 2685.52 877.61 2685.52 847.58 2685.52 847.58"/><polygon class="b" points="2643.46 842.67 2653.84 842.67 2653.84 848.65 2643.46 848.65 2643.46 842.67 2643.46 842.67"/><polygon class="b" points="2606.86 803.88 2600.33 803.88 2600.33 814.82 2606.86 814.82 2606.86 803.88 2606.86 803.88"/><polygon class="b" points="2580.12 808.27 2586.66 808.27 2586.66 813.72 2580.12 813.72 2580.12 808.27 2580.12 808.27"/><polygon class="b" points="2609.06 821.37 2583.39 821.37 2583.39 809.36 2609.06 809.36 2609.06 821.37 2609.06 821.37"/><polygon class="b" points="1209.8 196.96 1094.92 196.96 1094.92 810.83 1209.8 810.83 1209.8 196.96 1209.8 196.96"/><polygon class="b" points="1216.64 765.41 1088.05 765.41 1088.05 771.32 1216.64 771.32 1216.64 765.41 1216.64 765.41"/><polygon class="b" points="1216.64 774.47 1088.05 774.47 1088.05 782.24 1216.64 782.24 1216.64 774.47 1216.64 774.47"/><polygon class="b" points="1214.23 767.7 1090.48 767.7 1090.48 784.81 1214.23 784.81 1214.23 767.7 1214.23 767.7"/><polygon class="b" points="1225.42 784.09 1088.05 784.09 1088.05 806.66 1225.42 806.66 1225.42 784.09 1225.42 784.09"/><polygon class="b" points="1231.31 797.17 1088.05 797.17 1088.05 890.07 1231.31 890.07 1231.31 797.17 1231.31 797.17"/><polygon class="b" points="1093.18 195.59 1098.1 195.59 1098.1 210.84 1093.18 210.84 1093.18 195.59 1093.18 195.59"/><polygon class="b" points="1202.99 195.59 1213.28 195.59 1213.28 212.14 1202.99 212.14 1202.99 195.59 1202.99 195.59"/><polygon class="b" points="1099.18 193.23 1124.71 193.23 1124.71 201.18 1099.18 201.18 1099.18 193.23 1099.18 193.23"/><polygon class="b" points="1107.12 190.44 1178.97 190.44 1178.97 201.18 1107.12 201.18 1107.12 190.44 1107.12 190.44"/><polygon class="b" points="1178.54 178.4 1202.77 178.4 1202.77 211.06 1178.54 211.06 1178.54 178.4 1178.54 178.4"/><polygon class="b" points="1181.53 171.28 1191.95 171.28 1191.95 181.06 1181.53 181.06 1181.53 171.28 1181.53 171.28"/><polygon class="b" points="1189.73 173.44 1194.67 173.44 1194.67 179.76 1189.73 179.76 1189.73 173.44 1189.73 173.44"/><polygon class="b" points="1192.99 174.74 1197.13 174.74 1197.13 179.97 1192.99 179.97 1192.99 174.74 1192.99 174.74"/><polygon class="b" points="1200.28 182.52 1204.05 182.52 1204.05 178.4 1200.28 178.4 1200.28 182.52 1200.28 182.52"/><polygon class="b" points="1178.54 186.36 1145.09 183.14 1145.09 193.46 1178.54 193.46 1178.54 186.36 1178.54 186.36"/><polygon class="b" points="1165.45 179.92 1204.94 179.92 1204.94 198.61 1165.45 198.61 1165.45 179.92 1165.45 179.92"/><polygon class="b" points="1165.45 182.59 1157.73 181.86 1157.73 192.16 1165.45 192.16 1165.45 182.59 1165.45 182.59"/><polygon class="b" points="1127.72 188.5 1146.15 188.5 1146.15 194.1 1127.72 194.1 1127.72 188.5 1127.72 188.5"/><polygon class="b" points="1132.44 185.28 1141.44 185.28 1141.44 190.22 1132.44 190.22 1132.44 185.28 1132.44 185.28"/><polygon class="b" points="1139.08 187.21 1147.88 187.21 1147.88 190.02 1139.08 190.02 1139.08 187.21 1139.08 187.21"/><polygon class="b" points="1131.15 181.2 1129.64 181.2 1129.64 189.8 1131.15 189.8 1131.15 181.2 1131.15 181.2"/><polygon class="b" points="1139.08 178.19 1140.81 178.19 1140.81 189.57 1139.08 189.57 1139.08 178.19 1139.08 178.19"/><polygon class="b" points="1147.67 176.03 1149.37 176.03 1149.37 185.71 1147.67 185.71 1147.67 176.03 1147.67 176.03"/><polygon class="b" points="1151.2 187.24 1152.75 42.3 1154.33 187.24 1151.2 187.24 1151.2 187.24"/><polygon class="b" points="496.38 177.18 444.32 177.18 444.32 879.5 519.86 879.5 519.86 188.42 496.38 177.18 496.38 177.18"/><polygon class="b" points="462.68 879.5 406.55 879.5 406.55 181.28 462.68 181.28 462.68 879.5 462.68 879.5"/><polygon class="b" points="448.1 161.5 449.11 161.5 449.11 180.19 448.1 180.19 448.1 161.5 448.1 161.5"/><polygon class="b" points="449.26 173.58 453.55 173.58 453.55 179.03 449.26 179.03 449.26 173.58 449.26 173.58"/><polygon class="b" points="457.58 166.39 459.02 166.39 459.02 179.46 457.58 179.46 457.58 166.39 457.58 166.39"/><polygon class="b" points="467.92 174.29 457.44 174.29 457.44 179.3 467.92 179.3 467.92 174.29 467.92 174.29"/><polygon class="b" points="425.94 879.5 369.8 879.5 369.8 188.42 425.94 188.42 425.94 879.5 425.94 879.5"/><polygon class="b" points="425.94 879.5 334.5 879.5 334.5 717.2 425.94 717.2 425.94 879.5 425.94 879.5"/><polygon class="b" points="409.61 879.5 318.17 879.5 318.17 724.32 409.61 724.32 409.61 879.5 409.61 879.5"/><polygon class="b" points="402.46 879.5 346.32 879.5 346.32 554.89 402.46 554.89 402.46 879.5 402.46 879.5"/><polygon class="b" points="411.65 879.5 355.5 879.5 355.5 388.5 411.65 388.5 411.65 879.5 411.65 879.5"/><polygon class="b" points="418.8 879.5 362.64 879.5 362.64 221.09 370.37 210.1 418.8 210.1 418.8 879.5 418.8 879.5"/><polygon class="b" points="2347.63 715.62 2539.82 715.62 2539.82 891.78 2347.63 891.78 2347.63 715.62 2347.63 715.62"/><polygon class="b" points="2356.94 710.58 2422.64 710.58 2422.64 723.63 2356.94 723.63 2356.94 710.58 2356.94 710.58"/><polygon class="b" points="2373.72 704.06 2524.71 704.06 2524.71 730.61 2373.72 730.61 2373.72 704.06 2373.72 704.06"/><polygon class="b" points="0 903.25 2703.3 903.25 2703.3 868.37 0 868.37 0 903.25 0 903.25"/><polygon class="b" points="2285.51 513.08 1956.03 513.08 1956.03 900.51 2285.51 900.51 2285.51 513.08 2285.51 513.08"/><polygon class="b" points="2192.38 503.61 2092.57 503.61 2092.57 524.48 2192.38 524.48 2192.38 503.61 2192.38 503.61"/><polygon class="b" points="2046.64 496.46 2135.74 496.46 2135.74 519.02 2006.85 519.02 2046.64 496.46 2046.64 496.46"/><polygon class="b" points="2025.59 499.18 2034.65 499.18 2034.65 510.14 2025.59 510.14 2025.59 499.18 2025.59 499.18"/><polygon class="b" points="2081.81 493.31 2099.52 493.31 2101.41 500.68 2081.81 500.68 2081.81 493.31 2081.81 493.31"/><polygon class="b" points="108.61 834.37 247.73 834.37 247.73 878.6 108.61 878.6 108.61 834.37 108.61 834.37"/><polygon class="b" points="271.49 806.34 329.71 806.34 329.71 879.67 271.49 879.67 271.49 806.34 271.49 806.34"/><polygon class="b" points="228.34 855.65 293.07 855.65 293.07 873.99 228.34 873.99 228.34 855.65 228.34 855.65"/><polygon class="b" points="194.9 817.12 125.86 817.12 125.86 847.31 194.9 847.31 194.9 817.12 194.9 817.12"/><polygon class="b" points="547.29 783.67 778.78 783.67 778.78 872.11 547.29 872.11 547.29 783.67 547.29 783.67"/><polygon class="b" points="627.99 762.1 698.1 762.1 698.1 820.35 627.99 820.35 627.99 762.1 627.99 762.1"/><polygon class="b" points="543.19 781.41 613.28 781.41 613.28 794.22 543.19 794.22 543.19 781.41 543.19 781.41"/><polygon class="b" points="712.79 781.41 782.9 781.41 782.9 794.22 712.79 794.22 712.79 781.41 712.79 781.41"/><polygon class="b" points="772.67 827.37 802.28 827.37 802.28 871.16 772.67 871.16 772.67 827.37 772.67 827.37"/><polygon class="b" points="505.2 840.24 536.75 840.24 536.75 869.53 505.2 869.53 505.2 840.24 505.2 840.24"/><polygon class="b" points="532.9 853.44 565.07 853.44 565.07 871.57 532.9 871.57 532.9 853.44 532.9 853.44"/><polygon class="b" points="826.43 743.68 876.33 743.68 876.33 869.86 826.43 869.86 826.43 743.68 826.43 743.68"/><polygon class="b" points="821.6 736.61 880.82 736.61 880.82 751.73 821.6 751.73 821.6 736.61 821.6 736.61"/><polygon class="b" points="825.14 763.96 837.37 763.96 837.37 784.57 825.14 784.57 825.14 763.96 825.14 763.96"/><polygon class="b" points="825.14 790.67 837.37 790.67 837.37 811.27 825.14 811.27 825.14 790.67 825.14 790.67"/><polygon class="b" points="825.14 817.39 837.37 817.39 837.37 837.99 825.14 837.99 825.14 817.39 825.14 817.39"/><polygon class="b" points="792.29 854.01 845.08 854.01 845.08 873.66 792.29 873.66 792.29 854.01 792.29 854.01"/><polygon class="b" points="804.53 830.26 821.91 830.26 821.91 855.36 804.53 855.36 804.53 830.26 804.53 830.26"/><polygon class="b" points="837.92 672.12 882.76 672.12 882.76 771.01 837.92 771.01 837.92 672.12 837.92 672.12"/><polygon class="b" points="969.79 797.37 1029.13 797.37 1029.13 891 969.79 891 969.79 797.37 969.79 797.37"/><polygon class="b" points="1081.95 755.72 1046.26 755.72 1046.26 876.5 1081.95 876.5 1081.95 755.72 1081.95 755.72"/><polygon class="b" points="1015.92 823.75 1047.58 823.75 1047.58 869.91 1015.92 869.91 1015.92 823.75 1015.92 823.75"/><polygon class="b" points="1247.66 589.61 1451.26 589.61 1451.26 877.6 1247.66 877.6 1247.66 589.61 1247.66 589.61"/><polygon class="b" points="1271.22 580.95 1287.14 580.95 1287.14 594.43 1271.22 594.43 1271.22 580.95 1271.22 580.95"/><polygon class="b" points="1281.76 584.6 1407.28 584.6 1407.28 599.09 1281.76 599.09 1281.76 584.6 1281.76 584.6"/><polygon class="b" points="1291.81 567.45 1394.29 567.45 1394.29 594.94 1291.81 594.94 1291.81 567.45 1291.81 567.45"/><polygon class="b" points="1327.13 563.28 1353.09 563.28 1353.09 571.62 1327.13 571.62 1327.13 563.28 1327.13 563.28"/><polygon class="b" points="1332.52 561.34 1348.44 561.34 1348.44 565 1332.52 565 1332.52 561.34 1332.52 561.34"/><polygon class="b" points="1352.61 560.6 1397.71 560.6 1397.71 587.26 1352.61 587.26 1352.61 560.6 1352.61 560.6"/><polygon class="b" points="1396 566.72 1432.05 566.72 1432.05 631.44 1396 631.44 1396 566.72 1396 566.72"/><polygon class="b" points="1426.4 576.93 1458.28 576.93 1458.28 877.6 1426.4 877.6 1426.4 576.93 1426.4 576.93"/><polygon class="b" points="1623.77 703.75 1689.7 703.75 1689.7 892.3 1623.77 892.3 1623.77 703.75 1623.77 703.75"/><polygon class="b" points="1626.79 699.25 1677.79 699.25 1677.79 711.49 1626.79 711.49 1626.79 699.25 1626.79 699.25"/><polygon class="b" points="1687.43 700.55 1683.15 700.55 1683.15 706.13 1687.43 706.13 1687.43 700.55 1687.43 700.55"/><polygon class="b" points="1687.43 727.16 1696.23 727.16 1696.23 794.56 1687.43 794.56 1687.43 727.16 1687.43 727.16"/><polygon class="b" points="1534.83 776.86 1588.45 776.86 1588.45 875.67 1534.83 875.67 1534.83 776.86 1534.83 776.86"/><polygon class="b" points="1532.81 769.6 1556.47 769.6 1556.47 873.61 1532.81 873.61 1532.81 769.6 1532.81 769.6"/><polygon class="b" points="1437.87 793.41 1522.26 793.41 1522.26 900.78 1437.87 900.78 1437.87 793.41 1437.87 793.41"/><polygon class="b" points="1521.5 798.18 1524.94 798.18 1524.94 802.63 1521.5 802.63 1521.5 798.18 1521.5 798.18"/><polygon class="b" points="1521.5 807.66 1524.94 807.66 1524.94 812.11 1521.5 812.11 1521.5 807.66 1521.5 807.66"/><polygon class="b" points="1521.5 817.11 1524.94 817.11 1524.94 821.56 1521.5 821.56 1521.5 817.11 1521.5 817.11"/><polygon class="b" points="1521.5 826.57 1524.94 826.57 1524.94 831.04 1521.5 831.04 1521.5 826.57 1521.5 826.57"/><polygon class="b" points="1521.5 836.03 1524.94 836.03 1524.94 840.47 1521.5 840.47 1521.5 836.03 1521.5 836.03"/><polygon class="b" points="1521.5 845.5 1524.94 845.5 1524.94 849.95 1521.5 849.95 1521.5 845.5 1521.5 845.5"/><polygon class="b" points="1521.5 854.96 1524.94 854.96 1524.94 859.42 1521.5 859.42 1521.5 854.96 1521.5 854.96"/><polygon class="b" points="1521.5 864.41 1524.94 864.41 1524.94 868.86 1521.5 868.86 1521.5 864.41 1521.5 864.41"/><polygon class="b" points="1462.56 791.71 1488.36 791.71 1488.36 798.48 1462.56 798.48 1462.56 791.71 1462.56 791.71"/><polygon class="b" points="1497.27 783.1 1498.83 783.1 1498.83 798.9 1497.27 798.9 1497.27 783.1 1497.27 783.1"/><polygon class="b" points="1498.41 788.86 1506.74 788.86 1506.74 797.76 1498.41 797.76 1498.41 788.86 1498.41 788.86"/><polygon class="b" points="1513.32 785.98 1511.47 785.98 1511.47 796.33 1513.32 796.33 1513.32 785.98 1513.32 785.98"/><polygon class="b" points="1582.59 839.29 1619.86 839.29 1619.86 869.44 1582.59 869.44 1582.59 839.29 1582.59 839.29"/><polygon class="b" points="1611.58 825.75 1643.64 825.75 1643.64 875.14 1611.58 875.14 1611.58 825.75 1611.58 825.75"/><polygon class="b" points="1703.57 817.35 1734.06 817.35 1734.06 875.67 1703.57 875.67 1703.57 817.35 1703.57 817.35"/><polygon class="b" points="1724.07 842.03 1774.02 842.03 1774.02 879.36 1724.07 879.36 1724.07 842.03 1724.07 842.03"/><polygon class="b" points="1758.24 792.63 1787.68 792.63 1787.68 891.97 1758.24 891.97 1758.24 792.63 1758.24 792.63"/><polygon class="b" points="1783.47 783.68 1760.85 783.68 1760.85 807.34 1783.47 807.34 1783.47 783.68 1783.47 783.68"/><polygon class="b" points="1812.39 722.18 1876.01 722.18 1876.01 897.23 1812.39 897.23 1812.39 722.18 1812.39 722.18"/><polygon class="b" points="1887.77 704.53 1868.75 704.53 1868.75 878.18 1887.77 878.18 1887.77 704.53 1887.77 704.53"/><polygon class="b" points="1807.89 719.8 1839.95 719.8 1839.95 727.4 1807.89 727.4 1807.89 719.8 1807.89 719.8"/><polygon class="b" points="1885.6 804.7 1923.09 804.7 1923.09 869.46 1885.6 869.46 1885.6 804.7 1885.6 804.7"/><polygon class="b" points="1936.12 699.1 1977.95 699.1 1977.95 878.18 1936.12 878.18 1936.12 699.1 1936.12 699.1"/><polygon class="b" points="2257.76 772.85 2315.65 772.85 2315.65 884.92 2257.76 884.92 2257.76 772.85 2257.76 772.85"/><polygon class="b" points="2278.93 767.77 2320.05 767.77 2320.05 776.3 2278.93 776.3 2278.93 767.77 2278.93 767.77"/><polygon class="b" points="2323.83 821.29 2360.24 821.29 2360.24 878.11 2323.83 878.11 2323.83 821.29 2323.83 821.29"/><polygon class="b" points="2328.55 804.24 2354.03 804.24 2354.03 831.24 2328.55 831.24 2328.55 804.24 2328.55 804.24"/><polygon class="b" points="2320.52 818.92 2335.65 818.92 2335.65 830.28 2320.52 830.28 2320.52 818.92 2320.52 818.92"/><polygon class="b" points="859.74 104.89 1017.05 104.89 1017.05 877.69 859.74 877.69 859.74 104.89 859.74 104.89"/><polygon class="b" points="882.02 74.7 994.77 74.7 994.77 112.96 882.02 112.96 882.02 74.7 882.02 74.7"/><polygon class="b" points="898.15 58.41 978.64 58.41 978.64 83.13 898.15 83.13 898.15 58.41 898.15 58.41"/><polygon class="b" points="902.12 52.86 974.68 52.86 974.68 65.5 902.12 65.5 902.12 52.86 902.12 52.86"/><polygon class="b" points="901.33 50.37 975.46 50.37 975.46 53.62 901.33 53.62 901.33 50.37 901.33 50.37"/><path class="b" d="M583.77,581.58c6.84,0,12.42,6.58,12.42,14.66s-5.58,14.64-12.42,14.64-12.42-6.58-12.42-14.64,5.58-14.66,12.42-14.66h0Z" transform="translate(312.56 -520.41)"/><path class="b" d="M667.91,581.58c6.84,0,12.42,6.58,12.42,14.66s-5.59,14.64-12.42,14.64-12.42-6.58-12.42-14.64,5.59-14.66,12.42-14.66h0Z" transform="translate(312.56 -520.41)"/><polygon class="b" points="875.55 92.97 1001.23 92.97 1001.23 116.58 875.55 116.58 875.55 92.97 875.55 92.97"/><polygon class="b" points="920.87 9.19 955.93 9.19 955.93 14.51 920.87 14.51 920.87 9.19 920.87 9.19"/><path class="b" d="M655,520.41a3.25,3.25,0,1,1-3.27,3.25,3.25,3.25,0,0,1,3.27-3.25h0Z" transform="translate(312.56 -520.41)"/><polygon class="b" points="972.61 9.52 972.61 51.97 962.6 51.97 962.6 9.52 959.69 9.52 959.69 8.26 966.26 5.68 968.94 5.68 975.51 8.26 975.51 9.52 972.61 9.52 972.61 9.52"/><polygon class="b" points="966.68 14.65 976.55 14.65 976.55 15.81 966.68 20.58 966.68 14.65 966.68 14.65"/><path class="b" d="M596.63,520.41a3.26,3.26,0,1,0,3.26,3.25,3.27,3.27,0,0,0-3.26-3.25h0Z" transform="translate(312.56 -520.41)"/><polygon class="b" points="904.18 9.52 904.18 51.97 914.19 51.97 914.19 9.52 917.11 9.52 917.11 8.26 910.52 5.7 907.84 5.7 901.28 8.26 901.28 9.52 904.18 9.52 904.18 9.52"/><polygon class="b" points="910.14 14.65 900.24 14.65 900.24 15.81 910.14 20.58 910.14 14.65 910.14 14.65"/><polygon class="b" points="913.94 10.61 962.84 10.61 962.84 52.31 913.94 52.31 913.94 10.61 913.94 10.61"/><polygon class="b" points="940.38 7.76 953.87 7.76 953.87 14.27 940.38 14.27 940.38 7.76 940.38 7.76"/><polygon class="b" points="922.93 7.76 936.41 7.76 936.41 14.27 922.93 14.27 922.93 7.76 922.93 7.76"/><polygon class="b" points="856.01 108.84 1020.78 108.84 1020.78 877.69 856.01 877.69 856.01 108.84 856.01 108.84"/><path class="b" d="M661.41,546.79a3.25,3.25,0,1,1-3.23,3.25,3.24,3.24,0,0,1,3.23-3.25h0Z" transform="translate(312.56 -520.41)"/><polygon class="b" points="978.97 35.92 978.97 78.35 968.98 78.35 968.98 35.92 966.08 35.92 966.08 34.63 972.64 32.09 975.3 32.09 981.88 34.63 981.88 35.92 978.97 35.92 978.97 35.92"/><polygon class="b" points="973.06 41.03 982.93 41.03 982.93 42.2 973.06 46.96 973.06 41.03 973.06 41.03"/><polygon class="b" points="927.39 77.77 998.78 77.77 1019.73 111.62 1019.73 796.93 927.39 796.93 927.39 77.77 927.39 77.77"/><polygon class="b" points="851.18 758.18 1025.59 758.18 1025.59 877.69 851.18 877.69 851.18 758.18 851.18 758.18"/><polygon class="b" points="944.99 115.33 1016.38 115.33 1037.32 149.2 1037.32 877.69 944.99 877.69 944.99 115.33 944.99 115.33"/><rect class="d" y="868.37" width="2703.3" height="240.53"/></svg>