<?xml version="1.0" encoding="utf-8"?>
<!-- Generator: Adobe Illustrator 19.2.1, SVG Export Plug-In . SVG Version: 6.00 Build 0)  -->
<svg version="1.1" id="Layer_1" xmlns="http://www.w3.org/2000/svg" xmlns:xlink="http://www.w3.org/1999/xlink" x="0px" y="0px"
	 width="1008px" height="1008px" viewBox="0 0 1008 1008" style="enable-background:new 0 0 1008 1008;" xml:space="preserve">
<style type="text/css">
	.st0{fill:#EA1E25;}
	.st1{fill:#FFFFFF;}
	.st2{fill:#01BBF0;}
	.st3{fill:#007CB7;}
	.st4{fill:#B2D136;}
	.st5{fill:#6EB372;}
</style>
<path class="st0" d="M507.2,8c38.4,66.7,76.8,133.4,115.3,199.8c2.9,5,3.5,7-3.3,8.7c-62.4,17.6-124.8,35.7-187,53.5
	c-27.5,7.9-55,15.9-82.6,23.8c-2.5,0.8-4.8,2.1-8.5,1.2c3.7-6.6,7.2-12.8,10.7-19c18-31.2,36.1-62.4,53.9-93.4
	C438.2,126,471,69.6,503.5,13c1-1.6,1.4-3.5,2.1-5C506.2,8,506.6,8,507.2,8z"/>
<path class="st1" d="M6.2,842c1.6-6.6,2.7-13.4,4.5-20c10.1-39.2,45.7-64.5,86.1-61.8c16.1,1,31.4,3.9,45.5,11.8
	c3.9,2.3,5.2,4.8,4.3,9.3c-1.6,6.8-2.5,13.8-3.9,21.5c-14.9-10.9-30.6-17.4-48.7-17.6c-20.9-0.2-38.2,7.4-48.1,26
	c-15.7,29.7-16.1,60.3-0.4,89.9c11.6,21.7,32,28.3,55.6,25.8c16.3-1.7,30.2-8.9,44-19c2.5,8.9,2.7,17.4,3.9,26
	c0.4,2.9-2.3,3.9-4.3,5c-18.2,11.4-38.4,15.3-59.3,13.4c-44-4.3-71.5-31.4-78.3-75.8c-0.2-1.6,0.4-3.5-1.4-4.5
	C6.2,862,6.2,851.9,6.2,842z"/>
<path class="st1" d="M1002.3,820.7c-7.8,20.4-15.5,40.7-23.1,61.1c-10.5,27.9-20.5,56-31.2,83.9c-8.7,22.9-25.2,33.3-48.1,31.8
	c-4.7-0.4-6.8-1.9-7.2-6.6c-0.4-4.5-1-8.9-1.9-13.4c-0.8-3.5,0.2-4.3,3.5-3.3c2.7,0.8,5.6,1.2,8.3,1.4c8.5,0.6,15.3-2.5,19.6-10.1
	c5.2-9.3,6.4-18,2.1-28.9C909.6,899,896,860.8,882,822.8c-0.4-0.8-0.4-1.7-0.6-3.3c8.1,0,15.9,0.2,23.6,0c4.1-0.2,4.5,2.7,5.4,5.4
	c9.7,28.1,19.4,56.4,29.1,84.5c0.6,1.6,1.2,3.1,1.7,5.2c2.7-2.7,3.1-6,4.1-8.9c8.9-26.7,18-53.3,26.7-80c1.6-4.5,3.5-6.6,8.5-6.2
	c7,0.6,14.1,0,21.3,0C1002.3,819.7,1002.3,820.1,1002.3,820.7z"/>
<path class="st2" d="M428.5,342.3c19-11,39-20,58.5-29.8c46.7-23.6,93.2-46.9,139.9-70.6c11.2-5.6,11.4-5.8,17.6,5
	c31.6,54.7,63,109.5,94.4,164.2c1.6,2.5,4.1,4.7,4.3,7.9c-2.5,5.4-7.4,3.1-10.9,2.3c-10.9-2.7-21.7-4.8-32.6-7.8
	c-25.6-6.6-51.6-12.6-77.1-19.2c-22.1-5.6-44.2-11-66.1-16.7c-31-7.9-61.8-15.9-93-23.1c-9.5-2.1-18.4-5.8-28.1-7.6
	C433,346.8,429.9,345.6,428.5,342.3z"/>
<path class="st3" d="M428.5,342.3c11.8,5.4,24.8,7.2,37.2,11c11,3.5,22.5,5.4,33.5,8.1c30.6,7.6,61.2,14.9,91.9,22.7
	c24,6,47.9,12.4,71.7,18.4c19.8,5,39.7,9.5,59.7,14.1c3.7,1,7.2,2.3,10.9,3.3c3.3,0.8,6.8,2.1,10.1-0.8c2.5,3.5,0,3.9-2.5,4.1
	c-4.1,0.2-8.1,0-12,0c-149.4,0-299.1,0-448.5,0c-2.5,0-5.2-0.2-7.8-0.2c-3.3-5.2,3.5-3.9,4.1-6.6c16.5-9.3,33.9-16.7,50.6-25.8
	c22.9-12.4,46.7-22.9,69.6-35.5c7-3.9,14.7-6.4,21.7-10.7c2.1-1.4,4.5-1.7,6.8-1.6C426.4,342.9,427.5,342.5,428.5,342.3z"/>
<path class="st1" d="M320.5,835.4c11.4-9.3,22.9-16.9,37.2-18c15.5-1.4,29.5,1.6,37.8,16.5c2.1,3.9,3.5,1.4,5.2,0
	c10.5-8.9,22.3-15.1,36.2-16.7c25.2-2.5,41.5,11.4,41.7,36.6c0.4,30,0,60.3,0.2,90.3c0,5-1.9,6-6.2,5.8c-4.7-0.2-9.5-0.4-14.1,0
	c-5,0.4-6.4-1.4-6.4-6.4c0.2-25.6,0.2-51.2,0-76.8c0-2.9,0-5.6-0.4-8.5c-1.6-13.8-12-20.5-25.4-16.9c-9.9,2.9-17.4,9.3-24.2,16.9
	c-2.1,2.1-1.6,4.8-1.6,7.4c0,25.4-0.4,50.8,0.2,76.2c0.2,7.2-2.1,9.1-8.7,8.3c-3.9-0.6-8.1-0.4-12,0c-5.2,0.6-6.4-1.7-6.4-6.4
	c0.2-24.6,0.2-49.2,0-74c0-2.9,0-5.6-0.2-8.5c-1.2-17.1-13.4-24.8-29.3-18.4c-8.3,3.3-14.7,9.3-20.7,15.7c-2.1,2.1-1.6,4.8-1.6,7.4
	c0,25.8-0.2,51.8,0.2,77.5c0,5.2-1.4,7.4-6.8,6.8c-6.6-0.8-15.3,2.9-19-1.6c-3.3-3.7-1.2-12.2-1.2-18.6c0-34.3,0.2-68.8-0.2-103.1
	c0-6,1.7-7.9,7.6-7.2c4.8,0.6,10.9-1.4,14.5,1C320.9,822.6,318.6,829.6,320.5,835.4z"/>
<path class="st1" d="M77.5,715.7c-10.7-0.2-27.5-2.5-43.6-9.9c-3.9-1.7-5.4-3.7-4.5-8.1c1.4-5.6,1.9-11.2,2.5-16.9
	c0.4-4.8,1.9-4.7,5.6-2.5c18.2,10.3,38,14.3,58.9,11.8c1.4-0.2,2.9-0.4,4.3-0.8c11.2-3.1,21.3-7.8,23.5-20.7s-5-20.9-15.3-27.1
	c-11.2-7-23.6-11.8-35.9-17.3c-12.2-5.4-24-11.6-32.4-22.5c-16.9-21.7-16.1-63.6,28.7-75.2c22.9-6,45.5-3.7,67.5,6
	c3.9,1.7,5.4,3.9,4.5,8.1c-1.2,5.2-2.1,10.7-2.7,16.1c-0.4,4.1-1.7,4.7-5.2,2.7c-14.1-8.1-29.5-11.4-45.7-10.7
	c-6.2,0.4-12.2,1.9-17.6,4.8c-12.8,7.2-14.9,23.8-4.1,33.7c8.1,7.6,18.6,11,28.7,15.5c12.8,5.6,26,10.3,37.4,18.8
	c31.6,23.5,27.5,69-7.9,86.6C112.8,713.5,101.5,715.7,77.5,715.7z"/>
<path class="st1" d="M555.6,597.6c11.4-8.7,22.3-15.1,35.5-16.9c26.9-3.5,44.2,11.4,44.4,38.6c0,28.9,0,57.8,0.2,86.8
	c0,4.8-0.8,7.6-6.4,7c-6.2-0.8-14.5,2.5-18.6-1.4s-1.4-12-1.4-18.4c-0.2-20.9,0-41.7,0-62.6c0-2.5,0-5.2-0.4-7.8
	c-1.9-15.1-12-22.1-26.7-18.2c-10.5,2.7-18.2,9.9-25.4,17.6c-1.9,1.9-1.2,4.5-1.2,6.8c0,25.8-0.2,51.8,0,77.5c0,4.8-1.2,6.8-6.2,6.4
	c-4.8-0.4-9.9-0.4-14.9,0c-4.5,0.4-5.6-1.6-5.6-5.8c0.2-59.1,0.2-118,0-177.2c0-4.1,1.2-6,5.2-6.8c5.6-1.2,11-2.7,16.3-4.7
	c4.3-1.7,5.2-0.6,5,3.7c-0.2,22.3,0,44.6,0,66.9C555.6,591.6,555.6,593.9,555.6,597.6z"/>
<path class="st1" d="M788,835.2c11.6-9.1,23.1-16.3,37.2-18c25.4-2.9,42.6,10.1,43.6,35.5c1.2,30.8,0.4,61.6,0.6,92.5
	c0,3.3-1.4,4.5-4.7,4.7c-22.3,1.7-22.3,1.7-22.3-20.2c0-20.9,0.2-41.7,0-62.6c-0.2-8.9,0-18.6-9.3-23.8c-9.9-5.6-19.2-2.3-28.1,2.9
	c-5.2,3.1-9.3,7.4-13.6,11.4c-2.7,2.5-2.3,5.4-2.3,8.5c0,25.4-0.2,50.8,0.2,76.2c0,5.6-1,8.3-7.4,7.6c-6.2-0.8-14.7,2.7-18.2-1.6
	c-3.1-3.7-1-11.8-1-17.8c0-35.1,0-70.2-0.2-105.2c0-5,1.6-6.4,6-5.8c0.4,0,1,0,1.4,0C785.5,819.4,785.5,819.4,788,835.2z"/>
<path class="st1" d="M410.7,648.2c0,19.8,0,39.3,0,59.1c0,4.1-0.8,6.4-5.4,5.8c-1.6-0.2-3.3,0-5,0c-11.6,0-11.8,0-14-11.6
	c-1-5.6-3.1-2.1-5-0.8c-11,8.5-23.1,15.1-37.4,15.1c-24.8,0.2-39.2-12.2-39.7-37c-0.8-30.2-0.2-60.7-0.4-91.1c0-3.9,1.6-4.8,5-4.7
	c5.2,0.2,10.5,0.4,15.7,0c5-0.4,6.4,1.4,6.4,6.4c-0.2,23.5-0.2,46.9-0.2,70.4c0,2.1,0,4.3,0,6.4c0,9.3,0.4,18.6,9.7,23.5
	c9.9,5.2,19.4,2.3,28.1-3.5c1.2-0.8,2.3-1.6,3.5-2.3c8.1-5.6,13-12,12.4-23.5c-1.2-23.6-0.2-47.5-0.4-71.1c0-4.8,1-7,6.2-6.4
	c4.8,0.4,9.9,0.4,14.9,0c4.7-0.4,5.6,1.6,5.4,5.6C410.7,608.5,410.7,628.2,410.7,648.2z"/>
<path class="st1" d="M901.8,598.6c11-8.5,21.7-15.7,35.3-17.6c27.7-4.1,45.7,9.9,46.3,37.8c0.8,29.7,0.2,59.3,0.2,88.8
	c0,4.3-1.6,5.4-5.4,5c-7-0.6-15.9,2.9-20.5-1.6c-3.9-3.9-1.2-12.6-1.2-19.2c-0.2-20.2,0-40.3,0-60.5c0-2.5,0-5.2-0.2-7.8
	c-1.4-15.9-12.6-23.6-27.9-18.8c-9.9,3.1-17.3,9.7-24,17.1c-1.9,2.1-1.6,4.8-1.6,7.4c0,25.6-0.2,51.2,0.2,76.8
	c0,5.4-1.4,7.2-6.8,6.6c-6.2-0.8-14.5,2.5-18.4-1.4c-4.1-3.9-1.2-12.2-1.2-18.4c-0.2-34.7,0-69.2-0.2-103.9c0-5.4,1.4-6.8,6.8-6.8
	C898.5,583.1,898.5,582.7,901.8,598.6z"/>
<path class="st1" d="M449.6,647.2c0-11.8-0.2-23.6,0-35.7c0.2-5-1.7-6.4-6.6-6.4c-12.6,0.2-12.6,0-12.6-12.8c0-11-1.4-9.5,9.9-9.7
	c9.1,0,9.1,0,9.1-9.3c0-7.2,0.2-14.1,0-21.3c-0.2-3.9,1.2-5.6,4.8-6.4c7-1.6,15.9-7,20-4.3c4.5,2.9,1.2,13,1.6,20
	c0.2,5.4,0.2,10.9,0,16.3c-0.2,3.7,1.2,5,4.8,4.8c6-0.2,11.8,0,17.8-0.2c3.5-0.2,5.2,1,5.6,4.7c0.4,4.1,0.8,8.1,1.9,11.8
	c1.7,5.6-0.8,6.4-5.4,6c-6.4-0.4-12.8,0.2-19.2-0.2c-4.5-0.2-5.6,1.6-5.6,5.8c0.2,20.4,0,40.7,0,61.2c0,14.1,5.8,20.2,19.6,18.2
	c7.8-1.2,9.5,1.4,10.3,8.3c1.7,16.7,1.9,16.7-15.3,16.9c-2.3,0-4.7,0-7.2,0c-20.4-0.6-32.8-12.4-33.5-32.8
	C449.2,670.9,449.6,659.1,449.6,647.2L449.6,647.2z"/>
<path class="st4" d="M425.4,343.1c-22.1,11-44.4,22.3-66.5,33.3c-16.9,8.5-33.5,17.1-50.4,25.6c-10.7,5.4-21.1,10.5-31.8,15.9
	c-2.1,1.2-4.1,1.2-6.2-0.2c5.6-12.6,13.4-24.2,20.2-36.2c11-19.4,22.5-38.6,33.5-58c2.5-4.7,5-5.2,10.3-3.9
	c28.1,7.4,56.2,14.1,84.3,21.3C420.9,341.6,423.1,342.3,425.4,343.1z"/>
<path class="st1" d="M815,604.8c6.6-8.5,13.8-15.3,22.9-19.6c6.4-3.1,14.9-7.2,20.2-3.7c5.2,3.5,2.9,13.2,4.7,20
	c0.8,3.5-2.1,2.9-4.1,3.1c-17.3,1-29.7,9.9-39.5,23.5c-2.3,3.3-3.3,6.6-3.3,10.5c0.2,22.3-0.2,44.6,0.2,66.9
	c0.2,6.6-1.9,8.1-7.9,7.6c-4.7-0.4-9.5-0.2-14.1,0c-3.7,0.2-5-1-5-4.8c0.2-40.1,0-80.2,0-120.2c0-3.5,0.8-4.8,4.7-5
	c16.9-0.8,16.9-1,19.8,15.9C813.5,600.5,814.3,602.3,815,604.8z"/>
<path class="st5" d="M270.5,417.9c2.1,0,4.1,0.2,6.2,0.2c0.4,3.3-5,1.4-4.3,5C264.1,424.1,270.5,419.9,270.5,417.9z"/>
<path class="st1" d="M617,861.2c-3.9-19.2-12.4-35.3-32.2-41.7c-20.7-6.6-39.3-1.7-54.9,13.6c-0.6,0.6-1.6,1-2.3,1.4
	c-3.3-15.7-3.3-15.5-19-15.3c-4.5,0-5.6,1.6-5.6,5.8c0.2,16.3,0.2,32.8,0,49c0,42.1-0.2,83.9-0.2,126c1,0,1.9,0,2.9,0
	c4.8-3.3,10.5-4.1,15.9-5c7-1.2,8.7-4.5,8.3-11c-0.6-9.5-0.2-19-0.2-28.5c0-8.1,0-8.1,7.8-5.8c34.3,10.1,66.9-5.8,77.9-38.6
	C621,894.6,620.3,877.9,617,861.2z M591.5,895.9c-4.7,26-21.9,37.4-48.7,32.6c-13.2-2.3-13.2-2.3-13.2-15.5
	c0-16.7,0.2-33.1-0.2-49.8c0-4.7,1.4-8.1,4.8-11c3.7-3.3,7.6-6.4,12-8.7c16.1-8.1,32.6-2.7,40.5,13.6c3.5,7.2,5.4,16.7,5.6,27.7
	C592.2,888.6,592,892.2,591.5,895.9z"/>
<path class="st1" d="M737.2,854.8c-0.6-21.1-14-34.3-35.3-37c-16.1-2.1-31.6-0.6-47.1,4.3c-16.3,5-16.1,5-13.8,21.5
	c0.8,6,1.6,7.9,8.3,5c14.1-6.2,28.7-11.2,44.8-8.1c9.9,1.9,15.3,7.9,16.3,17.1c0.6,5-0.6,7-6.2,7.6c-17.1,1.4-33.9,4.3-49.6,11.6
	c-13.6,6.6-23.3,16.1-24.2,32.4c-1.9,34.1,25.2,45.4,48.7,43.2c12.8-1.2,23.8-7,32.8-16.5c3.3,4.5-1.2,11.2,3.5,13.2
	c4.3,1.7,9.7,0.6,14.7,0.6c1,0,1.9,0,2.9,0c3.3,0.2,4.7-1.2,4.7-4.7C737.6,915.1,738,884.9,737.2,854.8z M698.2,922.9
	c-10.3,6.2-21.5,9.3-33.1,4.1c-10.7-4.8-11.2-20.5-1.2-28.7c6-4.8,13.4-7.2,20.7-8.9c6.6-1.6,13.6-2.1,20.4-3.5
	c4.3-0.8,6.4,0.2,5.8,5c-0.4,3.1,0,6.2,0,10.9C714.3,912,706.5,917.8,698.2,922.9z"/>
<path class="st1" d="M763.1,674.8c-11.2,8.7-22.7,14.9-35.9,17.3c-25.2,4.7-41.7-7.2-45.9-32.2c-1.2-6.4,0-8.3,6.8-8.1
	c24.4,0.4,48.8,0,73.3,0.2c4.7,0,6.2-1.2,6.2-6c-0.2-10.9-1.7-21.1-5.6-31.2c-7.6-19.6-21.3-31.8-42.4-34.1
	c-20.9-2.3-39.3,3.5-51.9,21.1c-14.3,20-16.1,42.4-11.4,65.9c3.5,18.2,12.4,32.8,29.1,41.7c22.1,11.4,59.7,7.2,78.9-8.9
	c1.9-1.6,3.5-2.9,2.7-6C765.5,688.3,764.5,682.1,763.1,674.8z M682.8,628.2c1-12.4,13.8-25.2,26.4-26.4c15.5-1.2,28.1,9.3,30,24.8
	c0.4,3.7-0.8,4.7-4.1,4.5c-8.1-0.2-16.1,0-24.2,0c-8.1,0-16.1,0-24.2,0C684.6,631.1,682.3,631.9,682.8,628.2z"/>
<path class="st1" d="M277.7,869c-3.9-23.6-15.5-42.1-39.5-49c-23.8-7-46.3-3.3-64,15.9c-12.6,13.8-16.1,30.8-15.9,50
	c-0.2,5,0.4,11,1.4,17.3c4.7,28.1,23.5,45.7,52.7,49.4c25.8,3.3,50-10.9,60.5-35.3C279.6,901.5,280.4,885.3,277.7,869z M243.4,916.3
	c-14.5,20-42.3,17.1-52.5-5.2c-3.9-8.3-5.4-17.1-5.4-26.4c0-9.1,1.6-18,5.4-26.4c5-10.9,13.6-17.8,25.6-18.8
	c11.8-1,20.9,4.5,27.5,14.3C255,870.1,254.6,900.8,243.4,916.3z"/>
<path class="st1" d="M280.4,614.3c-9.1-20.7-25.4-32-47.9-33.5c-21.5-1.6-40.3,4.5-53.7,22.7c-12.2,16.7-13.6,36.1-11.8,55.6
	c1.9,22.5,10.9,41.7,32.8,51.2c21.7,9.3,43.8,8.5,63.4-6c18.4-13.8,23.5-34.1,23.8-55.8C287.2,636.4,285.1,624.9,280.4,614.3z
	 M251.2,679.8c-11.2,16.1-32.4,18-45.9,3.9c-16.3-16.9-15.9-55.8,0.8-72.1c13.4-13,34.3-11,45.2,4.3c6.4,9.1,8.9,18,8.9,32.2
	C260.1,659.6,257.7,670.3,251.2,679.8z"/>
</svg>
