<?xml version="1.0" encoding="utf-8"?>
<!-- Generator: Adobe Illustrator 19.2.1, SVG Export Plug-In . SVG Version: 6.00 Build 0)  -->
<svg version="1.1" id="Layer_1" xmlns="http://www.w3.org/2000/svg" xmlns:xlink="http://www.w3.org/1999/xlink" x="0px" y="0px"
	 width="1719.2px" height="239.2px" viewBox="0 0 1719.2 239.2" style="enable-background:new 0 0 1719.2 239.2;"
	 xml:space="preserve">
<style type="text/css">
	.st0{clip-path:url(#SVGID_2_);fill:#FFFFFF;}
	.st1{clip-path:url(#SVGID_2_);fill:#057DBA;}
	.st2{clip-path:url(#SVGID_2_);fill:#B2D236;}
	.st3{clip-path:url(#SVGID_2_);fill:#1FBCEE;}
	.st4{clip-path:url(#SVGID_2_);fill:#EC2227;}
</style>
<g>
	<defs>
		<rect id="SVGID_1_" width="1719.2" height="239.2"/>
	</defs>
	<clipPath id="SVGID_2_">
		<use xlink:href="#SVGID_1_"  style="overflow:visible;"/>
	</clipPath>
	<path class="st0" d="M282.6,196.6l2.9-18.8c2.9,2.2,15.2,10.1,36.9,10.1c15.9,0,26.7-7.2,26.7-18.1c0-8.7-5.1-13.7-18.8-20.2
		c-2.9-1.4-15.9-7.2-20.2-9.4c-15.2-7.2-25.3-17.3-25.3-34.7c0-19.5,15.9-33.2,43.4-33.2c18.8,0,30.4,6.5,33.2,7.9l-2.9,18.1
		c-2.9-2.2-15.2-8.7-31.1-8.7c-15.2,0-23.1,7.2-23.1,16.6c0,7.9,5.1,12.3,15.2,17.3c3.6,1.4,19.5,8.7,22.4,9.4
		c18.8,8.7,26.7,19.5,26.7,35.4c0,21.7-18.1,36.9-44.8,36.9C298.5,205.2,285.5,198.7,282.6,196.6"/>
	<path class="st0" d="M419.1,205.2c-23.1,0-41.9-15.2-41.9-47c0-31.1,18.8-47,41.9-47c23.8,0,41.2,16.6,41.2,47
		C460.3,190.1,441.6,205.2,419.1,205.2 M419.1,190.1c13.7,0,23.1-13,23.1-31.1c0-18.1-8.7-31.1-23.1-31.1
		c-15.9,0-23.1,15.2-23.1,31.1C396,176.3,404,190.1,419.1,190.1"/>
	<path class="st0" d="M472.6,178.5v-64.3h18.1v58.5c0,10.1,3.6,17.3,14.5,17.3c9.4,0,18.8-8.7,22.4-13.7v-62.2h18.1v89.6h-15.9
		l-1.4-11.6c-3.6,3.6-15.2,13-29.6,13C481.3,205.2,472.6,194.4,472.6,178.5"/>
	<path class="st0" d="M612.8,203.8c-0.7,0-7.2,1.4-13.7,1.4c-17.3,0-26-8.7-26-26.7v-49.9h-13v-15.2h13V88.9l18.1-5.1v29.6h18.8
		l2.9,15.2h-21.7v47.7c0,8.7,4.3,11.6,11.6,11.6c3.6,0,7.2-0.7,7.9-0.7L612.8,203.8z"/>
	<path class="st0" d="M701,139.5v64.3h-18.1v-58.5c0-10.1-3.6-17.3-14.5-17.3c-9.4,0-18.8,8.7-22.4,13.7v61.4H628V73.7l18.1-5.1
		v55.6c3.6-3.6,14.5-12.3,28.9-12.3C692.3,112,701,122.9,701,139.5"/>
	<path class="st0" d="M732.1,161.2c0,9.4,3.6,28.2,25.3,28.2c16.6,0,28.9-10.1,31.8-13l2.9,15.9c-3.6,2.9-15.2,12.3-36.1,12.3
		c-24.6,0-41.2-16.6-41.2-47c0-31.1,18.8-47,39.7-47c26.7,0,38.3,21.7,38.3,44.8v4.3h-60.7V161.2z M773.3,147.4
		c-1.4-5.8-3.6-20.2-19.5-20.2c-13,0-18.8,11.6-20.2,20.2H773.3z"/>
	<path class="st0" d="M824.6,130.1c5.1-7.9,15.9-18.1,31.1-18.1l2.9,16.6c-14.5,0-23.8,5.8-32.5,19.5v55.6h-18.1v-89.6h15.2
		L824.6,130.1z"/>
	<path class="st0" d="M940.9,139.5v64.3h-18.1v-58.5c0-10.1-3.6-17.3-14.5-17.3c-9.4,0-18.8,8.7-22.4,13.7v61.4h-18.1v-88.9h15.9
		l1.4,11.6c3.6-3.6,15.2-13,29.6-13C932.2,112,940.9,122.9,940.9,139.5"/>
	<path class="st0" d="M1092,83.1l-2.9,18.8c-2.2-2.2-15.2-12.3-34.7-12.3c-26.7,0-40.5,21.7-40.5,49.1c0,29.6,14.5,49.1,40.5,49.1
		c18.1,0,31.8-10.1,36.1-13.7l2.9,18.8c-1.4,2.2-14.5,11.6-39,11.6c-34.7,0-60-25.3-60-66.5s24.6-66.5,60-66.5
		C1077.5,73,1089.1,81.7,1092,83.1"/>
	<path class="st0" d="M1141.8,205.2c-23.1,0-41.9-15.2-41.9-47c0-31.1,18.8-47,41.9-47c23.8,0,41.2,16.6,41.2,47
		C1183,190.1,1164.2,205.2,1141.8,205.2 M1141.8,190.1c13.7,0,23.1-13,23.1-31.1c0-18.1-8.7-31.1-23.1-31.1
		c-15.9,0-23.1,15.2-23.1,31.1C1118.7,176.3,1126.6,190.1,1141.8,190.1"/>
	<path class="st0" d="M1321,139.5v64.3H1303v-58.5c0-10.1-2.9-17.3-13.7-17.3c-9.4,0-18.1,8.7-21.7,13.7v61.4h-18.1v-57.8
		c0-10.1-2.9-17.3-13.7-17.3c-9.4,0-18.1,8.7-21.7,13.7v61.4h-19.5v-88.9h15.9l1.4,11.6c3.6-3.6,15.2-13,29.6-13
		c12.3,0,20.2,5.1,23.8,13.7c5.8-5.8,16.6-13.7,30.4-13.7C1313.1,112,1321,122.9,1321,139.5"/>
	<path class="st0" d="M1354.3,125.7c2.2-2.2,11.6-13,28.2-13c21,0,35.4,15.2,35.4,47c0,33.2-21.7,47-43.4,47
		c-8.7,0-17.3-2.9-18.8-3.6v31.1l-18.1,5.1v-125h15.2L1354.3,125.7z M1356.5,139.5v47c1.4,0.7,8.7,2.9,17.3,2.9
		c17.3,0,26-13.7,26-31.1c0-18.8-7.9-31.1-22.4-31.1C1366.6,127.9,1357.9,137.3,1356.5,139.5"/>
	<path class="st0" d="M1483.6,203.8l-0.7-10.8c-1.4,2.9-10.8,13-26.7,13c-16.6,0-30.4-8.7-30.4-28.2c0-26.7,36.1-30.4,55.6-32.5
		v-2.9c0-6.5-2.9-14.5-17.3-14.5c-13.7,0-27.5,7.2-29.6,7.9l-2.2-15.9c2.9-1.4,17.3-8,33.2-8c26.7,0,34.7,12.3,34.7,31.8v60H1483.6
		 M1481.5,159c-20.2,2.2-37.6,6.5-37.6,18.8c0,7.9,5.8,12.3,13.7,12.3c12.3,0,21.7-9.4,23.8-11.6V159z"/>
	<path class="st0" d="M1590.6,139.5v64.3h-18.1v-58.5c0-10.1-3.6-17.3-14.5-17.3c-9.4,0-18.8,8.7-22.4,13.7v61.4h-18.1v-88.9h15.9
		l1.4,11.6c3.6-3.6,15.2-13,29.6-13C1581.9,112,1590.6,122.9,1590.6,139.5"/>
	<path class="st0" d="M1618.1,114.2l23.1,66.5l22.4-66.5h18.8c0,0-26,70.1-36.1,96.8c-8.7,24.6-23.8,26-31.8,26
		c-3.6,0-6.5-0.7-7.2-0.7l-2.2-15.9c0.7,0,5.1,1.4,10.1,1.4c9.4,0,12.3-6.5,13.7-10.1c1.4-4.3,2.9-8,2.9-8l-32.5-88.9h18.8V114.2z"
		/>
	<polygon class="st1" points="0,203.8 235.6,203.8 78,164 	"/>
	<polygon class="st2" points="29.6,152.5 0,203.8 78,164 	"/>
	<polygon class="st3" points="78,164 235.6,203.8 182.8,112 	"/>
	<polygon class="st4" points="117.8,0 36.1,141.6 176.3,101.2 	"/>
	<path class="st0" d="M1689.6,113.5h11.6l0.7,2.9h-4.3v11.6h-2.9v-11.6h-4.3v-2.9H1689.6z M1702.6,127.9l1.4-14.5h3.6l3.6,10.1
		l3.6-10.1h2.9l1.4,14.5h-2.9l-0.7-8.7l-3.6,8.7h-2.2l-3.6-8.7l-0.7,8.7H1702.6z"/>
</g>
</svg>
